SourceSans3-BlackItalic.ufo
<glyph name="ampersand" format="2">
	<unicode hex="0026"/>
	<advance width="652"/>
	<outline>
		<contour>
			<point x="208" y="-12" type="curve" smooth="yes"/>
			<point x="312" y="-12"/>
			<point x="399" y="29"/>
			<point x="471" y="98" type="curve" smooth="yes"/>
			<point x="556" y="180"/>
			<point x="614" y="274"/>
			<point x="660" y="372" type="curve"/>
			<point x="516" y="372" type="line"/>
			<point x="484" y="293"/>
			<point x="440" y="227"/>
			<point x="376" y="168" type="curve" smooth="yes"/>
			<point x="330" y="126"/>
			<point x="280" y="108"/>
			<point x="236" y="108" type="curve" smooth="yes"/>
			<point x="192" y="108"/>
			<point x="168" y="134"/>
			<point x="168" y="170" type="curve" smooth="yes"/>
			<point x="168" y="298"/>
			<point x="492" y="330"/>
			<point x="492" y="522" type="curve" smooth="yes"/>
			<point x="492" y="608"/>
			<point x="440" y="662"/>
			<point x="348" y="662" type="curve" smooth="yes"/>
			<point x="230" y="662"/>
			<point x="140" y="572"/>
			<point x="140" y="466" type="curve" smooth="yes"/>
			<point x="140" y="340"/>
			<point x="238" y="179"/>
			<point x="363" y="78" type="curve" smooth="yes"/>
			<point x="420" y="32"/>
			<point x="485" y="0"/>
			<point x="548" y="-12" type="curve"/>
			<point x="610" y="114" type="line"/>
			<point x="574" y="122"/>
			<point x="520" y="140"/>
			<point x="474" y="173" type="curve" smooth="yes"/>
			<point x="372" y="246"/>
			<point x="272" y="365"/>
			<point x="272" y="470" type="curve" smooth="yes"/>
			<point x="272" y="526"/>
			<point x="305" y="558"/>
			<point x="338" y="558" type="curve" smooth="yes"/>
			<point x="358" y="558"/>
			<point x="369" y="547"/>
			<point x="369" y="525" type="curve" smooth="yes"/>
			<point x="369" y="380"/>
			<point x="14" y="396"/>
			<point x="14" y="154" type="curve" smooth="yes"/>
			<point x="14" y="56"/>
			<point x="84" y="-12"/>
		</contour>
	</outline>
</glyph>
<glyph name="parenright" format="2">
	<unicode hex="0029"/>
	<advance width="346"/>
	<outline>
		<contour>
			<point x="64" y="-184" type="line"/>
			<point x="218" y="-30"/>
			<point x="300" y="178"/>
			<point x="300" y="430" type="curve" smooth="yes"/>
			<point x="300" y="550"/>
			<point x="270" y="650"/>
			<point x="234" y="734" type="curve"/>
			<point x="134" y="692" type="line"/>
			<point x="158" y="622"/>
			<point x="172" y="532"/>
			<point x="172" y="426" type="curve" smooth="yes"/>
			<point x="172" y="232"/>
			<point x="112" y="20"/>
			<point x="-28" y="-130" type="curve"/>
		</contour>
	</outline>
</glyph>
<glyph name="plus" format="2">
	<unicode hex="002B"/>
	<advance width="520"/>
	<outline>
		<contour>
			<point x="212" y="92" type="line"/>
			<point x="328" y="92" type="line"/>
			<point x="328" y="274" type="line"/>
			<point x="496" y="274" type="line"/>
			<point x="496" y="386" type="line"/>
			<point x="330" y="386" type="line"/>
			<point x="330" y="568" type="line"/>
			<point x="214" y="568" type="line"/>
			<point x="214" y="386" type="line"/>
			<point x="48" y="386" type="line"/>
			<point x="48" y="274" type="line"/>
			<point x="212" y="274" type="line"/>
		</contour>
	</outline>
</glyph>
<glyph name="period" format="2">
	<unicode hex="002E"/>
	<advance width="310"/>
	<outline>
		<contour>
			<point x="104" y="-12" type="curve" smooth="yes"/>
			<point x="170" y="-12"/>
			<point x="214" y="44"/>
			<point x="214" y="100" type="curve" smooth="yes"/>
			<point x="214" y="148"/>
			<point x="182" y="184"/>
			<point x="134" y="184" type="curve" smooth="yes"/>
			<point x="68" y="184"/>
			<point x="24" y="126"/>
			<point x="24" y="72" type="curve" smooth="yes"/>
			<point x="24" y="22"/>
			<point x="56" y="-12"/>
		</contour>
	</outline>
</glyph>
<glyph name="zero" format="2">
	<unicode hex="0030"/>
	<advance width="520"/>
	<outline>
		<contour>
			<point x="224" y="-12" type="curve" smooth="yes"/>
			<point x="358" y="-12"/>
			<point x="508" y="114"/>
			<point x="508" y="412" type="curve" smooth="yes"/>
			<point x="508" y="574"/>
			<point x="426" y="646"/>
			<point x="322" y="646" type="curve" smooth="yes"/>
			<point x="188" y="646"/>
			<point x="36" y="518"/>
			<point x="36" y="220" type="curve" smooth="yes"/>
			<point x="36" y="60"/>
			<point x="120" y="-12"/>
		</contour>
		<contour>
			<point x="234" y="110" type="curve" smooth="yes"/>
			<point x="204" y="110"/>
			<point x="184" y="128"/>
			<point x="184" y="202" type="curve" smooth="yes"/>
			<point x="184" y="392"/>
			<point x="252" y="524"/>
			<point x="312" y="524" type="curve" smooth="yes"/>
			<point x="342" y="524"/>
			<point x="362" y="504"/>
			<point x="362" y="430" type="curve" smooth="yes"/>
			<point x="362" y="240"/>
			<point x="294" y="110"/>
		</contour>
	</outline>
</glyph>
<glyph name="four" format="2">
	<unicode hex="0034"/>
	<advance width="520"/>
	<outline>
		<contour>
			<point x="390" y="0" type="line"/>
			<point x="419" y="146" type="line"/>
			<point x="488" y="146" type="line"/>
			<point x="512" y="268" type="line"/>
			<point x="443" y="268" type="line"/>
			<point x="516" y="634" type="line"/>
			<point x="322" y="634" type="line"/>
			<point x="28" y="258" type="line"/>
			<point x="6" y="146" type="line"/>
			<point x="273" y="146" type="line"/>
			<point x="244" y="0" type="line"/>
		</contour>
		<contour>
			<point x="184" y="268" type="line"/>
			<point x="266" y="380" type="line" smooth="yes"/>
			<point x="295" y="420"/>
			<point x="320" y="460"/>
			<point x="344" y="500" type="curve"/>
			<point x="348" y="500" type="line"/>
			<point x="338" y="452"/>
			<point x="324" y="402"/>
			<point x="314" y="354" type="curve" smooth="yes"/>
			<point x="297" y="268" type="line"/>
		</contour>
	</outline>
</glyph>
<glyph name="nine" format="2">
	<unicode hex="0039"/>
	<advance width="520"/>
	<outline>
		<contour>
			<point x="172" y="-12" type="curve" smooth="yes"/>
			<point x="362" y="-12"/>
			<point x="498" y="156"/>
			<point x="498" y="416" type="curve" smooth="yes"/>
			<point x="498" y="553"/>
			<point x="418" y="646"/>
			<point x="292" y="646" type="curve" smooth="yes"/>
			<point x="156" y="646"/>
			<point x="62" y="523"/>
			<point x="62" y="400" type="curve" smooth="yes"/>
			<point x="62" y="283"/>
			<point x="132" y="234"/>
			<point x="220" y="234" type="curve" smooth="yes"/>
			<point x="253" y="234"/>
			<point x="307" y="256"/>
			<point x="341" y="294" type="curve"/>
			<point x="356" y="406" type="line"/>
			<point x="320" y="358"/>
			<point x="290" y="342"/>
			<point x="264" y="342" type="curve" smooth="yes"/>
			<point x="228" y="342"/>
			<point x="208" y="368"/>
			<point x="208" y="413" type="curve" smooth="yes"/>
			<point x="208" y="460"/>
			<point x="230" y="528"/>
			<point x="284" y="528" type="curve" smooth="yes"/>
			<point x="322" y="528"/>
			<point x="350" y="496"/>
			<point x="350" y="433" type="curve" smooth="yes"/>
			<point x="350" y="212"/>
			<point x="272" y="116"/>
			<point x="182" y="116" type="curve" smooth="yes"/>
			<point x="148" y="116"/>
			<point x="126" y="136"/>
			<point x="108" y="162" type="curve"/>
			<point x="8" y="78" type="line"/>
			<point x="36" y="40"/>
			<point x="88" y="-12"/>
		</contour>
	</outline>
</glyph>
<glyph name="less" format="2">
	<unicode hex="003C"/>
	<advance width="520"/>
	<outline>
		<contour>
			<point x="496" y="98" type="line"/>
			<point x="496" y="230" type="line"/>
			<point x="338" y="284" type="line"/>
			<point x="208" y="330" type="line"/>
			<point x="208" y="334" type="line"/>
			<point x="338" y="380" type="line"/>
			<point x="496" y="434" type="line"/>
			<point x="496" y="564" type="line"/>
			<point x="46" y="386" type="line"/>
			<point x="46" y="276" type="line"/>
		</contour>
	</outline>
</glyph>
<glyph name="B" format="2">
	<unicode hex="0042"/>
	<advance width="602"/>
	<outline>
		<contour>
			<point x="26" y="0" type="line"/>
			<point x="272" y="0" type="line" smooth="yes"/>
			<point x="424" y="0"/>
			<point x="554" y="60"/>
			<point x="554" y="216" type="curve" smooth="yes"/>
			<point x="554" y="276"/>
			<point x="518" y="316"/>
			<point x="444" y="334" type="curve"/>
			<point x="444" y="338" type="line"/>
			<point x="536" y="366"/>
			<point x="586" y="430"/>
			<point x="586" y="500" type="curve" smooth="yes"/>
			<point x="586" y="606"/>
			<point x="496" y="650"/>
			<point x="364" y="650" type="curve" smooth="yes"/>
			<point x="156" y="650" type="line"/>
		</contour>
		<contour>
			<point x="264" y="390" type="line"/>
			<point x="292" y="528" type="line"/>
			<point x="338" y="528" type="line" smooth="yes"/>
			<point x="398" y="528"/>
			<point x="426" y="508"/>
			<point x="426" y="472" type="curve" smooth="yes"/>
			<point x="426" y="422"/>
			<point x="396" y="390"/>
			<point x="318" y="390" type="curve" smooth="yes"/>
		</contour>
		<contour>
			<point x="210" y="122" type="line"/>
			<point x="242" y="282" type="line"/>
			<point x="316" y="282" type="line" smooth="yes"/>
			<point x="376" y="282"/>
			<point x="404" y="258"/>
			<point x="404" y="210" type="curve" smooth="yes"/>
			<point x="404" y="156"/>
			<point x="364" y="122"/>
			<point x="284" y="122" type="curve" smooth="yes"/>
		</contour>
	</outline>
	<anchor name="aboveUC" x="380" y="672"/>
	<anchor name="belowLC" x="270" y="-22"/>
</glyph>
<glyph name="E" format="2">
	<unicode hex="0045"/>
	<advance width="534"/>
	<outline>
		<contour>
			<point x="26" y="0" type="line"/>
			<point x="432" y="0" type="line"/>
			<point x="458" y="134" type="line"/>
			<point x="212" y="134" type="line"/>
			<point x="240" y="268" type="line"/>
			<point x="442" y="268" type="line"/>
			<point x="468" y="402" type="line"/>
			<point x="266" y="402" type="line"/>
			<point x="288" y="516" type="line"/>
			<point x="526" y="516" type="line"/>
			<point x="552" y="650" type="line"/>
			<point x="156" y="650" type="line"/>
		</contour>
	</outline>
	<anchor name="aboveUC" x="360" y="672"/>
	<anchor name="baseLC" x="250" y="0"/>
	<anchor name="belowLC" x="250" y="-22"/>
	<anchor name="ogonekUC" x="348" y="0"/>
</glyph>
<glyph name="J" format="2">
	<unicode hex="004A"/>
	<advance width="504"/>
	<outline>
		<contour>
			<point x="182" y="-12" type="curve" smooth="yes"/>
			<point x="330" y="-12"/>
			<point x="402" y="92"/>
			<point x="426" y="212" type="curve" smooth="yes"/>
			<point x="514" y="650" type="line"/>
			<point x="354" y="650" type="line"/>
			<point x="272" y="240" type="line" smooth="yes"/>
			<point x="256" y="160"/>
			<point x="228" y="126"/>
			<point x="180" y="126" type="curve" smooth="yes"/>
			<point x="138" y="126"/>
			<point x="106" y="148"/>
			<point x="86" y="178" type="curve"/>
			<point x="-6" y="96" type="line"/>
			<point x="32" y="22"/>
			<point x="105" y="-12"/>
		</contour>
	</outline>
	<anchor name="aboveUC" x="440" y="672"/>
	<anchor name="belowLC" x="190" y="-22"/>
</glyph>
<glyph name="M" format="2">
	<unicode hex="004D"/>
	<advance width="754"/>
	<outline>
		<contour>
			<point x="26" y="0" type="line"/>
			<point x="174" y="0" type="line"/>
			<point x="218" y="216" type="line" smooth="yes"/>
			<point x="232" y="284"/>
			<point x="240" y="382"/>
			<point x="242" y="450" type="curve"/>
			<point x="246" y="450" type="line"/>
			<point x="266" y="292" type="line"/>
			<point x="308" y="56" type="line"/>
			<point x="368" y="56" type="line"/>
			<point x="504" y="292" type="line"/>
			<point x="586" y="450" type="line"/>
			<point x="590" y="450" type="line"/>
			<point x="566" y="382"/>
			<point x="538" y="284"/>
			<point x="524" y="216" type="curve" smooth="yes"/>
			<point x="478" y="0" type="line"/>
			<point x="628" y="0" type="line"/>
			<point x="758" y="650" type="line"/>
			<point x="590" y="650" type="line"/>
			<point x="438" y="370" type="line" smooth="yes"/>
			<point x="418" y="332"/>
			<point x="402" y="300"/>
			<point x="383" y="260" type="curve"/>
			<point x="379" y="260" type="line"/>
			<point x="374" y="300"/>
			<point x="370" y="332"/>
			<point x="364" y="370" type="curve" smooth="yes"/>
			<point x="322" y="650" type="line"/>
			<point x="156" y="650" type="line"/>
		</contour>
	</outline>
	<anchor name="aboveUC" x="450" y="672"/>
	<anchor name="belowLC" x="320" y="-22"/>
</glyph>
<glyph name="N" format="2">
	<unicode hex="004E"/>
	<advance width="652"/>
	<outline>
		<contour>
			<point x="26" y="0" type="line"/>
			<point x="178" y="0" type="line"/>
			<point x="220" y="210" type="line" smooth="yes"/>
			<point x="236" y="288"/>
			<point x="244" y="380"/>
			<point x="248" y="454" type="curve"/>
			<point x="252" y="454" type="line"/>
			<point x="262" y="400"/>
			<point x="270" y="356"/>
			<point x="282" y="312" type="curve" smooth="yes"/>
			<point x="368" y="0" type="line"/>
			<point x="526" y="0" type="line"/>
			<point x="656" y="650" type="line"/>
			<point x="504" y="650" type="line"/>
			<point x="462" y="440" type="line" smooth="yes"/>
			<point x="446" y="362"/>
			<point x="438" y="270"/>
			<point x="434" y="196" type="curve"/>
			<point x="430" y="196" type="line"/>
			<point x="420" y="250"/>
			<point x="412" y="294"/>
			<point x="400" y="338" type="curve" smooth="yes"/>
			<point x="314" y="650" type="line"/>
			<point x="156" y="650" type="line"/>
		</contour>
	</outline>
	<anchor name="aboveUC" x="410" y="672"/>
	<anchor name="belowLC" x="280" y="-22"/>
</glyph>
<glyph name="U" format="2">
	<unicode hex="0055"/>
	<advance width="654"/>
	<outline>
		<contour>
			<point x="316" y="-12" type="curve" smooth="yes"/>
			<point x="464" y="-12"/>
			<point x="545" y="73"/>
			<point x="588" y="286" type="curve" smooth="yes"/>
			<point x="662" y="650" type="line"/>
			<point x="506" y="650" type="line"/>
			<point x="432" y="282" type="line" smooth="yes"/>
			<point x="408" y="160"/>
			<point x="378" y="126"/>
			<point x="320" y="126" type="curve" smooth="yes"/>
			<point x="254" y="126"/>
			<point x="234" y="160"/>
			<point x="234" y="226" type="curve" smooth="yes"/>
			<point x="234" y="250"/>
			<point x="238" y="274"/>
			<point x="242" y="300" type="curve" smooth="yes"/>
			<point x="312" y="650" type="line"/>
			<point x="152" y="650" type="line"/>
			<point x="88" y="332" type="line" smooth="yes"/>
			<point x="82" y="298"/>
			<point x="74" y="252"/>
			<point x="74" y="222" type="curve" smooth="yes"/>
			<point x="74" y="62"/>
			<point x="154" y="-12"/>
		</contour>
	</outline>
	<anchor name="aboveUC" x="410" y="672"/>
	<anchor name="belowLC" x="290" y="-22"/>
	<anchor name="hornLC" x="620" y="662"/>
	<anchor name="ogonekUC" x="290" y="0"/>
</glyph>
<glyph name="bracketleft" format="2">
	<unicode hex="005B"/>
	<advance width="344"/>
	<outline>
		<contour>
			<point x="-8" y="-152" type="line"/>
			<point x="204" y="-152" type="line"/>
			<point x="222" y="-68" type="line"/>
			<point x="128" y="-68" type="line"/>
			<point x="266" y="624" type="line"/>
			<point x="360" y="624" type="line"/>
			<point x="376" y="708" type="line"/>
			<point x="164" y="708" type="line"/>
		</contour>
	</outline>
</glyph>
<glyph name="underscore" format="2">
	<unicode hex="005F"/>
	<advance width="480"/>
	<outline>
		<contour>
			<point x="-52" y="-144" type="line"/>
			<point x="404" y="-144" type="line"/>
			<point x="422" y="-56" type="line"/>
			<point x="-34" y="-56" type="line"/>
		</contour>
	</outline>
</glyph>
<glyph name="b" format="2">
	<unicode hex="0062"/>
	<advance width="560"/>
	<outline>
		<contour>
			<point x="264" y="-12" type="curve" smooth="yes"/>
			<point x="402" y="-12"/>
			<point x="530" y="138"/>
			<point x="530" y="328" type="curve" smooth="yes"/>
			<point x="530" y="446"/>
			<point x="478" y="512"/>
			<point x="390" y="512" type="curve" smooth="yes"/>
			<point x="344" y="512"/>
			<point x="296" y="492"/>
			<point x="254" y="458" type="curve"/>
			<point x="252" y="458" type="line"/>
			<point x="278" y="550" type="line"/>
			<point x="308" y="696" type="line"/>
			<point x="148" y="696" type="line"/>
			<point x="8" y="0" type="line"/>
			<point x="140" y="0" type="line"/>
			<point x="162" y="50" type="line"/>
			<point x="164" y="50" type="line"/>
			<point x="182" y="12"/>
			<point x="222" y="-12"/>
		</contour>
		<contour>
			<point x="252" y="118" type="curve" smooth="yes"/>
			<point x="232" y="118"/>
			<point x="210" y="130"/>
			<point x="200" y="156" type="curve"/>
			<point x="234" y="326" type="line"/>
			<point x="258" y="370"/>
			<point x="292" y="382"/>
			<point x="318" y="382" type="curve" smooth="yes"/>
			<point x="346" y="382"/>
			<point x="364" y="360"/>
			<point x="364" y="308" type="curve" smooth="yes"/>
			<point x="364" y="196"/>
			<point x="310" y="118"/>
		</contour>
	</outline>
	<anchor name="aboveUC" x="400" y="722"/>
	<anchor name="belowLC" x="230" y="-22"/>
	<anchor name="center" x="210" y="580"/>
</glyph>
<glyph name="f" format="2">
	<unicode hex="0066"/>
	<advance width="344"/>
	<outline>
		<contour>
			<point x="34" y="0" type="line"/>
			<point x="194" y="0" type="line"/>
			<point x="268" y="376" type="line"/>
			<point x="352" y="376" type="line"/>
			<point x="376" y="500" type="line"/>
			<point x="294" y="500" type="line"/>
			<point x="298" y="520" type="line" smooth="yes"/>
			<point x="308" y="574"/>
			<point x="328" y="582"/>
			<point x="360" y="582" type="curve" smooth="yes"/>
			<point x="376" y="582"/>
			<point x="398" y="576"/>
			<point x="408" y="570" type="curve"/>
			<point x="458" y="680" type="line"/>
			<point x="424" y="698"/>
			<point x="384" y="708"/>
			<point x="344" y="708" type="curve" smooth="yes"/>
			<point x="218" y="708"/>
			<point x="158" y="618"/>
			<point x="138" y="514" type="curve" smooth="yes"/>
			<point x="136" y="500" type="line"/>
			<point x="66" y="494" type="line"/>
			<point x="42" y="376" type="line"/>
			<point x="110" y="376" type="line"/>
		</contour>
	</outline>
	<anchor name="aboveUC" x="330" y="722"/>
	<anchor name="belowLC" x="120" y="-22"/>
	<anchor name="center" x="160" y="220"/>
</glyph>
<glyph name="h" format="2">
	<unicode hex="0068"/>
	<advance width="556"/>
	<outline>
		<contour>
			<point x="8" y="0" type="line"/>
			<point x="168" y="0" type="line"/>
			<point x="230" y="320" type="line"/>
			<point x="266" y="358"/>
			<point x="290" y="376"/>
			<point x="318" y="376" type="curve" smooth="yes"/>
			<point x="344" y="376"/>
			<point x="360" y="362"/>
			<point x="360" y="334" type="curve" smooth="yes"/>
			<point x="360" y="322"/>
			<point x="356" y="308"/>
			<point x="352" y="290" type="curve" smooth="yes"/>
			<point x="294" y="0" type="line"/>
			<point x="454" y="0" type="line"/>
			<point x="516" y="310" type="line" smooth="yes"/>
			<point x="522" y="334"/>
			<point x="524" y="360"/>
			<point x="524" y="382" type="curve" smooth="yes"/>
			<point x="524" y="468"/>
			<point x="488" y="512"/>
			<point x="406" y="512" type="curve" smooth="yes"/>
			<point x="346" y="512"/>
			<point x="294" y="482"/>
			<point x="254" y="446" type="curve"/>
			<point x="250" y="446" type="line"/>
			<point x="274" y="534" type="line"/>
			<point x="308" y="696" type="line"/>
			<point x="148" y="696" type="line"/>
		</contour>
	</outline>
	<anchor name="aboveUC" x="400" y="722"/>
	<anchor name="belowLC" x="230" y="-22"/>
</glyph>
<glyph name="m" format="2">
	<unicode hex="006D"/>
	<advance width="838"/>
	<outline>
		<contour>
			<point x="8" y="0" type="line"/>
			<point x="168" y="0" type="line"/>
			<point x="230" y="320" type="line"/>
			<point x="266" y="358"/>
			<point x="292" y="376"/>
			<point x="314" y="376" type="curve" smooth="yes"/>
			<point x="338" y="376"/>
			<point x="354" y="362"/>
			<point x="354" y="334" type="curve" smooth="yes"/>
			<point x="354" y="322"/>
			<point x="350" y="308"/>
			<point x="346" y="290" type="curve" smooth="yes"/>
			<point x="288" y="0" type="line"/>
			<point x="448" y="0" type="line"/>
			<point x="512" y="320" type="line"/>
			<point x="548" y="358"/>
			<point x="574" y="376"/>
			<point x="594" y="376" type="curve" smooth="yes"/>
			<point x="620" y="376"/>
			<point x="636" y="362"/>
			<point x="636" y="334" type="curve" smooth="yes"/>
			<point x="636" y="322"/>
			<point x="632" y="308"/>
			<point x="628" y="290" type="curve" smooth="yes"/>
			<point x="570" y="0" type="line"/>
			<point x="730" y="0" type="line"/>
			<point x="792" y="310" type="line" smooth="yes"/>
			<point x="797" y="334"/>
			<point x="800" y="360"/>
			<point x="800" y="382" type="curve" smooth="yes"/>
			<point x="800" y="468"/>
			<point x="764" y="512"/>
			<point x="682" y="512" type="curve" smooth="yes"/>
			<point x="624" y="512"/>
			<point x="568" y="476"/>
			<point x="516" y="428" type="curve"/>
			<point x="500" y="480"/>
			<point x="472" y="512"/>
			<point x="400" y="512" type="curve" smooth="yes"/>
			<point x="342" y="512"/>
			<point x="288" y="476"/>
			<point x="242" y="436" type="curve"/>
			<point x="238" y="436" type="line"/>
			<point x="238" y="500" type="line"/>
			<point x="108" y="500" type="line"/>
		</contour>
	</outline>
	<anchor name="aboveLC" x="490" y="522"/>
	<anchor name="belowLC" x="370" y="-22"/>
</glyph>
<glyph name="p" format="2">
	<unicode hex="0070"/>
	<advance width="560"/>
	<outline>
		<contour>
			<point x="-28" y="-176" type="line"/>
			<point x="132" y="-176" type="line"/>
			<point x="156" y="-52" type="line"/>
			<point x="168" y="42" type="line"/>
			<point x="170" y="42" type="line"/>
			<point x="190" y="8"/>
			<point x="226" y="-12"/>
			<point x="264" y="-12" type="curve" smooth="yes"/>
			<point x="402" y="-12"/>
			<point x="530" y="138"/>
			<point x="530" y="328" type="curve" smooth="yes"/>
			<point x="530" y="446"/>
			<point x="478" y="512"/>
			<point x="390" y="512" type="curve" smooth="yes"/>
			<point x="342" y="512"/>
			<point x="290" y="486"/>
			<point x="246" y="446" type="curve"/>
			<point x="242" y="446" type="line"/>
			<point x="238" y="500" type="line"/>
			<point x="108" y="500" type="line"/>
		</contour>
		<contour>
			<point x="252" y="118" type="curve" smooth="yes"/>
			<point x="232" y="118"/>
			<point x="210" y="130"/>
			<point x="200" y="156" type="curve"/>
			<point x="234" y="326" type="line"/>
			<point x="258" y="370"/>
			<point x="292" y="382"/>
			<point x="318" y="382" type="curve" smooth="yes"/>
			<point x="346" y="382"/>
			<point x="364" y="360"/>
			<point x="364" y="308" type="curve" smooth="yes"/>
			<point x="364" y="196"/>
			<point x="310" y="118"/>
		</contour>
	</outline>
	<anchor name="aboveLC" x="340" y="522"/>
	<anchor name="aboverightLC" x="520" y="522"/>
	<anchor name="belowLC" x="60" y="-182"/>
	<anchor name="center" x="70" y="-100"/>
</glyph>
<glyph name="q" format="2">
	<unicode hex="0071"/>
	<advance width="558"/>
	<outline>
		<contour>
			<point x="254" y="-176" type="line"/>
			<point x="414" y="-176" type="line"/>
			<point x="550" y="500" type="line"/>
			<point x="422" y="500" type="line"/>
			<point x="400" y="450" type="line"/>
			<point x="398" y="450" type="line"/>
			<point x="380" y="488"/>
			<point x="336" y="512"/>
			<point x="294" y="512" type="curve" smooth="yes"/>
			<point x="156" y="512"/>
			<point x="28" y="362"/>
			<point x="28" y="172" type="curve" smooth="yes"/>
			<point x="28" y="54"/>
			<point x="80" y="-12"/>
			<point x="168" y="-12" type="curve" smooth="yes"/>
			<point x="216" y="-12"/>
			<point x="274" y="16"/>
			<point x="318" y="62" type="curve"/>
			<point x="320" y="62" type="line"/>
			<point x="280" y="-52" type="line"/>
		</contour>
		<contour>
			<point x="240" y="118" type="curve" smooth="yes"/>
			<point x="212" y="118"/>
			<point x="194" y="140"/>
			<point x="194" y="192" type="curve" smooth="yes"/>
			<point x="194" y="304"/>
			<point x="248" y="382"/>
			<point x="306" y="382" type="curve" smooth="yes"/>
			<point x="324" y="382"/>
			<point x="348" y="370"/>
			<point x="360" y="344" type="curve"/>
			<point x="328" y="184" type="line"/>
			<point x="300" y="130"/>
			<point x="266" y="118"/>
		</contour>
	</outline>
	<anchor name="aboveLC" x="330" y="522"/>
	<anchor name="belowLC" x="320" y="-182"/>
</glyph>
<glyph name="r" format="2">
	<unicode hex="0072"/>
	<advance width="400"/>
	<outline>
		<contour>
			<point x="8" y="0" type="line"/>
			<point x="168" y="0" type="line"/>
			<point x="222" y="280" type="line"/>
			<point x="260" y="346"/>
			<point x="296" y="372"/>
			<point x="338" y="372" type="curve" smooth="yes"/>
			<point x="354" y="372"/>
			<point x="376" y="372"/>
			<point x="390" y="364" type="curve"/>
			<point x="442" y="502" type="line"/>
			<point x="432" y="508"/>
			<point x="416" y="512"/>
			<point x="388" y="512" type="curve" smooth="yes"/>
			<point x="332" y="512"/>
			<point x="276" y="466"/>
			<point x="238" y="402" type="curve"/>
			<point x="234" y="402" type="line"/>
			<point x="238" y="500" type="line"/>
			<point x="108" y="500" type="line"/>
		</contour>
	</outline>
	<anchor name="aboveLC" x="290" y="522"/>
	<anchor name="belowLC" x="80" y="-22"/>
	<anchor name="center" x="130" y="210"/>
</glyph>
<glyph name="braceright" format="2">
	<unicode hex="007D"/>
	<advance width="346"/>
	<outline>
		<contour>
			<point x="-32" y="-152" type="line"/>
			<point x="38" y="-152" type="line" smooth="yes"/>
			<point x="130" y="-152"/>
			<point x="167" y="-116"/>
			<point x="189" y="-6" type="curve" smooth="yes"/>
			<point x="203" y="64"/>
			<point x="199" y="94"/>
			<point x="211" y="156" type="curve" smooth="yes"/>
			<point x="218" y="190"/>
			<point x="243" y="230"/>
			<point x="309" y="232" type="curve"/>
			<point x="329" y="324" type="line"/>
			<point x="275" y="326"/>
			<point x="259" y="354"/>
			<point x="259" y="384" type="curve" smooth="yes"/>
			<point x="259" y="429"/>
			<point x="309" y="538"/>
			<point x="309" y="618" type="curve" smooth="yes"/>
			<point x="309" y="676"/>
			<point x="283" y="708"/>
			<point x="209" y="708" type="curve" smooth="yes"/>
			<point x="141" y="708" type="line"/>
			<point x="125" y="624" type="line"/>
			<point x="139" y="624" type="line" smooth="yes"/>
			<point x="169" y="624"/>
			<point x="177" y="615"/>
			<point x="177" y="590" type="curve" smooth="yes"/>
			<point x="177" y="536"/>
			<point x="133" y="424"/>
			<point x="133" y="358" type="curve" smooth="yes"/>
			<point x="133" y="312"/>
			<point x="154" y="293"/>
			<point x="194" y="284" type="curve"/>
			<point x="193" y="280" type="line"/>
			<point x="138" y="268"/>
			<point x="105" y="236"/>
			<point x="89" y="156" type="curve" smooth="yes"/>
			<point x="78" y="98"/>
			<point x="72" y="51"/>
			<point x="62" y="0" type="curve" smooth="yes"/>
			<point x="52" y="-52"/>
			<point x="39" y="-68"/>
			<point x="2" y="-68" type="curve" smooth="yes"/>
			<point x="-14" y="-68" type="line"/>
		</contour>
	</outline>
</glyph>
<glyph name="paragraph" format="2">
	<unicode hex="00B6"/>
	<advance width="636"/>
	<outline>
		<contour>
			<point x="320" y="-80" type="line"/>
			<point x="480" y="-80" type="line"/>
			<point x="624" y="650" type="line"/>
			<point x="464" y="650" type="line"/>
		</contour>
		<contour>
			<point x="282" y="190" type="curve" smooth="yes"/>
			<point x="318" y="190" type="line"/>
			<point x="410" y="650" type="line"/>
			<point x="368" y="650" type="line" smooth="yes"/>
			<point x="210" y="650"/>
			<point x="68" y="570"/>
			<point x="68" y="376" type="curve" smooth="yes"/>
			<point x="68" y="256"/>
			<point x="168" y="190"/>
		</contour>
	</outline>
</glyph>
<glyph name="Thorn" format="2">
	<unicode hex="00DE"/>
	<advance width="608"/>
	<outline>
		<contour>
			<point x="26" y="0" type="line"/>
			<point x="184" y="0" type="line"/>
			<point x="206" y="116" type="line"/>
			<point x="276" y="116" type="line" smooth="yes"/>
			<point x="438" y="116"/>
			<point x="584" y="186"/>
			<point x="584" y="376" type="curve" smooth="yes"/>
			<point x="584" y="506"/>
			<point x="490" y="554"/>
			<point x="372" y="554" type="curve" smooth="yes"/>
			<point x="294" y="554" type="line"/>
			<point x="316" y="660" type="line"/>
			<point x="156" y="660" type="line"/>
		</contour>
		<contour>
			<point x="232" y="242" type="line"/>
			<point x="268" y="428" type="line"/>
			<point x="340" y="428" type="line" smooth="yes"/>
			<point x="394" y="428"/>
			<point x="426" y="404"/>
			<point x="426" y="352" type="curve" smooth="yes"/>
			<point x="426" y="280"/>
			<point x="378" y="242"/>
			<point x="294" y="242" type="curve" smooth="yes"/>
		</contour>
	</outline>
</glyph>
<glyph name="eth" format="2">
	<unicode hex="00F0"/>
	<advance width="556"/>
	<outline>
		<contour>
			<point x="228" y="-12" type="curve" smooth="yes"/>
			<point x="396" y="-12"/>
			<point x="518" y="138"/>
			<point x="518" y="376" type="curve" smooth="yes"/>
			<point x="518" y="544"/>
			<point x="410" y="668"/>
			<point x="242" y="744" type="curve"/>
			<point x="164" y="652" type="line"/>
			<point x="314" y="576"/>
			<point x="360" y="490"/>
			<point x="360" y="360" type="curve" smooth="yes"/>
			<point x="360" y="200"/>
			<point x="309" y="116"/>
			<point x="248" y="116" type="curve" smooth="yes"/>
			<point x="209" y="116"/>
			<point x="186" y="152"/>
			<point x="186" y="198" type="curve" smooth="yes"/>
			<point x="186" y="264"/>
			<point x="218" y="338"/>
			<point x="280" y="338" type="curve" smooth="yes"/>
			<point x="316" y="338"/>
			<point x="344" y="314"/>
			<point x="358" y="286" type="curve"/>
			<point x="380" y="368" type="line"/>
			<point x="366" y="430"/>
			<point x="320" y="458"/>
			<point x="266" y="458" type="curve" smooth="yes"/>
			<point x="120" y="458"/>
			<point x="28" y="316"/>
			<point x="28" y="186" type="curve" smooth="yes"/>
			<point x="28" y="62"/>
			<point x="110" y="-12"/>
		</contour>
		<contour>
			<point x="162" y="476" type="line"/>
			<point x="556" y="632" type="line"/>
			<point x="526" y="706" type="line"/>
			<point x="132" y="550" type="line"/>
		</contour>
	</outline>
	<anchor name="aboveUC" x="390" y="722"/>
	<anchor name="belowLC" x="220" y="-22"/>
</glyph>
<glyph name="hbar" format="2">
	<unicode hex="0127"/>
	<advance width="556"/>
	<outline>
		<contour>
			<point x="8" y="0" type="line"/>
			<point x="168" y="0" type="line"/>
			<point x="220" y="268" type="line"/>
			<point x="256" y="306"/>
			<point x="280" y="324"/>
			<point x="308" y="324" type="curve" smooth="yes"/>
			<point x="334" y="324"/>
			<point x="350" y="310"/>
			<point x="350" y="282" type="curve" smooth="yes"/>
			<point x="350" y="270"/>
			<point x="346" y="256"/>
			<point x="342" y="238" type="curve" smooth="yes"/>
			<point x="294" y="0" type="line"/>
			<point x="454" y="0" type="line"/>
			<point x="506" y="258" type="line" smooth="yes"/>
			<point x="511" y="282"/>
			<point x="514" y="308"/>
			<point x="514" y="330" type="curve" smooth="yes"/>
			<point x="514" y="416"/>
			<point x="478" y="460"/>
			<point x="396" y="460" type="curve" smooth="yes"/>
			<point x="336" y="460"/>
			<point x="284" y="430"/>
			<point x="244" y="394" type="curve"/>
			<point x="240" y="394" type="line"/>
			<point x="264" y="482" type="line"/>
			<point x="308" y="696" type="line"/>
			<point x="148" y="696" type="line"/>
		</contour>
		<contour>
			<point x="44" y="522" type="line"/>
			<point x="430" y="522" type="line"/>
			<point x="454" y="626" type="line"/>
			<point x="140" y="626" type="line"/>
			<point x="66" y="620" type="line"/>
		</contour>
	</outline>
</glyph>
<glyph name="longs" format="2">
	<unicode hex="017F"/>
	<advance width="344"/>
	<outline>
		<contour>
			<point x="34" y="0" type="line"/>
			<point x="194" y="0" type="line"/>
			<point x="298" y="520" type="line" smooth="yes"/>
			<point x="308" y="574"/>
			<point x="328" y="582"/>
			<point x="362" y="582" type="curve" smooth="yes"/>
			<point x="378" y="582"/>
			<point x="398" y="574"/>
			<point x="408" y="568" type="curve"/>
			<point x="458" y="680" type="line"/>
			<point x="424" y="698"/>
			<point x="384" y="708"/>
			<point x="344" y="708" type="curve" smooth="yes"/>
			<point x="220" y="708"/>
			<point x="160" y="622"/>
			<point x="138" y="514" type="curve" smooth="yes"/>
		</contour>
		<contour>
			<point x="46" y="376" type="line"/>
			<point x="192" y="376" type="line"/>
			<point x="216" y="500" type="line"/>
			<point x="136" y="500" type="line"/>
			<point x="70" y="494" type="line"/>
		</contour>
	</outline>
	<anchor name="aboveUC" x="330" y="722"/>
	<anchor name="belowLC" x="120" y="-22"/>
</glyph>
<glyph name="bstroke" format="2">
	<unicode hex="0180"/>
	<advance width="556"/>
	<outline>
		<contour>
			<point x="272" y="-12" type="curve" smooth="yes"/>
			<point x="402" y="-12"/>
			<point x="522" y="116"/>
			<point x="522" y="276" type="curve" smooth="yes"/>
			<point x="522" y="394"/>
			<point x="470" y="460"/>
			<point x="382" y="460" type="curve" smooth="yes"/>
			<point x="336" y="460"/>
			<point x="288" y="440"/>
			<point x="246" y="406" type="curve"/>
			<point x="244" y="406" type="line"/>
			<point x="270" y="498" type="line"/>
			<point x="308" y="696" type="line"/>
			<point x="148" y="696" type="line"/>
			<point x="8" y="0" type="line"/>
			<point x="140" y="0" type="line"/>
			<point x="162" y="50" type="line"/>
			<point x="164" y="50" type="line"/>
			<point x="182" y="12"/>
			<point x="226" y="-12"/>
		</contour>
		<contour>
			<point x="260" y="118" type="curve" smooth="yes"/>
			<point x="236" y="118"/>
			<point x="210" y="130"/>
			<point x="200" y="156" type="curve"/>
			<point x="226" y="274" type="line"/>
			<point x="250" y="318"/>
			<point x="284" y="330"/>
			<point x="310" y="330" type="curve" smooth="yes"/>
			<point x="338" y="330"/>
			<point x="356" y="308"/>
			<point x="356" y="256" type="curve" smooth="yes"/>
			<point x="356" y="176"/>
			<point x="310" y="118"/>
		</contour>
		<contour>
			<point x="44" y="522" type="line"/>
			<point x="430" y="522" type="line"/>
			<point x="454" y="626" type="line"/>
			<point x="140" y="626" type="line"/>
			<point x="66" y="620" type="line"/>
		</contour>
	</outline>
</glyph>
<glyph name="Bhook" format="2">
	<unicode hex="0181"/>
	<advance width="770"/>
	<outline>
		<contour>
			<point x="210" y="0" type="line"/>
			<point x="440" y="0" type="line" smooth="yes"/>
			<point x="592" y="0"/>
			<point x="726" y="60"/>
			<point x="726" y="216" type="curve" smooth="yes"/>
			<point x="726" y="276"/>
			<point x="690" y="316"/>
			<point x="616" y="334" type="curve"/>
			<point x="616" y="338" type="line"/>
			<point x="708" y="366"/>
			<point x="758" y="430"/>
			<point x="758" y="500" type="curve" smooth="yes"/>
			<point x="758" y="602"/>
			<point x="676" y="662"/>
			<point x="460" y="662" type="curve" smooth="yes"/>
			<point x="154" y="662"/>
			<point x="42" y="530"/>
			<point x="42" y="362" type="curve" smooth="yes"/>
			<point x="42" y="302"/>
			<point x="78" y="244"/>
			<point x="136" y="210" type="curve"/>
			<point x="222" y="320" type="line"/>
			<point x="198" y="336"/>
			<point x="184" y="356"/>
			<point x="184" y="386" type="curve" smooth="yes"/>
			<point x="184" y="454"/>
			<point x="236" y="532"/>
			<point x="374" y="532" type="curve" smooth="yes"/>
			<point x="496" y="532" type="line" smooth="yes"/>
			<point x="556" y="532"/>
			<point x="594" y="508"/>
			<point x="594" y="472" type="curve" smooth="yes"/>
			<point x="594" y="422"/>
			<point x="564" y="390"/>
			<point x="486" y="390" type="curve" smooth="yes"/>
			<point x="448" y="390" type="line"/>
			<point x="484" y="570" type="line"/>
			<point x="324" y="570" type="line"/>
		</contour>
		<contour>
			<point x="394" y="122" type="line"/>
			<point x="426" y="282" type="line"/>
			<point x="484" y="282" type="line" smooth="yes"/>
			<point x="544" y="282"/>
			<point x="572" y="258"/>
			<point x="572" y="210" type="curve" smooth="yes"/>
			<point x="572" y="156"/>
			<point x="532" y="122"/>
			<point x="452" y="122" type="curve" smooth="yes"/>
		</contour>
	</outline>
	<anchor name="aboveUC" x="530" y="672"/>
	<anchor name="belowLC" x="440" y="-22"/>
</glyph>
<glyph name="Eturned" format="2">
	<unicode hex="018E"/>
	<advance width="534"/>
	<outline>
		<contour>
			<point x="2" y="0" type="line"/>
			<point x="408" y="0" type="line"/>
			<point x="538" y="650" type="line"/>
			<point x="142" y="650" type="line"/>
			<point x="114" y="516" type="line"/>
			<point x="352" y="516" type="line"/>
			<point x="328" y="402" type="line"/>
			<point x="126" y="402" type="line"/>
			<point x="100" y="268" type="line"/>
			<point x="302" y="268" type="line"/>
			<point x="276" y="134" type="line"/>
			<point x="30" y="134" type="line"/>
		</contour>
	</outline>
	<anchor name="aboveUC" x="350" y="672"/>
	<anchor name="belowLC" x="220" y="-22"/>
	<anchor name="ogonekUC" x="220" y="0"/>
</glyph>
<glyph name="Eopen" format="2">
	<unicode hex="0190"/>
	<advance width="544"/>
	<outline>
		<contour>
			<point x="268" y="-12" type="curve" smooth="yes"/>
			<point x="378" y="-12"/>
			<point x="448" y="25"/>
			<point x="496" y="70" type="curve"/>
			<point x="430" y="170" type="line"/>
			<point x="394" y="142"/>
			<point x="348" y="124"/>
			<point x="294" y="124" type="curve" smooth="yes"/>
			<point x="238" y="124"/>
			<point x="206" y="150"/>
			<point x="206" y="194" type="curve" smooth="yes"/>
			<point x="206" y="240"/>
			<point x="243" y="278"/>
			<point x="314" y="278" type="curve" smooth="yes"/>
			<point x="400" y="278" type="line"/>
			<point x="422" y="392" type="line"/>
			<point x="355" y="392" type="line" smooth="yes"/>
			<point x="296" y="392"/>
			<point x="276" y="417"/>
			<point x="276" y="450" type="curve" smooth="yes"/>
			<point x="276" y="497"/>
			<point x="322" y="526"/>
			<point x="374" y="526" type="curve" smooth="yes"/>
			<point x="418" y="526"/>
			<point x="454" y="512"/>
			<point x="486" y="478" type="curve"/>
			<point x="570" y="568" type="line"/>
			<point x="530" y="628"/>
			<point x="452" y="662"/>
			<point x="374" y="662" type="curve" smooth="yes"/>
			<point x="220" y="662"/>
			<point x="120" y="570"/>
			<point x="120" y="465" type="curve" smooth="yes"/>
			<point x="120" y="412"/>
			<point x="146" y="368"/>
			<point x="196" y="342" type="curve"/>
			<point x="196" y="338" type="line"/>
			<point x="102" y="316"/>
			<point x="32" y="242"/>
			<point x="32" y="155" type="curve" smooth="yes"/>
			<point x="32" y="54"/>
			<point x="120" y="-12"/>
		</contour>
	</outline>
	<anchor name="aboveUC" x="380" y="672"/>
	<anchor name="baseLC" x="260" y="0"/>
	<anchor name="belowLC" x="260" y="-22"/>
	<anchor name="ogonekUC" x="260" y="0"/>
</glyph>
<glyph name="Iotalatin" format="2">
	<unicode hex="0196"/>
	<advance width="312"/>
	<outline>
		<contour>
			<point x="176" y="-12" type="curve" smooth="yes"/>
			<point x="206" y="-12"/>
			<point x="236" y="-4"/>
			<point x="258" y="4" type="curve"/>
			<point x="252" y="128" type="line"/>
			<point x="244" y="126"/>
			<point x="240" y="126"/>
			<point x="236" y="126" type="curve" smooth="yes"/>
			<point x="226" y="126"/>
			<point x="218" y="132"/>
			<point x="218" y="146" type="curve" smooth="yes"/>
			<point x="218" y="154"/>
			<point x="218" y="158"/>
			<point x="220" y="170" type="curve" smooth="yes"/>
			<point x="316" y="650" type="line"/>
			<point x="156" y="650" type="line"/>
			<point x="60" y="166" type="line" smooth="yes"/>
			<point x="54" y="138"/>
			<point x="52" y="118"/>
			<point x="52" y="98" type="curve" smooth="yes"/>
			<point x="52" y="30"/>
			<point x="84" y="-12"/>
		</contour>
	</outline>
	<anchor name="aboveUC" x="240" y="672"/>
	<anchor name="belowLC" x="140" y="-22"/>
</glyph>
<glyph name="Uhorn" format="2">
	<unicode hex="01AF"/>
	<advance width="680"/>
	<outline>
		<contour>
			<point x="642" y="592" type="line"/>
			<point x="748" y="610"/>
			<point x="798" y="655"/>
			<point x="798" y="730" type="curve" smooth="yes"/>
			<point x="798" y="756"/>
			<point x="792" y="781"/>
			<point x="780" y="808" type="curve"/>
			<point x="662" y="772" type="line"/>
			<point x="669" y="755"/>
			<point x="674" y="738"/>
			<point x="674" y="722" type="curve" smooth="yes"/>
			<point x="674" y="681"/>
			<point x="647" y="655"/>
			<point x="591" y="649" type="curve"/>
		</contour>
		<component base="U"/>
	</outline>
	<anchor name="aboveUC" x="410" y="672"/>
	<anchor name="belowLC" x="290" y="-22"/>
</glyph>
<glyph name="Wynn" format="2">
	<unicode hex="01F7"/>
	<advance width="596"/>
	<outline>
		<contour>
			<point x="-8" y="-176" type="line"/>
			<point x="150" y="-176" type="line"/>
			<point x="186" y="-2" type="line"/>
			<point x="484" y="114"/>
			<point x="600" y="326"/>
			<point x="600" y="503" type="curve" smooth="yes"/>
			<point x="600" y="614"/>
			<point x="554" y="662"/>
			<point x="468" y="662" type="curve" smooth="yes"/>
			<point x="408" y="662"/>
			<point x="354" y="636"/>
			<point x="296" y="584" type="curve"/>
			<point x="306" y="650" type="line"/>
			<point x="156" y="650" type="line"/>
		</contour>
		<contour>
			<point x="214" y="146" type="curve"/>
			<point x="274" y="438" type="line"/>
			<point x="320" y="498"/>
			<point x="360" y="524"/>
			<point x="398" y="524" type="curve" smooth="yes"/>
			<point x="426" y="524"/>
			<point x="442" y="502"/>
			<point x="442" y="450" type="curve" smooth="yes"/>
			<point x="442" y="358"/>
			<point x="370" y="226"/>
		</contour>
	</outline>
	<anchor name="aboveUC" x="410" y="672"/>
	<anchor name="belowLC" x="80" y="-182"/>
</glyph>
<glyph name="Yogh" format="2">
	<unicode hex="021C"/>
	<advance width="498"/>
	<outline>
		<contour>
			<point x="20" y="-188" type="line"/>
			<point x="322" y="-92"/>
			<point x="452" y="8"/>
			<point x="452" y="184" type="curve" smooth="yes"/>
			<point x="452" y="252"/>
			<point x="412" y="300"/>
			<point x="340" y="304" type="curve"/>
			<point x="434" y="362"/>
			<point x="482" y="450"/>
			<point x="482" y="532" type="curve" smooth="yes"/>
			<point x="482" y="602"/>
			<point x="432" y="662"/>
			<point x="338" y="662" type="curve" smooth="yes"/>
			<point x="246" y="662"/>
			<point x="180" y="636"/>
			<point x="80" y="558" type="curve"/>
			<point x="144" y="468" type="line"/>
			<point x="201" y="509"/>
			<point x="236" y="524"/>
			<point x="278" y="524" type="curve" smooth="yes"/>
			<point x="304" y="524"/>
			<point x="322" y="497"/>
			<point x="322" y="470" type="curve" smooth="yes"/>
			<point x="322" y="414"/>
			<point x="290" y="373"/>
			<point x="100" y="276" type="curve"/>
			<point x="144" y="182" type="line"/>
			<point x="194" y="206"/>
			<point x="214" y="214"/>
			<point x="244" y="214" type="curve" smooth="yes"/>
			<point x="272" y="214"/>
			<point x="292" y="194"/>
			<point x="292" y="162" type="curve" smooth="yes"/>
			<point x="292" y="94"/>
			<point x="228" y="16"/>
			<point x="-18" y="-76" type="curve"/>
		</contour>
	</outline>
	<anchor name="aboveUC" x="330" y="672"/>
	<anchor name="belowLC" x="210" y="-182"/>
</glyph>
<glyph name="Cstroke" format="2">
	<unicode hex="023B"/>
	<advance width="574"/>
	<outline>
		<contour>
			<point x="206" y="-66" type="line"/>
			<point x="520" y="706" type="line"/>
			<point x="480" y="716" type="line"/>
			<point x="166" y="-56" type="line"/>
		</contour>
		<component base="C"/>
	</outline>
	<anchor name="aboveUC" x="410" y="672"/>
	<anchor name="belowLC" x="270" y="-22"/>
</glyph>
<glyph name="Lbar" format="2">
	<unicode hex="023D"/>
	<advance width="534"/>
	<outline>
		<contour>
			<point x="36" y="316" type="line"/>
			<point x="408" y="316" type="line"/>
			<point x="426" y="412" type="line"/>
			<point x="130" y="412" type="line"/>
			<point x="54" y="406" type="line"/>
		</contour>
		<component base="L" xOffset="20"/>
	</outline>
	<anchor name="aboveUC" x="260" y="672"/>
	<anchor name="belowLC" x="250" y="-22"/>
</glyph>
<glyph name="Bstroke" format="2">
	<unicode hex="0243"/>
	<advance width="620"/>
	<outline>
		<contour>
			<point x="44" y="0" type="line"/>
			<point x="290" y="0" type="line" smooth="yes"/>
			<point x="442" y="0"/>
			<point x="576" y="63"/>
			<point x="576" y="226" type="curve" smooth="yes"/>
			<point x="576" y="291"/>
			<point x="540" y="334"/>
			<point x="466" y="354" type="curve"/>
			<point x="466" y="358" type="line"/>
			<point x="558" y="384"/>
			<point x="608" y="444"/>
			<point x="608" y="510" type="curve" smooth="yes"/>
			<point x="608" y="609"/>
			<point x="514" y="650"/>
			<point x="382" y="650" type="curve" smooth="yes"/>
			<point x="174" y="650" type="line"/>
		</contour>
		<contour>
			<point x="-10" y="166" type="line"/>
			<point x="354" y="166" type="line"/>
			<point x="372" y="262" type="line"/>
			<point x="100" y="262" type="line"/>
			<point x="8" y="256" type="line"/>
		</contour>
		<contour>
			<point x="226" y="112" type="line"/>
			<point x="264" y="306" type="line"/>
			<point x="338" y="306" type="line" smooth="yes"/>
			<point x="394" y="306"/>
			<point x="422" y="279"/>
			<point x="422" y="230" type="curve" smooth="yes"/>
			<point x="422" y="158"/>
			<point x="376" y="112"/>
			<point x="300" y="112" type="curve" smooth="yes"/>
		</contour>
		<contour>
			<point x="286" y="406" type="line"/>
			<point x="312" y="536" type="line"/>
			<point x="356" y="536" type="line" smooth="yes"/>
			<point x="414" y="536"/>
			<point x="444" y="518"/>
			<point x="444" y="482" type="curve" smooth="yes"/>
			<point x="444" y="434"/>
			<point x="410" y="406"/>
			<point x="336" y="406" type="curve" smooth="yes"/>
		</contour>
	</outline>
</glyph>
<glyph name="bhook" format="2">
	<unicode hex="0253"/>
	<advance width="560"/>
	<outline>
		<contour>
			<point x="264" y="-12" type="curve" smooth="yes"/>
			<point x="402" y="-12"/>
			<point x="526" y="134"/>
			<point x="526" y="318" type="curve" smooth="yes"/>
			<point x="526" y="430"/>
			<point x="474" y="492"/>
			<point x="386" y="492" type="curve" smooth="yes"/>
			<point x="340" y="492"/>
			<point x="292" y="472"/>
			<point x="250" y="438" type="curve"/>
			<point x="248" y="438" type="line"/>
			<point x="274" y="530" type="line"/>
			<point x="274" y="530" type="line"/>
			<point x="286" y="570"/>
			<point x="306" y="582"/>
			<point x="344" y="582" type="curve" smooth="yes"/>
			<point x="366" y="582"/>
			<point x="386" y="578"/>
			<point x="404" y="570" type="curve"/>
			<point x="454" y="680" type="line"/>
			<point x="416" y="700"/>
			<point x="374" y="708"/>
			<point x="328" y="708" type="curve" smooth="yes"/>
			<point x="188" y="708"/>
			<point x="134" y="622"/>
			<point x="112" y="514" type="curve" smooth="yes"/>
			<point x="8" y="0" type="line"/>
			<point x="140" y="0" type="line"/>
			<point x="162" y="50" type="line"/>
			<point x="164" y="50" type="line"/>
			<point x="182" y="12"/>
			<point x="222" y="-12"/>
		</contour>
		<contour>
			<point x="252" y="118" type="curve" smooth="yes"/>
			<point x="232" y="118"/>
			<point x="210" y="130"/>
			<point x="200" y="156" type="curve"/>
			<point x="230" y="306" type="line"/>
			<point x="254" y="350"/>
			<point x="288" y="362"/>
			<point x="314" y="362" type="curve" smooth="yes"/>
			<point x="342" y="362"/>
			<point x="360" y="343"/>
			<point x="360" y="298" type="curve" smooth="yes"/>
			<point x="360" y="192"/>
			<point x="310" y="118"/>
		</contour>
	</outline>
	<anchor name="aboveUC" x="400" y="722"/>
	<anchor name="belowLC" x="240" y="-22"/>
</glyph>
<glyph name="gammalatin" format="2">
	<unicode hex="0263"/>
	<advance width="518"/>
	<outline>
		<contour>
			<point x="160" y="-206" type="curve" smooth="yes"/>
			<point x="276" y="-206"/>
			<point x="354" y="-118"/>
			<point x="354" y="-14" type="curve" smooth="yes"/>
			<point x="354" y="22"/>
			<point x="349" y="57"/>
			<point x="320" y="132" type="curve"/>
			<point x="320" y="72" type="line"/>
			<point x="554" y="500" type="line"/>
			<point x="398" y="500" type="line"/>
			<point x="314" y="312" type="line"/>
			<point x="289" y="260"/>
			<point x="272" y="223"/>
			<point x="246" y="165" type="curve"/>
			<point x="242" y="165" type="line"/>
			<point x="239" y="223"/>
			<point x="236" y="259"/>
			<point x="232" y="312" type="curve"/>
			<point x="220" y="500" type="line"/>
			<point x="60" y="500" type="line"/>
			<point x="130" y="72" type="line"/>
			<point x="142" y="132" type="line"/>
			<point x="62" y="46"/>
			<point x="24" y="-12"/>
			<point x="24" y="-82" type="curve" smooth="yes"/>
			<point x="24" y="-158"/>
			<point x="75" y="-206"/>
		</contour>
		<contour>
			<point x="181" y="-100" type="curve" smooth="yes"/>
			<point x="164" y="-100"/>
			<point x="152" y="-89"/>
			<point x="152" y="-69" type="curve" smooth="yes"/>
			<point x="152" y="-44"/>
			<point x="174" y="-6"/>
			<point x="212" y="34" type="curve"/>
			<point x="216" y="34" type="line"/>
			<point x="223" y="5"/>
			<point x="226" y="-18"/>
			<point x="226" y="-37" type="curve" smooth="yes"/>
			<point x="226" y="-81"/>
			<point x="206" y="-100"/>
		</contour>
	</outline>
	<anchor name="aboveLC" x="300" y="522"/>
	<anchor name="belowLC" x="170" y="-182"/>
</glyph>
<glyph name="henghook" format="2">
	<unicode hex="0267"/>
	<advance width="556"/>
	<outline>
		<contour>
			<point x="254" y="-188" type="curve" smooth="yes"/>
			<point x="378" y="-188"/>
			<point x="432" y="-106"/>
			<point x="454" y="2" type="curve" smooth="yes"/>
			<point x="512" y="290" type="line" smooth="yes"/>
			<point x="517" y="314"/>
			<point x="520" y="340"/>
			<point x="520" y="362" type="curve" smooth="yes"/>
			<point x="520" y="448"/>
			<point x="484" y="492"/>
			<point x="402" y="492" type="curve" smooth="yes"/>
			<point x="342" y="492"/>
			<point x="290" y="462"/>
			<point x="250" y="426" type="curve"/>
			<point x="246" y="426" type="line"/>
			<point x="274" y="530" type="line"/>
			<point x="274" y="530" type="line"/>
			<point x="286" y="570"/>
			<point x="306" y="582"/>
			<point x="344" y="582" type="curve" smooth="yes"/>
			<point x="366" y="582"/>
			<point x="386" y="578"/>
			<point x="404" y="570" type="curve"/>
			<point x="454" y="680" type="line"/>
			<point x="416" y="700"/>
			<point x="374" y="708"/>
			<point x="328" y="708" type="curve" smooth="yes"/>
			<point x="188" y="708"/>
			<point x="134" y="622"/>
			<point x="112" y="514" type="curve"/>
			<point x="8" y="0" type="line"/>
			<point x="168" y="0" type="line"/>
			<point x="226" y="300" type="line"/>
			<point x="262" y="338"/>
			<point x="286" y="356"/>
			<point x="314" y="356" type="curve" smooth="yes"/>
			<point x="340" y="356"/>
			<point x="356" y="342"/>
			<point x="356" y="314" type="curve" smooth="yes"/>
			<point x="356" y="302"/>
			<point x="352" y="288"/>
			<point x="348" y="270" type="curve" smooth="yes"/>
			<point x="296" y="10" type="line" smooth="yes"/>
			<point x="286" y="-42"/>
			<point x="272" y="-62"/>
			<point x="240" y="-62" type="curve" smooth="yes"/>
			<point x="226" y="-62"/>
			<point x="212" y="-58"/>
			<point x="198" y="-50" type="curve"/>
			<point x="150" y="-164" type="line"/>
			<point x="186" y="-182"/>
			<point x="218" y="-188"/>
		</contour>
	</outline>
	<anchor name="aboveUC" x="400" y="722"/>
	<anchor name="belowLC" x="190" y="-182"/>
</glyph>
<glyph name="ismall" format="2">
	<unicode hex="026A"/>
	<advance width="399"/>
	<outline>
		<contour>
			<point x="12" y="0" type="line"/>
			<point x="306" y="0" type="line"/>
			<point x="330" y="124" type="line"/>
			<point x="264" y="124" type="line"/>
			<point x="314" y="376" type="line"/>
			<point x="380" y="376" type="line"/>
			<point x="404" y="500" type="line"/>
			<point x="112" y="500" type="line"/>
			<point x="88" y="376" type="line"/>
			<point x="154" y="376" type="line"/>
			<point x="104" y="124" type="line"/>
			<point x="38" y="124" type="line"/>
		</contour>
	</outline>
	<anchor name="aboveLC" x="260" y="522"/>
	<anchor name="belowLC" x="160" y="-22"/>
	<anchor name="ogonekLC" x="160" y="0"/>
</glyph>
<glyph name="lezh" format="2">
	<unicode hex="026E"/>
	<advance width="646"/>
	<outline>
		<contour>
			<point x="8" y="0" type="line"/>
			<point x="168" y="0" type="line"/>
			<point x="308" y="696" type="line"/>
			<point x="148" y="696" type="line"/>
		</contour>
		<contour>
			<point x="314" y="-186" type="curve" smooth="yes"/>
			<point x="468" y="-186"/>
			<point x="580" y="-68"/>
			<point x="580" y="62" type="curve" smooth="yes"/>
			<point x="580" y="148"/>
			<point x="530" y="210"/>
			<point x="458" y="226" type="curve"/>
			<point x="624" y="408" type="line"/>
			<point x="642" y="500" type="line"/>
			<point x="246" y="500" type="line"/>
			<point x="222" y="376" type="line"/>
			<point x="432" y="376" type="line"/>
			<point x="258" y="190" type="line"/>
			<point x="298" y="110" type="line"/>
			<point x="319" y="117"/>
			<point x="331" y="122"/>
			<point x="350" y="122" type="curve" smooth="yes"/>
			<point x="386" y="122"/>
			<point x="418" y="100"/>
			<point x="418" y="50" type="curve" smooth="yes"/>
			<point x="418" y="-18"/>
			<point x="373" y="-60"/>
			<point x="320" y="-60" type="curve" smooth="yes"/>
			<point x="270" y="-60"/>
			<point x="238" y="-40"/>
			<point x="210" y="-10" type="curve"/>
			<point x="128" y="-102" type="line"/>
			<point x="164" y="-148"/>
			<point x="226" y="-186"/>
		</contour>
	</outline>
	<anchor name="aboveUC" x="240" y="722"/>
	<anchor name="belowLC" x="320" y="-182"/>
</glyph>
<glyph name="nhookleft" format="2">
	<unicode hex="0272"/>
	<advance width="562"/>
	<outline>
		<contour>
			<point x="-32" y="-188" type="curve" smooth="yes"/>
			<point x="92" y="-188"/>
			<point x="148" y="-102"/>
			<point x="168" y="2" type="curve" smooth="yes"/>
			<point x="230" y="320" type="line"/>
			<point x="266" y="358"/>
			<point x="290" y="376"/>
			<point x="318" y="376" type="curve" smooth="yes"/>
			<point x="344" y="376"/>
			<point x="360" y="362"/>
			<point x="360" y="334" type="curve" smooth="yes"/>
			<point x="360" y="322"/>
			<point x="356" y="308"/>
			<point x="352" y="290" type="curve" smooth="yes"/>
			<point x="294" y="0" type="line"/>
			<point x="454" y="0" type="line"/>
			<point x="516" y="310" type="line" smooth="yes"/>
			<point x="521" y="334"/>
			<point x="524" y="360"/>
			<point x="524" y="382" type="curve" smooth="yes"/>
			<point x="524" y="468"/>
			<point x="488" y="512"/>
			<point x="406" y="512" type="curve" smooth="yes"/>
			<point x="342" y="512"/>
			<point x="288" y="476"/>
			<point x="242" y="436" type="curve"/>
			<point x="238" y="436" type="line"/>
			<point x="238" y="500" type="line"/>
			<point x="108" y="500" type="line"/>
			<point x="10" y="10" type="line" smooth="yes"/>
			<point x="0" y="-42"/>
			<point x="-14" y="-62"/>
			<point x="-46" y="-62" type="curve" smooth="yes"/>
			<point x="-54" y="-62"/>
			<point x="-62" y="-60"/>
			<point x="-70" y="-56" type="curve"/>
			<point x="-118" y="-170" type="line"/>
			<point x="-88" y="-184"/>
			<point x="-62" y="-188"/>
		</contour>
	</outline>
	<anchor name="aboveLC" x="360" y="522"/>
	<anchor name="belowLC" x="210" y="-182"/>
</glyph>
<glyph name="philatin" format="2">
	<unicode hex="0278"/>
	<advance width="724"/>
	<outline>
		<contour>
			<point x="284" y="-8" type="curve"/>
			<point x="288" y="110" type="line"/>
			<point x="226" y="112"/>
			<point x="188" y="150"/>
			<point x="188" y="226" type="curve" smooth="yes"/>
			<point x="188" y="310"/>
			<point x="252" y="382"/>
			<point x="324" y="388" type="curve"/>
			<point x="356" y="506" type="line"/>
			<point x="188" y="502"/>
			<point x="26" y="402"/>
			<point x="26" y="224" type="curve" smooth="yes"/>
			<point x="26" y="64"/>
			<point x="146" y="-6"/>
		</contour>
		<contour>
			<point x="364" y="-8" type="line"/>
			<point x="532" y="-4"/>
			<point x="694" y="96"/>
			<point x="694" y="274" type="curve" smooth="yes"/>
			<point x="694" y="434"/>
			<point x="574" y="504"/>
			<point x="436" y="506" type="curve"/>
			<point x="432" y="388" type="line"/>
			<point x="494" y="386"/>
			<point x="532" y="348"/>
			<point x="532" y="272" type="curve" smooth="yes"/>
			<point x="532" y="188"/>
			<point x="468" y="116"/>
			<point x="396" y="110" type="curve"/>
		</contour>
		<contour>
			<point x="203" y="-176" type="line"/>
			<point x="347" y="-176" type="line"/>
			<point x="523" y="696" type="line"/>
			<point x="379" y="696" type="line"/>
		</contour>
	</outline>
	<anchor name="aboveUC" x="450" y="722"/>
	<anchor name="belowLC" x="280" y="-182"/>
</glyph>
<glyph name="rturned" format="2">
	<unicode hex="0279"/>
	<advance width="400"/>
	<outline>
		<contour>
			<point x="10" y="-12" type="curve" smooth="yes"/>
			<point x="66" y="-12"/>
			<point x="122" y="34"/>
			<point x="160" y="98" type="curve"/>
			<point x="164" y="98" type="line"/>
			<point x="160" y="0" type="line"/>
			<point x="290" y="0" type="line"/>
			<point x="390" y="500" type="line"/>
			<point x="230" y="500" type="line"/>
			<point x="176" y="220" type="line"/>
			<point x="138" y="154"/>
			<point x="102" y="128"/>
			<point x="60" y="128" type="curve" smooth="yes"/>
			<point x="44" y="128"/>
			<point x="22" y="128"/>
			<point x="8" y="136" type="curve"/>
			<point x="-44" y="-2" type="line"/>
			<point x="-34" y="-8"/>
			<point x="-18" y="-12"/>
		</contour>
	</outline>
	<anchor name="aboveLC" x="310" y="522"/>
	<anchor name="belowLC" x="120" y="-22"/>
	<anchor name="center" x="260" y="290"/>
</glyph>
<glyph name="rtail" format="2">
	<unicode hex="027D"/>
	<advance width="400"/>
	<outline>
		<contour>
			<point x="124" y="-188" type="curve" smooth="yes"/>
			<point x="169" y="-188"/>
			<point x="212" y="-176"/>
			<point x="236" y="-168" type="curve"/>
			<point x="212" y="-54" type="line"/>
			<point x="202" y="-58"/>
			<point x="194" y="-60"/>
			<point x="184" y="-60" type="curve" smooth="yes"/>
			<point x="170" y="-60"/>
			<point x="162" y="-54"/>
			<point x="162" y="-35" type="curve" smooth="yes"/>
			<point x="162" y="-30"/>
			<point x="162" y="-26"/>
			<point x="164" y="-16" type="curve" smooth="yes"/>
			<point x="222" y="280" type="line"/>
			<point x="260" y="346"/>
			<point x="296" y="372"/>
			<point x="338" y="372" type="curve" smooth="yes"/>
			<point x="354" y="372"/>
			<point x="376" y="372"/>
			<point x="390" y="364" type="curve"/>
			<point x="442" y="502" type="line"/>
			<point x="432" y="508"/>
			<point x="416" y="512"/>
			<point x="388" y="512" type="curve" smooth="yes"/>
			<point x="332" y="512"/>
			<point x="276" y="466"/>
			<point x="238" y="402" type="curve"/>
			<point x="234" y="402" type="line"/>
			<point x="238" y="500" type="line"/>
			<point x="108" y="500" type="line"/>
			<point x="6" y="-10" type="line" smooth="yes"/>
			<point x="0" y="-38"/>
			<point x="-2" y="-58"/>
			<point x="-2" y="-82" type="curve" smooth="yes"/>
			<point x="-2" y="-146"/>
			<point x="34" y="-188"/>
		</contour>
	</outline>
	<anchor name="aboveLC" x="290" y="522"/>
	<anchor name="belowLC" x="130" y="-182"/>
</glyph>
<glyph name="rsmallinverted" format="2">
	<unicode hex="0281"/>
	<advance width="524"/>
	<outline>
		<contour>
			<point x="8" y="0" type="line"/>
			<point x="214" y="0" type="line" smooth="yes"/>
			<point x="355" y="0"/>
			<point x="460" y="76"/>
			<point x="460" y="202" type="curve" smooth="yes"/>
			<point x="460" y="306"/>
			<point x="384" y="340"/>
			<point x="286" y="340" type="curve" smooth="yes"/>
			<point x="236" y="340" type="line"/>
			<point x="268" y="500" type="line"/>
			<point x="108" y="500" type="line"/>
		</contour>
		<contour>
			<point x="190" y="122" type="line"/>
			<point x="214" y="242" type="line"/>
			<point x="242" y="242" type="line" smooth="yes"/>
			<point x="278" y="242"/>
			<point x="296" y="226"/>
			<point x="296" y="194" type="curve" smooth="yes"/>
			<point x="296" y="155"/>
			<point x="265" y="122"/>
			<point x="218" y="122" type="curve" smooth="yes"/>
		</contour>
		<contour>
			<point x="368" y="258" type="line"/>
			<point x="562" y="500" type="line"/>
			<point x="388" y="500" type="line"/>
			<point x="250" y="304" type="line"/>
		</contour>
	</outline>
	<anchor name="aboveLC" x="330" y="522"/>
	<anchor name="belowLC" x="220" y="-22"/>
</glyph>
<glyph name="tretroflex" format="2">
	<unicode hex="0288"/>
	<advance width="384"/>
	<outline>
		<contour>
			<point x="172" y="-188" type="curve" smooth="yes"/>
			<point x="228" y="-188"/>
			<point x="270" y="-176"/>
			<point x="298" y="-166" type="curve"/>
			<point x="270" y="-54" type="line"/>
			<point x="258" y="-60"/>
			<point x="246" y="-64"/>
			<point x="234" y="-64" type="curve" smooth="yes"/>
			<point x="202" y="-64"/>
			<point x="186" y="-50"/>
			<point x="186" y="-20" type="curve" smooth="yes"/>
			<point x="186" y="-10"/>
			<point x="186" y="0"/>
			<point x="188" y="12" type="curve" smooth="yes"/>
			<point x="264" y="376" type="line"/>
			<point x="376" y="376" type="line"/>
			<point x="400" y="500" type="line"/>
			<point x="292" y="500" type="line"/>
			<point x="320" y="650" type="line"/>
			<point x="186" y="650" type="line"/>
			<point x="138" y="500" type="line"/>
			<point x="66" y="494" type="line"/>
			<point x="42" y="376" type="line"/>
			<point x="106" y="376" type="line"/>
			<point x="30" y="18" type="line" smooth="yes"/>
			<point x="26" y="-4"/>
			<point x="22" y="-26"/>
			<point x="22" y="-48" type="curve" smooth="yes"/>
			<point x="22" y="-130"/>
			<point x="66" y="-188"/>
		</contour>
	</outline>
	<anchor name="aboveLC" x="260" y="662"/>
	<anchor name="belowLC" x="150" y="-182"/>
</glyph>
<glyph name="upsilonlatin" format="2">
	<unicode hex="028A"/>
	<advance width="544"/>
	<outline>
		<contour>
			<point x="222" y="-12" type="curve" smooth="yes"/>
			<point x="404" y="-12"/>
			<point x="504" y="132"/>
			<point x="504" y="246" type="curve" smooth="yes"/>
			<point x="504" y="300"/>
			<point x="491" y="345"/>
			<point x="470" y="373" type="curve"/>
			<point x="470" y="376" type="line"/>
			<point x="544" y="376" type="line"/>
			<point x="568" y="500" type="line"/>
			<point x="352" y="500" type="line"/>
			<point x="332" y="399" type="line"/>
			<point x="345" y="371"/>
			<point x="350" y="342"/>
			<point x="350" y="310" type="curve" smooth="yes"/>
			<point x="350" y="198"/>
			<point x="314" y="116"/>
			<point x="250" y="116" type="curve" smooth="yes"/>
			<point x="207" y="116"/>
			<point x="186" y="147"/>
			<point x="186" y="196" type="curve" smooth="yes"/>
			<point x="186" y="260"/>
			<point x="220" y="339"/>
			<point x="273" y="399" type="curve"/>
			<point x="292" y="500" type="line"/>
			<point x="76" y="500" type="line"/>
			<point x="52" y="376" type="line"/>
			<point x="124" y="376" type="line"/>
			<point x="124" y="373" type="line"/>
			<point x="76" y="331"/>
			<point x="24" y="248"/>
			<point x="24" y="162" type="curve" smooth="yes"/>
			<point x="24" y="71"/>
			<point x="90" y="-12"/>
		</contour>
	</outline>
	<anchor name="aboveLC" x="330" y="522"/>
	<anchor name="belowLC" x="220" y="-22"/>
	<anchor name="ogonekLC" x="220" y="0"/>
</glyph>
<glyph name="yturned" format="2">
	<unicode hex="028E"/>
	<advance width="518"/>
	<outline>
		<contour>
			<point x="-32" y="0" type="line"/>
			<point x="122" y="0" type="line"/>
			<point x="212" y="205" type="line" smooth="yes"/>
			<point x="232" y="250"/>
			<point x="256" y="310"/>
			<point x="276" y="356" type="curve"/>
			<point x="280" y="356" type="line"/>
			<point x="280" y="308"/>
			<point x="282" y="248"/>
			<point x="286" y="205" type="curve" smooth="yes"/>
			<point x="304" y="0" type="line"/>
			<point x="463" y="0" type="line"/>
			<point x="375" y="485" type="line"/>
			<point x="396" y="524" type="line" smooth="yes"/>
			<point x="420" y="568"/>
			<point x="447" y="582"/>
			<point x="477" y="582" type="curve" smooth="yes"/>
			<point x="491" y="582"/>
			<point x="505" y="578"/>
			<point x="515" y="572" type="curve"/>
			<point x="563" y="686" type="line"/>
			<point x="543" y="698"/>
			<point x="507" y="708"/>
			<point x="487" y="708" type="curve" smooth="yes"/>
			<point x="380" y="708"/>
			<point x="312" y="658"/>
			<point x="240" y="520" type="curve" smooth="yes"/>
		</contour>
	</outline>
	<anchor name="aboveUC" x="410" y="722"/>
	<anchor name="belowLC" x="230" y="-22"/>
</glyph>
<glyph name="glottalstopreversed" format="2">
	<unicode hex="0295"/>
	<advance width="442"/>
	<outline>
		<contour>
			<point x="112" y="0" type="line"/>
			<point x="272" y="0" type="line"/>
			<point x="334" y="314" type="line"/>
			<point x="254" y="378"/>
			<point x="224" y="420"/>
			<point x="224" y="468" type="curve" smooth="yes"/>
			<point x="224" y="534"/>
			<point x="262" y="580"/>
			<point x="326" y="580" type="curve" smooth="yes"/>
			<point x="370" y="580"/>
			<point x="412" y="558"/>
			<point x="438" y="528" type="curve"/>
			<point x="522" y="618" type="line"/>
			<point x="482" y="670"/>
			<point x="410" y="708"/>
			<point x="332" y="708" type="curve" smooth="yes"/>
			<point x="176" y="708"/>
			<point x="60" y="604"/>
			<point x="60" y="448" type="curve" smooth="yes"/>
			<point x="60" y="368"/>
			<point x="102" y="314"/>
			<point x="162" y="252" type="curve"/>
		</contour>
	</outline>
	<anchor name="aboveUC" x="340" y="722"/>
	<anchor name="belowLC" x="190" y="-22"/>
</glyph>
<glyph name="glottalstopstrokereversed" format="2">
	<unicode hex="02A2"/>
	<advance width="442"/>
	<outline>
		<contour>
			<point x="26" y="116" type="line"/>
			<point x="396" y="116" type="line"/>
			<point x="414" y="212" type="line"/>
			<point x="152" y="212" type="line"/>
			<point x="44" y="206" type="line"/>
		</contour>
		<component base="glottalstopreversed"/>
	</outline>
	<anchor name="aboveUC" x="340" y="722"/>
	<anchor name="belowLC" x="190" y="-22"/>
</glyph>
<glyph name="tesh" format="2">
	<unicode hex="02A7"/>
	<advance width="580"/>
	<outline>
		<contour>
			<point x="210" y="-12" type="curve" smooth="yes"/>
			<point x="250" y="-12"/>
			<point x="282" y="-2"/>
			<point x="304" y="6" type="curve"/>
			<point x="280" y="116" type="line"/>
			<point x="272" y="114"/>
			<point x="262" y="112"/>
			<point x="252" y="112" type="curve" smooth="yes"/>
			<point x="233" y="112"/>
			<point x="224" y="126"/>
			<point x="224" y="156" type="curve" smooth="yes"/>
			<point x="224" y="166"/>
			<point x="224" y="176"/>
			<point x="226" y="188" type="curve" smooth="yes"/>
			<point x="264" y="376" type="line"/>
			<point x="416" y="376" type="line"/>
			<point x="440" y="500" type="line"/>
			<point x="292" y="500" type="line"/>
			<point x="320" y="648" type="line"/>
			<point x="186" y="648" type="line"/>
			<point x="138" y="500" type="line"/>
			<point x="66" y="494" type="line"/>
			<point x="42" y="376" type="line"/>
			<point x="106" y="376" type="line"/>
			<point x="68" y="194" type="line" smooth="yes"/>
			<point x="64" y="172"/>
			<point x="60" y="150"/>
			<point x="60" y="128" type="curve" smooth="yes"/>
			<point x="60" y="46"/>
			<point x="104" y="-12"/>
		</contour>
		<component base="esh" xOffset="302"/>
	</outline>
	<anchor name="aboveUC" x="420" y="722"/>
	<anchor name="belowLC" x="210" y="-182"/>
</glyph>
<glyph name="h.sups" format="2">
	<unicode hex="02B0"/>
	<advance width="376"/>
	<outline>
		<contour>
			<point x="64" y="368" type="line"/>
			<point x="176" y="368" type="line"/>
			<point x="217" y="578" type="line"/>
			<point x="239" y="602"/>
			<point x="255" y="614"/>
			<point x="273" y="614" type="curve" smooth="yes"/>
			<point x="289" y="614"/>
			<point x="299" y="605"/>
			<point x="299" y="587" type="curve" smooth="yes"/>
			<point x="299" y="580"/>
			<point x="297" y="572"/>
			<point x="294" y="559" type="curve" smooth="yes"/>
			<point x="256" y="368" type="line"/>
			<point x="368" y="368" type="line"/>
			<point x="409" y="573" type="line" smooth="yes"/>
			<point x="412" y="587"/>
			<point x="415" y="604"/>
			<point x="415" y="619" type="curve" smooth="yes"/>
			<point x="415" y="676"/>
			<point x="389" y="708"/>
			<point x="334" y="708" type="curve" smooth="yes"/>
			<point x="294" y="708"/>
			<point x="259" y="687"/>
			<point x="233" y="664" type="curve"/>
			<point x="230" y="664" type="line"/>
			<point x="249" y="732" type="line"/>
			<point x="268" y="828" type="line"/>
			<point x="156" y="828" type="line"/>
		</contour>
	</outline>
</glyph>
<glyph name="commaturnedmod" format="2">
	<unicode hex="02BB"/>
	<advance width="310"/>
	<outline>
		<contour>
			<point x="184" y="360" type="curve" smooth="yes"/>
			<point x="259" y="360"/>
			<point x="304" y="408"/>
			<point x="304" y="464" type="curve" smooth="yes"/>
			<point x="304" y="510"/>
			<point x="264" y="538"/>
			<point x="220" y="538" type="curve" smooth="yes"/>
			<point x="193" y="538"/>
			<point x="175" y="526"/>
			<point x="160" y="512" type="curve"/>
			<point x="182" y="492" type="line"/>
			<point x="182" y="500"/>
			<point x="182" y="504"/>
			<point x="184" y="512" type="curve" smooth="yes"/>
			<point x="202" y="580"/>
			<point x="234" y="618"/>
			<point x="318" y="648" type="curve"/>
			<point x="290" y="724" type="line"/>
			<point x="173" y="693"/>
			<point x="76" y="608"/>
			<point x="76" y="470" type="curve" smooth="yes"/>
			<point x="76" y="400"/>
			<point x="129" y="360"/>
		</contour>
	</outline>
</glyph>
<glyph name="ringhalfleftmod" format="2">
	<unicode hex="02BF"/>
	<advance width="270"/>
	<outline>
		<contour>
			<point x="248" y="370" type="curve"/>
			<point x="266" y="458" type="line"/>
			<point x="228" y="458"/>
			<point x="208" y="474"/>
			<point x="208" y="510" type="curve" smooth="yes"/>
			<point x="208" y="570"/>
			<point x="240" y="610"/>
			<point x="298" y="610" type="curve"/>
			<point x="316" y="698" type="line"/>
			<point x="174" y="704"/>
			<point x="96" y="622"/>
			<point x="96" y="496" type="curve" smooth="yes"/>
			<point x="96" y="408"/>
			<point x="166" y="364"/>
		</contour>
	</outline>
</glyph>
<glyph name="glottalstopmod" format="2">
	<unicode hex="02C0"/>
	<advance width="340"/>
	<outline>
		<contour>
			<point x="122" y="368" type="line"/>
			<point x="234" y="368" type="line"/>
			<point x="244" y="434" type="line"/>
			<point x="328" y="472"/>
			<point x="374" y="526"/>
			<point x="374" y="592" type="curve" smooth="yes"/>
			<point x="374" y="660"/>
			<point x="322" y="708"/>
			<point x="234" y="708" type="curve" smooth="yes"/>
			<point x="180" y="708"/>
			<point x="126" y="684"/>
			<point x="90" y="649" type="curve"/>
			<point x="140" y="580" type="line"/>
			<point x="160" y="596"/>
			<point x="188" y="612"/>
			<point x="212" y="612" type="curve" smooth="yes"/>
			<point x="239" y="612"/>
			<point x="256" y="596"/>
			<point x="256" y="574" type="curve" smooth="yes"/>
			<point x="256" y="540"/>
			<point x="220" y="508"/>
			<point x="142" y="476" type="curve"/>
		</contour>
	</outline>
</glyph>
<glyph name="colontriangularhalfmod" format="2">
	<unicode hex="02D1"/>
	<advance width="310"/>
	<outline>
		<contour>
			<point x="156" y="300" type="line"/>
			<point x="170" y="300" type="line"/>
			<point x="315" y="500" type="line"/>
			<point x="92" y="500" type="line"/>
		</contour>
	</outline>
</glyph>
<glyph name="x.sups" format="2">
	<unicode hex="02E3"/>
	<advance width="378"/>
	<outline>
		<contour>
			<point x="27" y="368" type="line"/>
			<point x="149" y="368" type="line"/>
			<point x="184" y="420" type="line"/>
			<point x="214" y="469" type="line"/>
			<point x="217" y="469" type="line"/>
			<point x="234" y="417" type="line"/>
			<point x="251" y="368" type="line"/>
			<point x="364" y="368" type="line"/>
			<point x="304" y="521" type="line"/>
			<point x="439" y="700" type="line"/>
			<point x="317" y="700" type="line"/>
			<point x="288" y="646" type="line"/>
			<point x="261" y="598" type="line"/>
			<point x="258" y="598" type="line"/>
			<point x="244" y="650" type="line"/>
			<point x="228" y="700" type="line"/>
			<point x="115" y="700" type="line"/>
			<point x="171" y="545" type="line"/>
		</contour>
	</outline>
</glyph>
<glyph name="circumflexcmb" format="2">
	<unicode hex="0302"/>
	<outline>
		<contour>
			<point x="-90" y="570" type="line"/>
			<point x="40" y="570" type="line"/>
			<point x="134" y="658" type="line"/>
			<point x="138" y="658" type="line"/>
			<point x="190" y="570" type="line"/>
			<point x="310" y="570" type="line"/>
			<point x="230" y="770" type="line"/>
			<point x="70" y="770" type="line"/>
		</contour>
	</outline>
	<anchor name="_aboveLC" x="100" y="522"/>
	<anchor name="aboveLC" x="144" y="742"/>
</glyph>
<glyph name="macroncmb" format="2">
	<unicode hex="0304"/>
	<outline>
		<contour>
			<point x="-32" y="590" type="line"/>
			<point x="262" y="590" type="line"/>
			<point x="282" y="690" type="line"/>
			<point x="-12" y="690" type="line"/>
		</contour>
	</outline>
	<anchor name="_aboveLC" x="100" y="522"/>
	<anchor name="aboveLC" x="140" y="702"/>
</glyph>
<glyph name="dieresiscmb" format="2">
	<unicode hex="0308"/>
	<outline>
		<contour>
			<point x="6" y="566" type="curve" smooth="yes"/>
			<point x="54" y="566"/>
			<point x="90" y="602"/>
			<point x="90" y="648" type="curve" smooth="yes"/>
			<point x="90" y="689"/>
			<point x="61" y="714"/>
			<point x="24" y="714" type="curve" smooth="yes"/>
			<point x="-24" y="714"/>
			<point x="-60" y="675"/>
			<point x="-60" y="632" type="curve" smooth="yes"/>
			<point x="-60" y="589"/>
			<point x="-31" y="566"/>
		</contour>
		<contour>
			<point x="226" y="566" type="curve" smooth="yes"/>
			<point x="274" y="566"/>
			<point x="310" y="602"/>
			<point x="310" y="648" type="curve" smooth="yes"/>
			<point x="310" y="689"/>
			<point x="281" y="714"/>
			<point x="244" y="714" type="curve" smooth="yes"/>
			<point x="196" y="714"/>
			<point x="160" y="675"/>
			<point x="160" y="632" type="curve" smooth="yes"/>
			<point x="160" y="589"/>
			<point x="189" y="566"/>
		</contour>
	</outline>
	<anchor name="_aboveLC" x="100" y="522"/>
	<anchor name="aboveLC" x="140" y="732"/>
</glyph>
<glyph name="breveinvertedcmb" format="2">
	<unicode hex="0311"/>
	<outline>
		<contour>
			<point x="34" y="564" type="line"/>
			<point x="48" y="604"/>
			<point x="76" y="634"/>
			<point x="124" y="634" type="curve" smooth="yes"/>
			<point x="168" y="634"/>
			<point x="190" y="610"/>
			<point x="190" y="564" type="curve"/>
			<point x="294" y="580" type="line"/>
			<point x="294" y="692"/>
			<point x="242" y="740"/>
			<point x="144" y="740" type="curve" smooth="yes"/>
			<point x="26" y="740"/>
			<point x="-40" y="674"/>
			<point x="-58" y="580" type="curve"/>
		</contour>
	</outline>
	<anchor name="_aboveLC" x="100" y="522"/>
</glyph>
<glyph name="commaabovecmb" format="2">
	<unicode hex="0313"/>
	<outline>
		<contour>
			<point x="54" y="570" type="line"/>
			<point x="164" y="588"/>
			<point x="222" y="656"/>
			<point x="222" y="738" type="curve" smooth="yes"/>
			<point x="222" y="792"/>
			<point x="184" y="826"/>
			<point x="132" y="826" type="curve" smooth="yes"/>
			<point x="86" y="826"/>
			<point x="44" y="795"/>
			<point x="44" y="750" type="curve" smooth="yes"/>
			<point x="44" y="714"/>
			<point x="68" y="690"/>
			<point x="110" y="690" type="curve" smooth="yes"/>
			<point x="122" y="690"/>
			<point x="132" y="692"/>
			<point x="142" y="696" type="curve"/>
			<point x="130" y="658"/>
			<point x="88" y="638"/>
			<point x="40" y="630" type="curve"/>
		</contour>
	</outline>
	<anchor name="_aboveLC" x="100" y="522"/>
</glyph>
<glyph name="brevedoublebelowcmb" format="2">
	<unicode hex="035C"/>
	<outline>
		<contour>
			<point x="-56" y="-226" type="curve" smooth="yes"/>
			<point x="96" y="-226"/>
			<point x="259" y="-186"/>
			<point x="408" y="-104" type="curve"/>
			<point x="372" y="-32" type="line"/>
			<point x="236" y="-104"/>
			<point x="76" y="-126"/>
			<point x="-36" y="-126" type="curve" smooth="yes"/>
			<point x="-152" y="-126"/>
			<point x="-306" y="-105"/>
			<point x="-416" y="-32" type="curve"/>
			<point x="-470" y="-104" type="line"/>
			<point x="-354" y="-186"/>
			<point x="-208" y="-226"/>
		</contour>
	</outline>
</glyph>
<glyph name="numeralsign" format="2">
	<unicode hex="0374"/>
	<advance width="301"/>
	<outline>
		<contour>
			<point x="109" y="377" type="line"/>
			<point x="212" y="377" type="line"/>
			<point x="295" y="553" type="line"/>
			<point x="346" y="685" type="line"/>
			<point x="188" y="685" type="line"/>
		</contour>
	</outline>
</glyph>
<glyph name="Theta" format="2">
	<unicode hex="0398"/>
	<advance width="670"/>
	<outline>
		<contour>
			<point x="248" y="268" type="line"/>
			<point x="428" y="268" type="line"/>
			<point x="454" y="402" type="line"/>
			<point x="274" y="402" type="line"/>
		</contour>
		<component base="O"/>
	</outline>
	<anchor name="aboveUC" x="410" y="672"/>
</glyph>
<glyph name="zeta" format="2">
	<unicode hex="03B6"/>
	<advance width="452"/>
	<outline>
		<contour>
			<point x="290" y="-188" type="line"/>
			<point x="338" y="-136"/>
			<point x="386" y="-65"/>
			<point x="386" y="-2" type="curve" smooth="yes"/>
			<point x="386" y="58"/>
			<point x="358" y="86"/>
			<point x="274" y="112" type="curve" smooth="yes"/>
			<point x="210" y="132"/>
			<point x="190" y="152"/>
			<point x="190" y="200" type="curve" smooth="yes"/>
			<point x="190" y="301"/>
			<point x="335" y="480"/>
			<point x="486" y="558" type="curve"/>
			<point x="514" y="686" type="line"/>
			<point x="146" y="708" type="line"/>
			<point x="120" y="596" type="line"/>
			<point x="186" y="602"/>
			<point x="298" y="604"/>
			<point x="342" y="600" type="curve"/>
			<point x="342" y="596" type="line"/>
			<point x="182" y="490"/>
			<point x="26" y="348"/>
			<point x="26" y="178" type="curve" smooth="yes"/>
			<point x="26" y="60"/>
			<point x="90" y="16"/>
			<point x="176" y="-8" type="curve" smooth="yes"/>
			<point x="218" y="-20"/>
			<point x="236" y="-31"/>
			<point x="236" y="-56" type="curve" smooth="yes"/>
			<point x="236" y="-90"/>
			<point x="204" y="-120"/>
			<point x="180" y="-146" type="curve"/>
		</contour>
	</outline>
	<anchor name="aboveUC" x="330" y="722"/>
	<anchor name="belowLC" x="160" y="-182"/>
</glyph>
<glyph name="theta" format="2">
	<unicode hex="03B8"/>
	<advance width="536"/>
	<outline>
		<contour>
			<point x="218" y="-12" type="curve" smooth="yes"/>
			<point x="358" y="-12"/>
			<point x="470" y="120"/>
			<point x="508" y="302" type="curve" smooth="yes"/>
			<point x="518" y="349"/>
			<point x="526" y="424"/>
			<point x="526" y="466" type="curve" smooth="yes"/>
			<point x="526" y="598"/>
			<point x="458" y="708"/>
			<point x="322" y="708" type="curve" smooth="yes"/>
			<point x="188" y="708"/>
			<point x="84" y="580"/>
			<point x="84" y="462" type="curve" smooth="yes"/>
			<point x="84" y="348"/>
			<point x="146" y="286"/>
			<point x="326" y="286" type="curve" smooth="yes"/>
			<point x="384" y="286" type="line"/>
			<point x="394" y="394" type="line"/>
			<point x="348" y="394" type="line" smooth="yes"/>
			<point x="260" y="394"/>
			<point x="226" y="421"/>
			<point x="226" y="484" type="curve" smooth="yes"/>
			<point x="226" y="531"/>
			<point x="262" y="588"/>
			<point x="316" y="588" type="curve" smooth="yes"/>
			<point x="357" y="588"/>
			<point x="380" y="546"/>
			<point x="380" y="470" type="curve" smooth="yes"/>
			<point x="380" y="435"/>
			<point x="374" y="390"/>
			<point x="364" y="336" type="curve" smooth="yes"/>
			<point x="331" y="167"/>
			<point x="274" y="116"/>
			<point x="230" y="116" type="curve" smooth="yes"/>
			<point x="198" y="116"/>
			<point x="184" y="146"/>
			<point x="178" y="192" type="curve" smooth="yes"/>
			<point x="174" y="224"/>
			<point x="172" y="248"/>
			<point x="164" y="266" type="curve"/>
			<point x="20" y="242" type="line"/>
			<point x="28" y="218"/>
			<point x="32" y="200"/>
			<point x="38" y="154" type="curve" smooth="yes"/>
			<point x="52" y="52"/>
			<point x="110" y="-12"/>
		</contour>
	</outline>
	<anchor name="aboveUC" x="330" y="722"/>
	<anchor name="belowLC" x="230" y="-22"/>
</glyph>
<glyph name="sigma.end" format="2">
	<unicode hex="03C2"/>
	<advance width="462"/>
	<outline>
		<contour>
			<point x="296" y="-188" type="line"/>
			<point x="344" y="-136"/>
			<point x="392" y="-65"/>
			<point x="392" y="-2" type="curve" smooth="yes"/>
			<point x="392" y="60"/>
			<point x="364" y="88"/>
			<point x="280" y="118" type="curve" smooth="yes"/>
			<point x="212" y="142"/>
			<point x="190" y="172"/>
			<point x="190" y="214" type="curve" smooth="yes"/>
			<point x="190" y="303"/>
			<point x="254" y="386"/>
			<point x="336" y="386" type="curve" smooth="yes"/>
			<point x="358" y="386"/>
			<point x="380" y="382"/>
			<point x="406" y="374" type="curve"/>
			<point x="448" y="494" type="line"/>
			<point x="418" y="506"/>
			<point x="374" y="512"/>
			<point x="338" y="512" type="curve" smooth="yes"/>
			<point x="180" y="512"/>
			<point x="26" y="381"/>
			<point x="26" y="202" type="curve" smooth="yes"/>
			<point x="26" y="84"/>
			<point x="95" y="26"/>
			<point x="182" y="-2" type="curve" smooth="yes"/>
			<point x="220" y="-14"/>
			<point x="242" y="-28"/>
			<point x="242" y="-56" type="curve" smooth="yes"/>
			<point x="242" y="-90"/>
			<point x="210" y="-120"/>
			<point x="186" y="-146" type="curve"/>
		</contour>
	</outline>
	<anchor name="aboveLC" x="300" y="522"/>
	<anchor name="belowLC" x="160" y="-182"/>
</glyph>
<glyph name="tau" format="2">
	<unicode hex="03C4"/>
	<advance width="480"/>
	<outline>
		<contour>
			<point x="246" y="-12" type="curve" smooth="yes"/>
			<point x="290" y="-12"/>
			<point x="326" y="-4"/>
			<point x="348" y="2" type="curve"/>
			<point x="354" y="120" type="line"/>
			<point x="342" y="118"/>
			<point x="330" y="116"/>
			<point x="310" y="116" type="curve" smooth="yes"/>
			<point x="296" y="116"/>
			<point x="284" y="122"/>
			<point x="284" y="142" type="curve" smooth="yes"/>
			<point x="284" y="160"/>
			<point x="304" y="248"/>
			<point x="336" y="376" type="curve"/>
			<point x="476" y="376" type="line"/>
			<point x="500" y="500" type="line"/>
			<point x="142" y="500" type="line"/>
			<point x="70" y="494" type="line"/>
			<point x="46" y="376" type="line"/>
			<point x="182" y="376" type="line"/>
			<point x="140" y="166" type="line" smooth="yes"/>
			<point x="134" y="138"/>
			<point x="132" y="118"/>
			<point x="132" y="98" type="curve" smooth="yes"/>
			<point x="132" y="30"/>
			<point x="164" y="-12"/>
		</contour>
	</outline>
	<anchor name="aboveLC" x="280" y="522"/>
	<anchor name="belowLC" x="250" y="-22"/>
</glyph>
<glyph name="digamma" format="2">
	<unicode hex="03DD"/>
	<advance width="419"/>
	<outline>
		<contour>
			<point x="-28" y="-176" type="line"/>
			<point x="132" y="-176" type="line"/>
			<point x="146" y="-72"/>
			<point x="162" y="18"/>
			<point x="182" y="116" type="curve"/>
			<point x="350" y="116" type="line"/>
			<point x="374" y="232" type="line"/>
			<point x="204" y="232" type="line"/>
			<point x="230" y="376" type="line"/>
			<point x="420" y="376" type="line"/>
			<point x="444" y="500" type="line"/>
			<point x="108" y="500" type="line"/>
		</contour>
	</outline>
	<anchor name="aboveLC" x="290" y="522"/>
	<anchor name="belowLC" x="60" y="-182"/>
</glyph>
<glyph name="Sho" format="2">
	<unicode hex="03F7"/>
	<advance width="588"/>
	<outline>
		<contour>
			<point x="22" y="-22" type="line"/>
			<point x="180" y="-22" type="line"/>
			<point x="202" y="82" type="line"/>
			<point x="212" y="82" type="line" smooth="yes"/>
			<point x="412" y="82"/>
			<point x="570" y="183"/>
			<point x="570" y="360" type="curve" smooth="yes"/>
			<point x="570" y="493"/>
			<point x="468" y="570"/>
			<point x="314" y="570" type="curve" smooth="yes"/>
			<point x="300" y="570" type="line"/>
			<point x="320" y="672" type="line"/>
			<point x="162" y="672" type="line"/>
		</contour>
		<contour>
			<point x="226" y="206" type="line"/>
			<point x="274" y="446" type="line"/>
			<point x="284" y="446" type="line" smooth="yes"/>
			<point x="364" y="446"/>
			<point x="414" y="406"/>
			<point x="414" y="340" type="curve" smooth="yes"/>
			<point x="414" y="256"/>
			<point x="340" y="206"/>
			<point x="242" y="206" type="curve" smooth="yes"/>
		</contour>
	</outline>
</glyph>
<glyph name="sho" format="2">
	<unicode hex="03F8"/>
	<advance width="560"/>
	<outline>
		<contour>
			<point x="-28" y="-176" type="line"/>
			<point x="134" y="-176" type="line"/>
			<point x="140" y="-106"/>
			<point x="150" y="-34"/>
			<point x="164" y="41" type="curve"/>
			<point x="194" y="6"/>
			<point x="235" y="-12"/>
			<point x="282" y="-12" type="curve" smooth="yes"/>
			<point x="409" y="-12"/>
			<point x="528" y="138"/>
			<point x="528" y="328" type="curve" smooth="yes"/>
			<point x="528" y="446"/>
			<point x="481" y="512"/>
			<point x="400" y="512" type="curve" smooth="yes"/>
			<point x="346" y="512"/>
			<point x="293" y="482"/>
			<point x="246" y="438" type="curve"/>
			<point x="244" y="438" type="line"/>
			<point x="262" y="510"/>
			<point x="280" y="578"/>
			<point x="298" y="650" type="curve"/>
			<point x="138" y="650" type="line"/>
		</contour>
		<contour>
			<point x="254" y="116" type="curve" smooth="yes"/>
			<point x="230" y="116"/>
			<point x="206" y="126"/>
			<point x="186" y="148" type="curve"/>
			<point x="210" y="254" type="line" smooth="yes"/>
			<point x="230" y="342"/>
			<point x="278" y="384"/>
			<point x="320" y="384" type="curve" smooth="yes"/>
			<point x="350" y="384"/>
			<point x="366" y="356"/>
			<point x="366" y="302" type="curve" smooth="yes"/>
			<point x="366" y="181"/>
			<point x="312" y="116"/>
		</contour>
	</outline>
	<anchor name="aboveLC" x="400" y="662"/>
	<anchor name="belowLC" x="60" y="-182"/>
</glyph>
<glyph name="Dzhe" format="2">
	<unicode hex="040F"/>
	<advance width="660"/>
	<outline>
		<contour>
			<point x="176" y="-188" type="line"/>
			<point x="308" y="-188" type="line"/>
			<point x="362" y="0" type="line"/>
			<point x="534" y="0" type="line"/>
			<point x="664" y="650" type="line"/>
			<point x="504" y="650" type="line"/>
			<point x="402" y="134" type="line"/>
			<point x="212" y="134" type="line"/>
			<point x="316" y="650" type="line"/>
			<point x="156" y="650" type="line"/>
			<point x="26" y="0" type="line"/>
			<point x="214" y="0" type="line"/>
		</contour>
	</outline>
</glyph>
<glyph name="Be" format="2">
	<unicode hex="0411"/>
	<advance width="578"/>
	<outline>
		<contour>
			<point x="26" y="0" type="line"/>
			<point x="262" y="0" type="line" smooth="yes"/>
			<point x="414" y="0"/>
			<point x="548" y="63"/>
			<point x="548" y="226" type="curve" smooth="yes"/>
			<point x="548" y="330"/>
			<point x="478" y="390"/>
			<point x="338" y="390" type="curve" smooth="yes"/>
			<point x="264" y="390" type="line"/>
			<point x="289" y="516" type="line"/>
			<point x="552" y="516" type="line"/>
			<point x="578" y="650" type="line"/>
			<point x="156" y="650" type="line"/>
		</contour>
		<contour>
			<point x="210" y="122" type="line"/>
			<point x="242" y="282" type="line"/>
			<point x="306" y="282" type="line" smooth="yes"/>
			<point x="366" y="282"/>
			<point x="390" y="258"/>
			<point x="390" y="210" type="curve" smooth="yes"/>
			<point x="390" y="156"/>
			<point x="354" y="122"/>
			<point x="274" y="122" type="curve" smooth="yes"/>
		</contour>
	</outline>
</glyph>
<glyph name="Che" format="2">
	<unicode hex="0427"/>
	<advance width="624"/>
	<outline>
		<contour>
			<point x="338" y="0" type="line"/>
			<point x="498" y="0" type="line"/>
			<point x="628" y="650" type="line"/>
			<point x="468" y="650" type="line"/>
			<point x="413" y="370" type="line"/>
			<point x="387" y="360"/>
			<point x="365" y="356"/>
			<point x="337" y="356" type="curve" smooth="yes"/>
			<point x="271" y="356"/>
			<point x="251" y="379"/>
			<point x="251" y="432" type="curve" smooth="yes"/>
			<point x="251" y="445"/>
			<point x="254" y="468"/>
			<point x="257" y="482" type="curve" smooth="yes"/>
			<point x="292" y="650" type="line"/>
			<point x="136" y="650" type="line"/>
			<point x="103" y="492" type="line" smooth="yes"/>
			<point x="96" y="456"/>
			<point x="91" y="426"/>
			<point x="91" y="398" type="curve" smooth="yes"/>
			<point x="91" y="285"/>
			<point x="162" y="232"/>
			<point x="291" y="232" type="curve" smooth="yes"/>
			<point x="323" y="232"/>
			<point x="351" y="236"/>
			<point x="387" y="246" type="curve"/>
		</contour>
	</outline>
	<anchor name="aboveUC" x="380" y="672"/>
</glyph>
<glyph name="el" format="2">
	<unicode hex="043B"/>
	<advance width="566"/>
	<outline>
		<contour>
			<point x="26" y="-12" type="curve" smooth="yes"/>
			<point x="119" y="-12"/>
			<point x="188" y="52"/>
			<point x="226" y="164" type="curve" smooth="yes"/>
			<point x="250" y="234"/>
			<point x="272" y="302"/>
			<point x="294" y="376" type="curve"/>
			<point x="372" y="376" type="line"/>
			<point x="296" y="0" type="line"/>
			<point x="456" y="0" type="line"/>
			<point x="556" y="500" type="line"/>
			<point x="188" y="500" type="line"/>
			<point x="160" y="402"/>
			<point x="130" y="308"/>
			<point x="98" y="214" type="curve" smooth="yes"/>
			<point x="80" y="162"/>
			<point x="62" y="140"/>
			<point x="38" y="140" type="curve" smooth="yes"/>
			<point x="28" y="140"/>
			<point x="20" y="142"/>
			<point x="12" y="144" type="curve"/>
			<point x="-28" y="0" type="line"/>
			<point x="-14" y="-7"/>
			<point x="3" y="-12"/>
		</contour>
	</outline>
</glyph>
<glyph name="ef" format="2">
	<unicode hex="0444"/>
	<advance width="759"/>
	<outline>
		<contour>
			<point x="222" y="-176" type="line"/>
			<point x="376" y="-176" type="line"/>
			<point x="398" y="-58" type="line"/>
			<point x="412" y="26" type="line"/>
			<point x="435" y="-3"/>
			<point x="464" y="-12"/>
			<point x="498" y="-12" type="curve" smooth="yes"/>
			<point x="609" y="-12"/>
			<point x="738" y="128"/>
			<point x="738" y="324" type="curve" smooth="yes"/>
			<point x="738" y="438"/>
			<point x="690" y="510"/>
			<point x="605" y="510" type="curve" smooth="yes"/>
			<point x="572" y="510"/>
			<point x="530" y="490"/>
			<point x="502" y="462" type="curve"/>
			<point x="524" y="554" type="line"/>
			<point x="552" y="696" type="line"/>
			<point x="398" y="696" type="line"/>
			<point x="372" y="554" type="line"/>
			<point x="358" y="468" type="line"/>
			<point x="339" y="497"/>
			<point x="306" y="510"/>
			<point x="268" y="510" type="curve" smooth="yes"/>
			<point x="162" y="510"/>
			<point x="32" y="372"/>
			<point x="32" y="176" type="curve" smooth="yes"/>
			<point x="32" y="60"/>
			<point x="83" y="-12"/>
			<point x="174" y="-12" type="curve" smooth="yes"/>
			<point x="202" y="-12"/>
			<point x="245" y="7"/>
			<point x="268" y="32" type="curve"/>
			<point x="246" y="-58" type="line"/>
		</contour>
		<contour>
			<point x="240" y="118" type="curve" smooth="yes"/>
			<point x="212" y="118"/>
			<point x="196" y="143"/>
			<point x="196" y="184" type="curve" smooth="yes"/>
			<point x="196" y="306"/>
			<point x="244" y="382"/>
			<point x="290" y="382" type="curve" smooth="yes"/>
			<point x="307" y="382"/>
			<point x="323" y="373"/>
			<point x="336" y="360" type="curve"/>
			<point x="296" y="166" type="line"/>
			<point x="282" y="128"/>
			<point x="260" y="118"/>
		</contour>
		<contour>
			<point x="476" y="118" type="curve" smooth="yes"/>
			<point x="460" y="118"/>
			<point x="446" y="120"/>
			<point x="433" y="134" type="curve"/>
			<point x="475" y="332" type="line"/>
			<point x="494" y="368"/>
			<point x="514" y="382"/>
			<point x="532" y="382" type="curve" smooth="yes"/>
			<point x="560" y="382"/>
			<point x="574" y="358"/>
			<point x="574" y="316" type="curve" smooth="yes"/>
			<point x="574" y="204"/>
			<point x="530" y="118"/>
		</contour>
	</outline>
</glyph>
<glyph name="hard" format="2">
	<unicode hex="044A"/>
	<advance width="572"/>
	<outline>
		<contour>
			<point x="292" y="-12" type="curve" smooth="yes"/>
			<point x="424" y="-12"/>
			<point x="532" y="88"/>
			<point x="532" y="208" type="curve" smooth="yes"/>
			<point x="532" y="288"/>
			<point x="482" y="342"/>
			<point x="396" y="342" type="curve" smooth="yes"/>
			<point x="366" y="342"/>
			<point x="346" y="338"/>
			<point x="318" y="328" type="curve"/>
			<point x="364" y="500" type="line"/>
			<point x="66" y="500" type="line"/>
			<point x="42" y="376" type="line"/>
			<point x="169" y="376" type="line"/>
			<point x="130" y="230" type="line" smooth="yes"/>
			<point x="126" y="214"/>
			<point x="118" y="176"/>
			<point x="118" y="142" type="curve" smooth="yes"/>
			<point x="118" y="54"/>
			<point x="184" y="-12"/>
		</contour>
		<contour>
			<point x="322" y="108" type="curve" smooth="yes"/>
			<point x="294" y="108"/>
			<point x="276" y="128"/>
			<point x="276" y="158" type="curve" smooth="yes"/>
			<point x="276" y="176"/>
			<point x="280" y="190"/>
			<point x="288" y="210" type="curve"/>
			<point x="309" y="219"/>
			<point x="319" y="224"/>
			<point x="336" y="224" type="curve" smooth="yes"/>
			<point x="366" y="224"/>
			<point x="384" y="208"/>
			<point x="384" y="178" type="curve" smooth="yes"/>
			<point x="384" y="140"/>
			<point x="356" y="108"/>
		</contour>
	</outline>
</glyph>
<glyph name="zedescender" format="2">
	<unicode hex="0499"/>
	<advance width="448"/>
	<outline>
		<contour>
			<point x="54" y="-172" type="line"/>
			<point x="212" y="-172" type="line"/>
			<point x="232" y="-30" type="line"/>
			<point x="108" y="-30" type="line"/>
		</contour>
		<component base="ze"/>
	</outline>
</glyph>
<glyph name="hadescender" format="2">
	<unicode hex="04B3"/>
	<advance width="514"/>
	<outline>
		<contour>
			<point x="312" y="-172" type="line"/>
			<point x="436" y="-172" type="line"/>
			<point x="494" y="18" type="line"/>
			<point x="514" y="134" type="line"/>
			<point x="336" y="134" type="line"/>
			<point x="310" y="0" type="line"/>
			<point x="340" y="0" type="line"/>
		</contour>
		<component base="x"/>
	</outline>
</glyph>
<glyph name="Enhook" format="2">
	<unicode hex="04C7"/>
	<advance width="664"/>
	<outline>
		<contour>
			<point x="338" y="-188" type="curve" smooth="yes"/>
			<point x="462" y="-188"/>
			<point x="518" y="-100"/>
			<point x="538" y="2" type="curve" smooth="yes"/>
			<point x="668" y="650" type="line"/>
			<point x="508" y="650" type="line"/>
			<point x="460" y="406" type="line"/>
			<point x="266" y="406" type="line"/>
			<point x="316" y="650" type="line"/>
			<point x="156" y="650" type="line"/>
			<point x="26" y="0" type="line"/>
			<point x="186" y="0" type="line"/>
			<point x="238" y="266" type="line"/>
			<point x="432" y="266" type="line"/>
			<point x="378" y="0" type="line"/>
			<point x="366" y="-48"/>
			<point x="350" y="-62"/>
			<point x="324" y="-62" type="curve" smooth="yes"/>
			<point x="308" y="-62"/>
			<point x="294" y="-58"/>
			<point x="280" y="-52" type="curve"/>
			<point x="238" y="-164" type="line"/>
			<point x="268" y="-182"/>
			<point x="304" y="-188"/>
		</contour>
	</outline>
</glyph>
<glyph name="B.sups" format="2">
	<unicode hex="1D2E"/>
	<advance width="396"/>
	<outline>
		<contour>
			<point x="70" y="368" type="line"/>
			<point x="240" y="368" type="line" smooth="yes"/>
			<point x="342" y="368"/>
			<point x="430" y="410"/>
			<point x="430" y="512" type="curve" smooth="yes"/>
			<point x="430" y="552"/>
			<point x="406" y="578"/>
			<point x="356" y="588" type="curve"/>
			<point x="356" y="592" type="line"/>
			<point x="418" y="610"/>
			<point x="450" y="652"/>
			<point x="450" y="698" type="curve" smooth="yes"/>
			<point x="450" y="770"/>
			<point x="388" y="800"/>
			<point x="300" y="800" type="curve" smooth="yes"/>
			<point x="156" y="800" type="line"/>
		</contour>
		<contour>
			<point x="236" y="630" type="line"/>
			<point x="252" y="710" type="line"/>
			<point x="282" y="710" type="line" smooth="yes"/>
			<point x="318" y="710"/>
			<point x="334" y="699"/>
			<point x="334" y="680" type="curve" smooth="yes"/>
			<point x="334" y="650"/>
			<point x="316" y="630"/>
			<point x="270" y="630" type="curve" smooth="yes"/>
		</contour>
		<contour>
			<point x="202" y="458" type="line"/>
			<point x="220" y="550" type="line"/>
			<point x="269" y="550" type="line" smooth="yes"/>
			<point x="302" y="550"/>
			<point x="318" y="535"/>
			<point x="318" y="508" type="curve" smooth="yes"/>
			<point x="318" y="477"/>
			<point x="294" y="458"/>
			<point x="248" y="458" type="curve" smooth="yes"/>
		</contour>
	</outline>
</glyph>
<glyph name="D.sups" format="2">
	<unicode hex="1D30"/>
	<advance width="416"/>
	<outline>
		<contour>
			<point x="70" y="368" type="line"/>
			<point x="218" y="368" type="line" smooth="yes"/>
			<point x="356" y="368"/>
			<point x="462" y="454"/>
			<point x="462" y="628" type="curve" smooth="yes"/>
			<point x="462" y="746"/>
			<point x="388" y="800"/>
			<point x="262" y="800" type="curve" smooth="yes"/>
			<point x="156" y="800" type="line"/>
		</contour>
		<contour>
			<point x="202" y="462" type="line"/>
			<point x="250" y="706" type="line"/>
			<point x="260" y="706" type="line" smooth="yes"/>
			<point x="310" y="706"/>
			<point x="344" y="684"/>
			<point x="344" y="622" type="curve" smooth="yes"/>
			<point x="344" y="504"/>
			<point x="286" y="462"/>
			<point x="218" y="462" type="curve" smooth="yes"/>
		</contour>
	</outline>
</glyph>
<glyph name="E.sups" format="2">
	<unicode hex="1D31"/>
	<advance width="360"/>
	<outline>
		<contour>
			<point x="70" y="368" type="line"/>
			<point x="348" y="368" type="line"/>
			<point x="368" y="466" type="line"/>
			<point x="202" y="466" type="line"/>
			<point x="216" y="540" type="line"/>
			<point x="354" y="540" type="line"/>
			<point x="374" y="638" type="line"/>
			<point x="236" y="638" type="line"/>
			<point x="250" y="702" type="line"/>
			<point x="410" y="702" type="line"/>
			<point x="430" y="800" type="line"/>
			<point x="156" y="800" type="line"/>
		</contour>
	</outline>
</glyph>
<glyph name="M.sups" format="2">
	<unicode hex="1D39"/>
	<advance width="508"/>
	<outline>
		<contour>
			<point x="70" y="368" type="line"/>
			<point x="176" y="368" type="line"/>
			<point x="200" y="490" type="line" smooth="yes"/>
			<point x="210" y="542"/>
			<point x="214" y="608"/>
			<point x="216" y="664" type="curve"/>
			<point x="220" y="664" type="line"/>
			<point x="236" y="544" type="line"/>
			<point x="260" y="404" type="line"/>
			<point x="304" y="404" type="line"/>
			<point x="386" y="544" type="line"/>
			<point x="450" y="664" type="line"/>
			<point x="454" y="664" type="line"/>
			<point x="438" y="618"/>
			<point x="412" y="542"/>
			<point x="402" y="490" type="curve" smooth="yes"/>
			<point x="378" y="368" type="line"/>
			<point x="486" y="368" type="line"/>
			<point x="572" y="800" type="line"/>
			<point x="454" y="800" type="line"/>
			<point x="352" y="624" type="line" smooth="yes"/>
			<point x="336" y="596"/>
			<point x="324" y="572"/>
			<point x="312" y="546" type="curve"/>
			<point x="308" y="546" type="line"/>
			<point x="306" y="572"/>
			<point x="304" y="596"/>
			<point x="300" y="624" type="curve" smooth="yes"/>
			<point x="274" y="800" type="line"/>
			<point x="156" y="800" type="line"/>
		</contour>
	</outline>
</glyph>
<glyph name="N.sups" format="2">
	<unicode hex="1D3A"/>
	<advance width="436"/>
	<outline>
		<contour>
			<point x="70" y="368" type="line"/>
			<point x="178" y="368" type="line"/>
			<point x="200" y="488" type="line" smooth="yes"/>
			<point x="210" y="540"/>
			<point x="216" y="618"/>
			<point x="218" y="674" type="curve"/>
			<point x="222" y="674" type="line"/>
			<point x="230" y="620"/>
			<point x="236" y="590"/>
			<point x="246" y="556" type="curve" smooth="yes"/>
			<point x="300" y="368" type="line"/>
			<point x="414" y="368" type="line"/>
			<point x="500" y="800" type="line"/>
			<point x="392" y="800" type="line"/>
			<point x="370" y="680" type="line" smooth="yes"/>
			<point x="360" y="628"/>
			<point x="354" y="550"/>
			<point x="352" y="494" type="curve"/>
			<point x="348" y="494" type="line"/>
			<point x="340" y="548"/>
			<point x="334" y="578"/>
			<point x="324" y="612" type="curve" smooth="yes"/>
			<point x="270" y="800" type="line"/>
			<point x="156" y="800" type="line"/>
		</contour>
	</outline>
</glyph>
<glyph name="O.sups" format="2">
	<unicode hex="1D3C"/>
	<advance width="450"/>
	<outline>
		<contour>
			<point x="256" y="360" type="curve" smooth="yes"/>
			<point x="398" y="360"/>
			<point x="490" y="498"/>
			<point x="490" y="634" type="curve" smooth="yes"/>
			<point x="490" y="744"/>
			<point x="424" y="808"/>
			<point x="326" y="808" type="curve" smooth="yes"/>
			<point x="184" y="808"/>
			<point x="92" y="670"/>
			<point x="92" y="534" type="curve" smooth="yes"/>
			<point x="92" y="424"/>
			<point x="158" y="360"/>
		</contour>
		<contour>
			<point x="266" y="462" type="curve" smooth="yes"/>
			<point x="230" y="462"/>
			<point x="210" y="492"/>
			<point x="210" y="540" type="curve" smooth="yes"/>
			<point x="210" y="618"/>
			<point x="260" y="706"/>
			<point x="316" y="706" type="curve" smooth="yes"/>
			<point x="352" y="706"/>
			<point x="372" y="676"/>
			<point x="372" y="628" type="curve" smooth="yes"/>
			<point x="372" y="550"/>
			<point x="322" y="462"/>
		</contour>
	</outline>
</glyph>
<glyph name="R.sups" format="2">
	<unicode hex="1D3F"/>
	<advance width="410"/>
	<outline>
		<contour>
			<point x="70" y="368" type="line"/>
			<point x="183" y="368" type="line"/>
			<point x="212" y="512" type="line"/>
			<point x="258" y="512" type="line" smooth="yes"/>
			<point x="364" y="512"/>
			<point x="462" y="562"/>
			<point x="462" y="684" type="curve" smooth="yes"/>
			<point x="462" y="770"/>
			<point x="394" y="800"/>
			<point x="304" y="800" type="curve" smooth="yes"/>
			<point x="156" y="800" type="line"/>
		</contour>
		<contour>
			<point x="230" y="604" type="line"/>
			<point x="250" y="706" type="line"/>
			<point x="290" y="706" type="line" smooth="yes"/>
			<point x="326" y="706"/>
			<point x="348" y="694"/>
			<point x="348" y="668" type="curve" smooth="yes"/>
			<point x="348" y="630"/>
			<point x="320" y="604"/>
			<point x="267" y="604" type="curve" smooth="yes"/>
		</contour>
		<contour>
			<point x="302" y="368" type="line"/>
			<point x="418" y="368" type="line"/>
			<point x="326" y="608" type="line"/>
			<point x="244" y="542" type="line"/>
		</contour>
	</outline>
</glyph>
<glyph name="nmiddletilde" format="2">
	<unicode hex="1D70"/>
	<advance width="702"/>
	<outline>
		<contour>
			<point x="590" y="134" type="curve" smooth="yes"/>
			<point x="636" y="134"/>
			<point x="682" y="170"/>
			<point x="702" y="252" type="curve"/>
			<point x="618" y="274" type="line"/>
			<point x="608" y="242"/>
			<point x="596" y="232"/>
			<point x="578" y="232" type="curve" smooth="yes"/>
			<point x="530" y="232"/>
			<point x="170" y="288"/>
			<point x="96" y="288" type="curve" smooth="yes"/>
			<point x="50" y="288"/>
			<point x="4" y="252"/>
			<point x="-16" y="170" type="curve"/>
			<point x="68" y="148" type="line"/>
			<point x="78" y="180"/>
			<point x="90" y="190"/>
			<point x="108" y="190" type="curve" smooth="yes"/>
			<point x="156" y="190"/>
			<point x="516" y="134"/>
		</contour>
		<component base="n" xOffset="70"/>
	</outline>
	<anchor name="aboveLC" x="410" y="522"/>
	<anchor name="belowLC" x="300" y="-22"/>
</glyph>
<glyph name="ismallstroke" format="2">
	<unicode hex="1D7B"/>
	<advance width="399"/>
	<outline>
		<contour>
			<point x="12" y="0" type="line"/>
			<point x="306" y="0" type="line"/>
			<point x="330" y="124" type="line"/>
			<point x="264" y="124" type="line"/>
			<point x="314" y="376" type="line"/>
			<point x="380" y="376" type="line"/>
			<point x="404" y="500" type="line"/>
			<point x="112" y="500" type="line"/>
			<point x="88" y="376" type="line"/>
			<point x="154" y="376" type="line"/>
			<point x="104" y="124" type="line"/>
			<point x="38" y="124" type="line"/>
		</contour>
		<contour>
			<point x="52" y="202" type="line"/>
			<point x="348" y="202" type="line"/>
			<point x="368" y="306" type="line"/>
			<point x="144" y="306" type="line"/>
			<point x="72" y="300" type="line"/>
		</contour>
	</outline>
	<anchor name="aboveLC" x="260" y="522"/>
	<anchor name="belowLC" x="160" y="-22"/>
	<anchor name="ogonekLC" x="160" y="0"/>
</glyph>
<glyph name="upsilonstroke" format="2">
	<unicode hex="1D7F"/>
	<advance width="584"/>
	<outline>
		<contour>
			<point x="-24" y="202" type="line"/>
			<point x="586" y="202" type="line"/>
			<point x="606" y="306" type="line"/>
			<point x="88" y="306" type="line"/>
			<point x="-4" y="300" type="line"/>
		</contour>
		<component base="upsilonlatin" xOffset="20"/>
	</outline>
	<anchor name="aboveLC" x="350" y="522"/>
	<anchor name="belowLC" x="240" y="-22"/>
</glyph>
<glyph name="f.sups" format="2">
	<unicode hex="1DA0"/>
	<advance width="234"/>
	<outline>
		<contour>
			<point x="82" y="368" type="line"/>
			<point x="193" y="368" type="line"/>
			<point x="263" y="709" type="line" smooth="yes"/>
			<point x="270" y="745"/>
			<point x="282" y="757"/>
			<point x="305" y="757" type="curve" smooth="yes"/>
			<point x="315" y="757"/>
			<point x="328" y="752"/>
			<point x="335" y="748" type="curve"/>
			<point x="369" y="824" type="line"/>
			<point x="346" y="836"/>
			<point x="319" y="843"/>
			<point x="292" y="843" type="curve" smooth="yes"/>
			<point x="205" y="843"/>
			<point x="166" y="782"/>
			<point x="152" y="713" type="curve" smooth="yes"/>
		</contour>
		<contour>
			<point x="90" y="614" type="line"/>
			<point x="298" y="614" type="line"/>
			<point x="316" y="700" type="line"/>
			<point x="156" y="700" type="line"/>
			<point x="104" y="694" type="line"/>
		</contour>
	</outline>
</glyph>
<glyph name="nhookleft.sups" format="2">
	<unicode hex="1DAE"/>
	<advance width="376"/>
	<outline>
		<contour>
			<point x="40" y="236" type="curve" smooth="yes"/>
			<point x="122" y="236"/>
			<point x="160" y="289"/>
			<point x="174" y="358" type="curve" smooth="yes"/>
			<point x="217" y="578" type="line"/>
			<point x="239" y="602"/>
			<point x="255" y="614"/>
			<point x="273" y="614" type="curve" smooth="yes"/>
			<point x="289" y="614"/>
			<point x="298" y="605"/>
			<point x="298" y="587" type="curve" smooth="yes"/>
			<point x="298" y="580"/>
			<point x="297" y="571"/>
			<point x="294" y="559" type="curve" smooth="yes"/>
			<point x="256" y="368" type="line"/>
			<point x="368" y="368" type="line"/>
			<point x="409" y="573" type="line"/>
			<point x="411" y="587"/>
			<point x="415" y="604"/>
			<point x="415" y="619" type="curve" smooth="yes"/>
			<point x="415" y="676"/>
			<point x="389" y="708"/>
			<point x="334" y="708" type="curve" smooth="yes"/>
			<point x="291" y="708"/>
			<point x="254" y="684"/>
			<point x="224" y="656" type="curve"/>
			<point x="220" y="656" type="line"/>
			<point x="220" y="700" type="line"/>
			<point x="130" y="700" type="line"/>
			<point x="64" y="368" type="line" smooth="yes"/>
			<point x="57" y="333"/>
			<point x="51" y="322"/>
			<point x="30" y="322" type="curve" smooth="yes"/>
			<point x="21" y="322"/>
			<point x="12" y="324"/>
			<point x="2" y="328" type="curve"/>
			<point x="-31" y="251" type="line"/>
			<point x="-6" y="239"/>
			<point x="16" y="236"/>
		</contour>
	</outline>
</glyph>
<glyph name="nsmall.sups" format="2">
	<unicode hex="1DB0"/>
	<advance width="378"/>
	<outline>
		<contour>
			<point x="64" y="368" type="line"/>
			<point x="173" y="368" type="line"/>
			<point x="186" y="440" type="line" smooth="yes"/>
			<point x="193" y="480"/>
			<point x="194" y="538"/>
			<point x="194" y="582" type="curve"/>
			<point x="197" y="582" type="line"/>
			<point x="203" y="540"/>
			<point x="206" y="518"/>
			<point x="215" y="492" type="curve" smooth="yes"/>
			<point x="260" y="368" type="line"/>
			<point x="368" y="368" type="line"/>
			<point x="434" y="700" type="line"/>
			<point x="325" y="700" type="line"/>
			<point x="312" y="628" type="line" smooth="yes"/>
			<point x="305" y="589"/>
			<point x="304" y="530"/>
			<point x="304" y="486" type="curve"/>
			<point x="301" y="486" type="line"/>
			<point x="295" y="527"/>
			<point x="293" y="549"/>
			<point x="283" y="575" type="curve" smooth="yes"/>
			<point x="237" y="700" type="line"/>
			<point x="130" y="700" type="line"/>
		</contour>
	</outline>
</glyph>
<glyph name="circumflexdoublecmb" format="2">
	<unicode hex="1DCD"/>
	<outline>
		<contour>
			<point x="-334" y="532" type="line"/>
			<point x="74" y="626" type="line"/>
			<point x="454" y="532" type="line"/>
			<point x="508" y="604" type="line"/>
			<point x="154" y="726" type="line"/>
			<point x="34" y="726" type="line"/>
			<point x="-370" y="604" type="line"/>
		</contour>
	</outline>
</glyph>
<glyph name="hyphen" format="2">
	<unicode hex="2011"/>
	<unicode hex="002D"/>
	<unicode hex="00AD"/>
	<unicode hex="2010"/>
	<advance width="328"/>
	<outline>
		<contour>
			<point x="32" y="198" type="line"/>
			<point x="272" y="198" type="line"/>
			<point x="296" y="310" type="line"/>
			<point x="56" y="310" type="line"/>
		</contour>
	</outline>
</glyph>
<glyph name="endash" format="2">
	<unicode hex="2013"/>
	<advance width="464"/>
	<outline>
		<contour>
			<point x="34" y="202" type="line"/>
			<point x="410" y="202" type="line"/>
			<point x="430" y="304" type="line"/>
			<point x="54" y="304" type="line"/>
		</contour>
	</outline>
</glyph>
<glyph name="quoteleft" format="2">
	<unicode hex="2018"/>
	<advance width="310"/>
	<outline>
		<contour>
			<point x="180" y="350" type="curve" smooth="yes"/>
			<point x="238" y="350"/>
			<point x="274" y="394"/>
			<point x="274" y="442" type="curve" smooth="yes"/>
			<point x="274" y="486"/>
			<point x="240" y="512"/>
			<point x="194" y="512" type="curve" smooth="yes"/>
			<point x="178" y="512"/>
			<point x="162" y="504"/>
			<point x="148" y="494" type="curve"/>
			<point x="178" y="422" type="line"/>
			<point x="188" y="510" type="line"/>
			<point x="188" y="540"/>
			<point x="231" y="603"/>
			<point x="310" y="630" type="curve"/>
			<point x="286" y="698" type="line"/>
			<point x="186" y="670"/>
			<point x="98" y="588"/>
			<point x="98" y="458" type="curve" smooth="yes"/>
			<point x="98" y="390"/>
			<point x="130" y="350"/>
		</contour>
	</outline>
</glyph>
<glyph name="daggerdbl" format="2">
	<unicode hex="2021"/>
	<advance width="508"/>
	<outline>
		<contour>
			<point x="124" y="-80" type="line"/>
			<point x="252" y="-80" type="line"/>
			<point x="276" y="94" type="line"/>
			<point x="434" y="84" type="line"/>
			<point x="460" y="212" type="line"/>
			<point x="298" y="200" type="line"/>
			<point x="330" y="316" type="line"/>
			<point x="344" y="432" type="line"/>
			<point x="502" y="418" type="line"/>
			<point x="526" y="546" type="line"/>
			<point x="364" y="536" type="line"/>
			<point x="408" y="712" type="line"/>
			<point x="282" y="712" type="line"/>
			<point x="256" y="536" type="line"/>
			<point x="98" y="546" type="line"/>
			<point x="74" y="418" type="line"/>
			<point x="236" y="432" type="line"/>
			<point x="202" y="316" type="line"/>
			<point x="190" y="200" type="line"/>
			<point x="32" y="212" type="line"/>
			<point x="8" y="84" type="line"/>
			<point x="168" y="94" type="line"/>
		</contour>
	</outline>
</glyph>
<glyph name="bullet" format="2">
	<unicode hex="2022"/>
	<advance width="344"/>
	<outline>
		<contour>
			<point x="160" y="120" type="curve" smooth="yes"/>
			<point x="248" y="120"/>
			<point x="306" y="202"/>
			<point x="306" y="278" type="curve" smooth="yes"/>
			<point x="306" y="352"/>
			<point x="254" y="404"/>
			<point x="184" y="404" type="curve" smooth="yes"/>
			<point x="96" y="404"/>
			<point x="38" y="322"/>
			<point x="38" y="246" type="curve" smooth="yes"/>
			<point x="38" y="172"/>
			<point x="90" y="120"/>
		</contour>
	</outline>
</glyph>
<glyph name="primereversed" format="2">
	<unicode hex="2035"/>
	<advance width="310"/>
	<outline>
		<contour>
			<point x="260" y="324" type="line"/>
			<point x="238" y="684" type="line"/>
			<point x="84" y="684" type="line"/>
			<point x="108" y="530" type="line"/>
			<point x="160" y="324" type="line"/>
		</contour>
	</outline>
</glyph>
<glyph name="guilsinglleft" format="2">
	<unicode hex="2039"/>
	<advance width="280"/>
	<outline>
		<contour>
			<point x="144" y="54" type="line"/>
			<point x="206" y="94" type="line"/>
			<point x="130" y="246" type="line"/>
			<point x="260" y="396" type="line"/>
			<point x="212" y="448" type="line"/>
			<point x="60" y="312" type="line"/>
			<point x="40" y="200" type="line"/>
		</contour>
	</outline>
</glyph>
<glyph name="ettironian" format="2">
	<unicode hex="204A"/>
	<advance width="456"/>
	<outline>
		<contour>
			<point x="28" y="-176" type="line"/>
			<point x="196" y="-176" type="line"/>
			<point x="462" y="408" type="line"/>
			<point x="480" y="500" type="line"/>
			<point x="70" y="500" type="line"/>
			<point x="46" y="376" type="line"/>
			<point x="310" y="376" type="line"/>
		</contour>
	</outline>
</glyph>
<glyph name="peso" format="2">
	<unicode hex="20B1"/>
	<advance width="520"/>
	<outline>
		<contour>
			<point x="6" y="0" type="line"/>
			<point x="156" y="0" type="line"/>
			<point x="196" y="188" type="line"/>
			<point x="226" y="188" type="line" smooth="yes"/>
			<point x="360" y="188"/>
			<point x="496" y="271"/>
			<point x="496" y="462" type="curve" smooth="yes"/>
			<point x="496" y="589"/>
			<point x="416" y="634"/>
			<point x="312" y="634" type="curve" smooth="yes"/>
			<point x="134" y="634" type="line"/>
		</contour>
		<contour>
			<point x="216" y="288" type="line"/>
			<point x="264" y="534" type="line"/>
			<point x="286" y="534" type="line" smooth="yes"/>
			<point x="326" y="534"/>
			<point x="348" y="509"/>
			<point x="348" y="450" type="curve" smooth="yes"/>
			<point x="348" y="355"/>
			<point x="308" y="288"/>
			<point x="238" y="288" type="curve" smooth="yes"/>
		</contour>
		<contour>
			<point x="16" y="326" type="line"/>
			<point x="522" y="326" type="line"/>
			<point x="534" y="388" type="line"/>
			<point x="102" y="388" type="line"/>
			<point x="28" y="382" type="line"/>
		</contour>
		<contour>
			<point x="38" y="436" type="line"/>
			<point x="544" y="436" type="line"/>
			<point x="556" y="498" type="line"/>
			<point x="124" y="498" type="line"/>
			<point x="50" y="492" type="line"/>
		</contour>
	</outline>
</glyph>
<glyph name="numero" format="2">
	<unicode hex="2116"/>
	<advance width="948"/>
	<outline>
		<contour>
			<point x="48" y="-12" type="curve" smooth="yes"/>
			<point x="135" y="-12"/>
			<point x="182" y="36"/>
			<point x="200" y="125" type="curve" smooth="yes"/>
			<point x="217" y="210" type="line" smooth="yes"/>
			<point x="229" y="271"/>
			<point x="236" y="346"/>
			<point x="246" y="466" type="curve"/>
			<point x="250" y="466" type="line"/>
			<point x="254" y="426"/>
			<point x="258" y="392"/>
			<point x="262" y="364" type="curve" smooth="yes"/>
			<point x="319" y="0" type="line"/>
			<point x="492" y="0" type="line"/>
			<point x="587" y="475" type="line" smooth="yes"/>
			<point x="594" y="510"/>
			<point x="606" y="519"/>
			<point x="636" y="519" type="curve"/>
			<point x="649" y="640" type="line"/>
			<point x="635" y="644"/>
			<point x="629" y="646"/>
			<point x="606" y="646" type="curve" smooth="yes"/>
			<point x="519" y="646"/>
			<point x="472" y="597"/>
			<point x="454" y="509" type="curve" smooth="yes"/>
			<point x="437" y="424" type="line" smooth="yes"/>
			<point x="425" y="364"/>
			<point x="418" y="289"/>
			<point x="408" y="168" type="curve"/>
			<point x="404" y="168" type="line"/>
			<point x="400" y="208"/>
			<point x="396" y="242"/>
			<point x="392" y="270" type="curve"/>
			<point x="334" y="634" type="line"/>
			<point x="162" y="634" type="line"/>
			<point x="67" y="159" type="line" smooth="yes"/>
			<point x="59" y="123"/>
			<point x="48" y="115"/>
			<point x="18" y="115" type="curve"/>
			<point x="5" y="-6" type="line"/>
			<point x="19" y="-10"/>
			<point x="25" y="-12"/>
		</contour>
		<contour>
			<point x="784" y="274" type="curve" smooth="yes"/>
			<point x="880" y="274"/>
			<point x="974" y="350"/>
			<point x="974" y="468" type="curve" smooth="yes"/>
			<point x="974" y="550"/>
			<point x="914" y="598"/>
			<point x="838" y="598" type="curve" smooth="yes"/>
			<point x="742" y="598"/>
			<point x="648" y="522"/>
			<point x="648" y="403" type="curve" smooth="yes"/>
			<point x="648" y="322"/>
			<point x="708" y="274"/>
		</contour>
		<contour>
			<point x="794" y="360" type="curve" smooth="yes"/>
			<point x="770" y="360"/>
			<point x="760" y="378"/>
			<point x="760" y="406" type="curve" smooth="yes"/>
			<point x="760" y="466"/>
			<point x="786" y="512"/>
			<point x="828" y="512" type="curve" smooth="yes"/>
			<point x="852" y="512"/>
			<point x="862" y="494"/>
			<point x="862" y="466" type="curve" smooth="yes"/>
			<point x="862" y="406"/>
			<point x="836" y="360"/>
		</contour>
		<contour>
			<point x="621" y="125" type="line"/>
			<point x="877" y="125" type="line"/>
			<point x="894" y="207" type="line"/>
			<point x="638" y="207" type="line"/>
		</contour>
	</outline>
</glyph>
<glyph name="arrowleft" format="2">
	<unicode hex="2190"/>
	<advance width="592"/>
	<outline>
		<contour>
			<point x="285" y="-19" type="line"/>
			<point x="359" y="65" type="line"/>
			<point x="229" y="187" type="line"/>
			<point x="575" y="187" type="line"/>
			<point x="575" y="315" type="line"/>
			<point x="229" y="315" type="line"/>
			<point x="359" y="437" type="line"/>
			<point x="285" y="521" type="line"/>
			<point x="17" y="253" type="line"/>
			<point x="17" y="249" type="line"/>
		</contour>
	</outline>
</glyph>
<glyph name="minus" format="2">
	<unicode hex="2212"/>
	<advance width="520"/>
	<outline>
		<contour>
			<point x="48" y="274" type="line"/>
			<point x="496" y="274" type="line"/>
			<point x="496" y="386" type="line"/>
			<point x="48" y="386" type="line"/>
		</contour>
	</outline>
</glyph>
<glyph name="control" format="2">
	<unicode hex="2303"/>
	<advance width="800"/>
	<outline>
		<contour>
			<point x="176" y="320" type="line"/>
			<point x="400" y="534" type="line"/>
			<point x="624" y="320" type="line"/>
			<point x="716" y="414" type="line"/>
			<point x="400" y="708" type="line"/>
			<point x="84" y="414" type="line"/>
		</contour>
	</outline>
</glyph>
<glyph name="delete" format="2">
	<unicode hex="232B"/>
	<advance width="1000"/>
	<outline>
		<contour>
			<point x="280" y="-12" type="line"/>
			<point x="942" y="-12" type="line"/>
			<point x="942" y="662" type="line"/>
			<point x="280" y="662" type="line"/>
			<point x="20" y="328" type="line"/>
			<point x="20" y="324" type="line"/>
		</contour>
		<contour>
			<point x="370" y="114" type="line"/>
			<point x="205" y="326" type="line"/>
			<point x="370" y="536" type="line"/>
			<point x="792" y="536" type="line"/>
			<point x="792" y="114" type="line"/>
		</contour>
		<contour>
			<point x="462" y="134" type="line"/>
			<point x="568" y="242" type="line"/>
			<point x="674" y="134" type="line"/>
			<point x="760" y="218" type="line"/>
			<point x="652" y="326" type="line"/>
			<point x="760" y="434" type="line"/>
			<point x="674" y="518" type="line"/>
			<point x="568" y="410" type="line"/>
			<point x="462" y="518" type="line"/>
			<point x="376" y="434" type="line"/>
			<point x="484" y="326" type="line"/>
			<point x="376" y="218" type="line"/>
		</contour>
	</outline>
</glyph>
<glyph name="bulletsquare" format="2">
	<unicode hex="25AA"/>
	<advance width="344"/>
	<outline>
		<contour>
			<point x="36" y="130" type="line"/>
			<point x="308" y="130" type="line"/>
			<point x="308" y="394" type="line"/>
			<point x="36" y="394" type="line"/>
		</contour>
	</outline>
</glyph>
<glyph name="trianglesmalldownblack" format="2">
	<unicode hex="25BE"/>
	<advance width="344"/>
	<outline>
		<contour>
			<point x="170" y="100" type="line"/>
			<point x="174" y="100" type="line"/>
			<point x="332" y="388" type="line"/>
			<point x="332" y="392" type="line"/>
			<point x="12" y="392" type="line"/>
			<point x="12" y="388" type="line"/>
		</contour>
	</outline>
</glyph>
<glyph name="lozenge" format="2">
	<unicode hex="25CA"/>
	<advance width="538"/>
	<outline>
		<contour>
			<point x="220" y="-10" type="line"/>
			<point x="346" y="-10" type="line"/>
			<point x="502" y="330" type="line"/>
			<point x="346" y="670" type="line"/>
			<point x="220" y="670" type="line"/>
			<point x="64" y="330" type="line"/>
		</contour>
		<contour>
			<point x="281" y="122" type="line"/>
			<point x="232" y="241" type="line"/>
			<point x="193" y="330" type="line"/>
			<point x="232" y="419" type="line"/>
			<point x="281" y="538" type="line"/>
			<point x="285" y="538" type="line"/>
			<point x="334" y="419" type="line"/>
			<point x="372" y="330" type="line"/>
			<point x="334" y="241" type="line"/>
			<point x="285" y="122" type="line"/>
		</contour>
	</outline>
</glyph>
<glyph name="checkbox" format="2">
	<unicode hex="2610"/>
	<advance width="776"/>
	<outline>
		<contour>
			<point x="70" y="-10" type="line"/>
			<point x="640" y="-10" type="line"/>
			<point x="706" y="66" type="line"/>
			<point x="706" y="674" type="line"/>
			<point x="146" y="674" type="line"/>
			<point x="70" y="608" type="line"/>
		</contour>
		<contour>
			<point x="130" y="50" type="line"/>
			<point x="130" y="584" type="line"/>
			<point x="616" y="584" type="line"/>
			<point x="616" y="50" type="line"/>
		</contour>
	</outline>
</glyph>
<glyph name="earth" format="2">
	<unicode hex="2641"/>
	<advance width="600"/>
	<outline>
		<contour>
			<point x="300" y="32" type="curve" smooth="yes"/>
			<point x="479" y="32"/>
			<point x="602" y="155"/>
			<point x="602" y="330" type="curve" smooth="yes"/>
			<point x="602" y="505"/>
			<point x="479" y="628"/>
			<point x="300" y="628" type="curve" smooth="yes"/>
			<point x="121" y="628"/>
			<point x="-2" y="505"/>
			<point x="-2" y="330" type="curve" smooth="yes"/>
			<point x="-2" y="155"/>
			<point x="121" y="32"/>
		</contour>
		<contour>
			<point x="300" y="124" type="curve" smooth="yes"/>
			<point x="181" y="124"/>
			<point x="100" y="207"/>
			<point x="100" y="330" type="curve" smooth="yes"/>
			<point x="100" y="453"/>
			<point x="181" y="536"/>
			<point x="300" y="536" type="curve" smooth="yes"/>
			<point x="419" y="536"/>
			<point x="500" y="453"/>
			<point x="500" y="330" type="curve" smooth="yes"/>
			<point x="500" y="207"/>
			<point x="419" y="124"/>
		</contour>
		<contour>
			<point x="250" y="96" type="line"/>
			<point x="350" y="96" type="line"/>
			<point x="350" y="282" type="line"/>
			<point x="530" y="282" type="line"/>
			<point x="530" y="378" type="line"/>
			<point x="350" y="378" type="line"/>
			<point x="350" y="564" type="line"/>
			<point x="250" y="564" type="line"/>
			<point x="250" y="378" type="line"/>
			<point x="70" y="378" type="line"/>
			<point x="70" y="282" type="line"/>
			<point x="250" y="282" type="line"/>
		</contour>
	</outline>
</glyph>
<glyph name="eighthnote" format="2">
	<unicode hex="266A"/>
	<advance width="532"/>
	<outline>
		<contour>
			<point x="122" y="-30" type="curve" smooth="yes"/>
			<point x="246" y="-30"/>
			<point x="320" y="42"/>
			<point x="320" y="176" type="curve" smooth="yes"/>
			<point x="320" y="528" type="line"/>
			<point x="384" y="506"/>
			<point x="422" y="446"/>
			<point x="422" y="388" type="curve" smooth="yes"/>
			<point x="422" y="352"/>
			<point x="418" y="326"/>
			<point x="408" y="296" type="curve"/>
			<point x="458" y="274" type="line"/>
			<point x="484" y="310"/>
			<point x="510" y="368"/>
			<point x="510" y="426" type="curve" smooth="yes"/>
			<point x="510" y="506"/>
			<point x="478" y="564"/>
			<point x="388" y="628" type="curve" smooth="yes"/>
			<point x="338" y="662"/>
			<point x="330" y="670"/>
			<point x="318" y="694" type="curve"/>
			<point x="234" y="694" type="line"/>
			<point x="234" y="182" type="line"/>
			<point x="226" y="188"/>
			<point x="204" y="194"/>
			<point x="178" y="194" type="curve" smooth="yes"/>
			<point x="88" y="194"/>
			<point x="12" y="132"/>
			<point x="12" y="58" type="curve" smooth="yes"/>
			<point x="12" y="-4"/>
			<point x="70" y="-30"/>
		</contour>
	</outline>
</glyph>
<glyph name="checkheavy" format="2">
	<unicode hex="2714"/>
	<advance width="596"/>
	<outline>
		<contour>
			<point x="83" y="-20" type="curve"/>
			<point x="288" y="4" type="line"/>
			<point x="432" y="314"/>
			<point x="570" y="480"/>
			<point x="692" y="580" type="curve"/>
			<point x="582" y="694" type="line"/>
			<point x="446" y="576"/>
			<point x="314" y="380"/>
			<point x="208" y="140" type="curve"/>
			<point x="204" y="140" type="line"/>
			<point x="188" y="216"/>
			<point x="174" y="274"/>
			<point x="140" y="362" type="curve"/>
			<point x="-16" y="284" type="line"/>
			<point x="39" y="176"/>
			<point x="64" y="96"/>
		</contour>
	</outline>
</glyph>
<glyph name="quoterightheavy" format="2">
	<unicode hex="275C"/>
	<advance width="360"/>
	<outline>
		<contour>
			<point x="118" y="214" type="line"/>
			<point x="298" y="266"/>
			<point x="396" y="418"/>
			<point x="396" y="550" type="curve" smooth="yes"/>
			<point x="396" y="642"/>
			<point x="342" y="704"/>
			<point x="250" y="704" type="curve" smooth="yes"/>
			<point x="156" y="704"/>
			<point x="78" y="616"/>
			<point x="78" y="524" type="curve" smooth="yes"/>
			<point x="78" y="438"/>
			<point x="148" y="397"/>
			<point x="203" y="397" type="curve" smooth="yes"/>
			<point x="224" y="397"/>
			<point x="244" y="402"/>
			<point x="262" y="412" type="curve"/>
			<point x="245" y="533" type="line"/>
			<point x="220" y="407" type="line"/>
			<point x="208" y="348"/>
			<point x="160" y="314"/>
			<point x="87" y="292" type="curve"/>
		</contour>
	</outline>
</glyph>
<glyph name="twoemdash" format="2">
	<unicode hex="2E3A"/>
	<advance width="1440"/>
	<outline>
		<contour>
			<point x="34" y="202" type="line"/>
			<point x="1386" y="202" type="line"/>
			<point x="1406" y="304" type="line"/>
			<point x="54" y="304" type="line"/>
		</contour>
	</outline>
</glyph>
<glyph name="Dinsular" format="2">
	<unicode hex="A779"/>
	<advance width="664"/>
	<outline>
		<contour>
			<point x="308" y="-12" type="curve" smooth="yes"/>
			<point x="482" y="-12"/>
			<point x="644" y="124"/>
			<point x="644" y="376" type="curve" smooth="yes"/>
			<point x="644" y="566"/>
			<point x="544" y="650"/>
			<point x="338" y="650" type="curve" smooth="yes"/>
			<point x="106" y="650" type="line"/>
			<point x="82" y="522" type="line"/>
			<point x="219" y="522" type="line"/>
			<point x="219" y="518" type="line"/>
			<point x="146" y="474"/>
			<point x="68" y="356"/>
			<point x="68" y="242" type="curve" smooth="yes"/>
			<point x="68" y="78"/>
			<point x="166" y="-12"/>
		</contour>
		<contour>
			<point x="326" y="126" type="curve" smooth="yes"/>
			<point x="270" y="126"/>
			<point x="236" y="176"/>
			<point x="236" y="268" type="curve" smooth="yes"/>
			<point x="236" y="388"/>
			<point x="316" y="518"/>
			<point x="400" y="518" type="curve" smooth="yes"/>
			<point x="450" y="518"/>
			<point x="480" y="458"/>
			<point x="480" y="366" type="curve" smooth="yes"/>
			<point x="480" y="206"/>
			<point x="396" y="126"/>
		</contour>
	</outline>
	<anchor name="aboveUC" x="410" y="672"/>
	<anchor name="belowLC" x="300" y="-22"/>
</glyph>
<glyph name="Tinsular" format="2">
	<unicode hex="A786"/>
	<advance width="540"/>
	<outline>
		<contour>
			<point x="296" y="-12" type="curve" smooth="yes"/>
			<point x="394" y="-12"/>
			<point x="456" y="28"/>
			<point x="500" y="70" type="curve"/>
			<point x="434" y="170" type="line"/>
			<point x="404" y="144"/>
			<point x="368" y="126"/>
			<point x="326" y="126" type="curve" smooth="yes"/>
			<point x="253" y="126"/>
			<point x="220" y="164"/>
			<point x="220" y="234" type="curve" smooth="yes"/>
			<point x="220" y="364"/>
			<point x="344" y="516"/>
			<point x="470" y="516" type="curve" smooth="yes"/>
			<point x="568" y="516" type="line"/>
			<point x="594" y="650" type="line"/>
			<point x="106" y="650" type="line"/>
			<point x="80" y="522" type="line"/>
			<point x="240" y="522" type="line"/>
			<point x="240" y="518" type="line"/>
			<point x="144" y="454"/>
			<point x="56" y="346"/>
			<point x="56" y="224" type="curve" smooth="yes"/>
			<point x="56" y="74"/>
			<point x="154" y="-12"/>
		</contour>
	</outline>
	<anchor name="aboveUC" x="351" y="672"/>
	<anchor name="belowLC" x="280" y="-22"/>
</glyph>
<glyph name="tinsular" format="2">
	<unicode hex="A787"/>
	<advance width="441"/>
	<outline>
		<contour>
			<point x="232" y="-12" type="curve" smooth="yes"/>
			<point x="289" y="-12"/>
			<point x="342" y="10"/>
			<point x="392" y="48" type="curve"/>
			<point x="326" y="138" type="line"/>
			<point x="308" y="124"/>
			<point x="291" y="116"/>
			<point x="273" y="116" type="curve" smooth="yes"/>
			<point x="230" y="116"/>
			<point x="202" y="147"/>
			<point x="202" y="198" type="curve" smooth="yes"/>
			<point x="202" y="283"/>
			<point x="277" y="376"/>
			<point x="380" y="376" type="curve" smooth="yes"/>
			<point x="438" y="376" type="line"/>
			<point x="462" y="500" type="line"/>
			<point x="140" y="500" type="line"/>
			<point x="66" y="494" type="line"/>
			<point x="42" y="376" type="line"/>
			<point x="158" y="376" type="line"/>
			<point x="158" y="372" type="line"/>
			<point x="84" y="320"/>
			<point x="38" y="232"/>
			<point x="38" y="158" type="curve" smooth="yes"/>
			<point x="38" y="52"/>
			<point x="118" y="-12"/>
		</contour>
	</outline>
	<anchor name="aboveLC" x="260" y="522"/>
	<anchor name="belowLC" x="200" y="-22"/>
</glyph>
<glyph name="C.sups" format="2">
	<unicode hex="A7F2"/>
	<advance width="380"/>
	<outline>
		<contour>
			<point x="268" y="360" type="curve" smooth="yes"/>
			<point x="324" y="360"/>
			<point x="368" y="388"/>
			<point x="398" y="416" type="curve"/>
			<point x="350" y="490" type="line"/>
			<point x="330" y="474"/>
			<point x="306" y="462"/>
			<point x="282" y="462" type="curve" smooth="yes"/>
			<point x="232" y="462"/>
			<point x="210" y="494"/>
			<point x="210" y="548" type="curve" smooth="yes"/>
			<point x="210" y="638"/>
			<point x="264" y="706"/>
			<point x="320" y="706" type="curve" smooth="yes"/>
			<point x="348" y="706"/>
			<point x="366" y="696"/>
			<point x="383" y="674" type="curve"/>
			<point x="446" y="742" type="line"/>
			<point x="420" y="784"/>
			<point x="378" y="808"/>
			<point x="326" y="808" type="curve" smooth="yes"/>
			<point x="198" y="808"/>
			<point x="92" y="698"/>
			<point x="92" y="542" type="curve" smooth="yes"/>
			<point x="92" y="426"/>
			<point x="164" y="360"/>
		</contour>
	</outline>
</glyph>
<glyph name="tshook" format="2">
	<unicode hex="AB67"/>
	<advance width="674"/>
	<outline>
		<contour>
			<point x="392" y="-188" type="curve" smooth="yes"/>
			<point x="420" y="-188"/>
			<point x="442" y="-182"/>
			<point x="464" y="-174" type="curve"/>
			<point x="450" y="-58" type="line"/>
			<point x="438" y="-62"/>
			<point x="434" y="-62"/>
			<point x="424" y="-62" type="curve" smooth="yes"/>
			<point x="398" y="-62"/>
			<point x="384" y="-44"/>
			<point x="384" y="-14" type="curve" smooth="yes"/>
			<point x="384" y="-11"/>
			<point x="384" y="-7"/>
			<point x="385" y="0" type="curve"/>
			<point x="254" y="0" type="line"/>
			<point x="253" y="-16"/>
			<point x="252" y="-31"/>
			<point x="252" y="-48" type="curve" smooth="yes"/>
			<point x="252" y="-126"/>
			<point x="305" y="-188"/>
		</contour>
		<component base="ts"/>
	</outline>
	<anchor name="aboveLC" x="420" y="662"/>
	<anchor name="belowLC" x="330" y="-182"/>
</glyph>
<glyph name="deposeemark" format="2">
	<unicode hex="1F16B"/>
	<advance width="707"/>
	<outline>
		<contour>
			<point x="450" y="360" type="line"/>
			<point x="574" y="360" type="line" smooth="yes"/>
			<point x="688" y="360"/>
			<point x="768" y="428"/>
			<point x="768" y="548" type="curve" smooth="yes"/>
			<point x="768" y="636"/>
			<point x="711" y="676"/>
			<point x="610" y="676" type="curve" smooth="yes"/>
			<point x="514" y="676" type="line"/>
		</contour>
		<contour>
			<point x="568" y="436" type="line"/>
			<point x="600" y="600" type="line"/>
			<point x="615" y="600" type="line" smooth="yes"/>
			<point x="645" y="600"/>
			<point x="664" y="584"/>
			<point x="664" y="538" type="curve" smooth="yes"/>
			<point x="664" y="474"/>
			<point x="630" y="436"/>
			<point x="582" y="436" type="curve" smooth="yes"/>
		</contour>
		<contour>
			<point x="50" y="360" type="line"/>
			<point x="146" y="360" type="line"/>
			<point x="164" y="448" type="line"/>
			<point x="168" y="576" type="line"/>
			<point x="172" y="576" type="line"/>
			<point x="204" y="406" type="line"/>
			<point x="252" y="406" type="line"/>
			<point x="350" y="576" type="line"/>
			<point x="354" y="576" type="line"/>
			<point x="310" y="448" type="line"/>
			<point x="292" y="360" type="line"/>
			<point x="392" y="360" type="line"/>
			<point x="452" y="676" type="line"/>
			<point x="336" y="676" type="line"/>
			<point x="282" y="590" type="line"/>
			<point x="254" y="522" type="line"/>
			<point x="250" y="522" type="line"/>
			<point x="244" y="590" type="line"/>
			<point x="224" y="676" type="line"/>
			<point x="110" y="676" type="line"/>
		</contour>
	</outline>
</glyph>
<glyph name="creativecommons" format="2">
	<unicode hex="1F16D"/>
	<advance width="674"/>
	<outline>
		<contour>
			<point x="298" y="-8" type="curve" smooth="yes"/>
			<point x="516" y="-8"/>
			<point x="676" y="164"/>
			<point x="676" y="378" type="curve" smooth="yes"/>
			<point x="676" y="540"/>
			<point x="564" y="656"/>
			<point x="406" y="656" type="curve" smooth="yes"/>
			<point x="188" y="656"/>
			<point x="28" y="484"/>
			<point x="28" y="270" type="curve" smooth="yes"/>
			<point x="28" y="108"/>
			<point x="140" y="-8"/>
		</contour>
		<contour>
			<point x="304" y="60" type="curve" smooth="yes"/>
			<point x="168" y="60"/>
			<point x="100" y="162"/>
			<point x="100" y="276" type="curve" smooth="yes"/>
			<point x="100" y="450"/>
			<point x="232" y="588"/>
			<point x="400" y="588" type="curve" smooth="yes"/>
			<point x="536" y="588"/>
			<point x="604" y="486"/>
			<point x="604" y="372" type="curve" smooth="yes"/>
			<point x="604" y="198"/>
			<point x="472" y="60"/>
		</contour>
		<contour>
			<point x="226" y="150" type="curve" smooth="yes"/>
			<point x="264" y="150"/>
			<point x="297" y="167"/>
			<point x="318" y="192" type="curve"/>
			<point x="285" y="256" type="line"/>
			<point x="277" y="249"/>
			<point x="271" y="244"/>
			<point x="262" y="244" type="curve" smooth="yes"/>
			<point x="247" y="244"/>
			<point x="239" y="258"/>
			<point x="239" y="284" type="curve" smooth="yes"/>
			<point x="239" y="338"/>
			<point x="264" y="404"/>
			<point x="286" y="404" type="curve" smooth="yes"/>
			<point x="296" y="404"/>
			<point x="300" y="400"/>
			<point x="304" y="394" type="curve"/>
			<point x="366" y="450" type="line"/>
			<point x="356" y="476"/>
			<point x="338" y="498"/>
			<point x="298" y="498" type="curve" smooth="yes"/>
			<point x="212" y="498"/>
			<point x="129" y="396"/>
			<point x="129" y="268" type="curve" smooth="yes"/>
			<point x="129" y="191"/>
			<point x="170" y="150"/>
		</contour>
		<contour>
			<point x="424" y="150" type="curve" smooth="yes"/>
			<point x="462" y="150"/>
			<point x="495" y="167"/>
			<point x="516" y="192" type="curve"/>
			<point x="483" y="256" type="line"/>
			<point x="475" y="249"/>
			<point x="468" y="244"/>
			<point x="460" y="244" type="curve" smooth="yes"/>
			<point x="446" y="244"/>
			<point x="437" y="258"/>
			<point x="437" y="284" type="curve" smooth="yes"/>
			<point x="437" y="338"/>
			<point x="462" y="404"/>
			<point x="484" y="404" type="curve" smooth="yes"/>
			<point x="494" y="404"/>
			<point x="498" y="400"/>
			<point x="502" y="394" type="curve"/>
			<point x="564" y="450" type="line"/>
			<point x="554" y="476"/>
			<point x="536" y="498"/>
			<point x="496" y="498" type="curve" smooth="yes"/>
			<point x="410" y="498"/>
			<point x="327" y="396"/>
			<point x="327" y="268" type="curve" smooth="yes"/>
			<point x="327" y="191"/>
			<point x="368" y="150"/>
		</contour>
	</outline>
</glyph>
<glyph name="publicdomain" format="2">
	<unicode hex="1F16E"/>
	<advance width="674"/>
	<outline>
		<contour>
			<point x="546" y="114" type="line"/>
			<point x="586" y="174" type="line"/>
			<point x="150" y="524" type="line"/>
			<point x="110" y="464" type="line"/>
		</contour>
		<component base="copyright"/>
	</outline>
</glyph>
<glyph name="attribution" format="2">
	<unicode hex="1F16F"/>
	<advance width="674"/>
	<outline>
		<contour>
			<point x="298" y="-8" type="curve" smooth="yes"/>
			<point x="516" y="-8"/>
			<point x="676" y="164"/>
			<point x="676" y="378" type="curve" smooth="yes"/>
			<point x="676" y="540"/>
			<point x="564" y="656"/>
			<point x="406" y="656" type="curve" smooth="yes"/>
			<point x="188" y="656"/>
			<point x="28" y="484"/>
			<point x="28" y="270" type="curve" smooth="yes"/>
			<point x="28" y="108"/>
			<point x="140" y="-8"/>
		</contour>
		<contour>
			<point x="304" y="60" type="curve" smooth="yes"/>
			<point x="168" y="60"/>
			<point x="100" y="162"/>
			<point x="100" y="276" type="curve" smooth="yes"/>
			<point x="100" y="450"/>
			<point x="232" y="588"/>
			<point x="400" y="588" type="curve" smooth="yes"/>
			<point x="536" y="588"/>
			<point x="604" y="486"/>
			<point x="604" y="372" type="curve" smooth="yes"/>
			<point x="604" y="198"/>
			<point x="472" y="60"/>
		</contour>
		<contour>
			<point x="354" y="88" type="line"/>
			<point x="414" y="88" type="line"/>
			<point x="418" y="139"/>
			<point x="422" y="184"/>
			<point x="422" y="251" type="curve" smooth="yes"/>
			<point x="422" y="287"/>
			<point x="411" y="293"/>
			<point x="411" y="304" type="curve" smooth="yes"/>
			<point x="411" y="331"/>
			<point x="428" y="346"/>
			<point x="431" y="376" type="curve"/>
			<point x="391" y="380" type="line"/>
			<point x="400" y="310"/>
			<point x="409" y="280"/>
			<point x="422" y="230" type="curve"/>
			<point x="448" y="230"/>
			<point x="468" y="248"/>
			<point x="468" y="276" type="curve" smooth="yes"/>
			<point x="468" y="311"/>
			<point x="464" y="348"/>
			<point x="456" y="380" type="curve" smooth="yes"/>
			<point x="448" y="409"/>
			<point x="435" y="420"/>
			<point x="412" y="426" type="curve"/>
			<point x="402" y="428"/>
			<point x="380" y="430"/>
			<point x="354" y="430" type="curve" smooth="yes"/>
			<point x="328" y="430"/>
			<point x="306" y="428"/>
			<point x="296" y="426" type="curve"/>
			<point x="273" y="420"/>
			<point x="259" y="408"/>
			<point x="252" y="380" type="curve" smooth="yes"/>
			<point x="244" y="348"/>
			<point x="240" y="310"/>
			<point x="240" y="276" type="curve" smooth="yes"/>
			<point x="240" y="248"/>
			<point x="260" y="230"/>
			<point x="286" y="230" type="curve"/>
			<point x="299" y="280"/>
			<point x="308" y="310"/>
			<point x="317" y="380" type="curve"/>
			<point x="277" y="376" type="line"/>
			<point x="280" y="346"/>
			<point x="297" y="331"/>
			<point x="297" y="304" type="curve" smooth="yes"/>
			<point x="297" y="293"/>
			<point x="286" y="287"/>
			<point x="286" y="251" type="curve" smooth="yes"/>
			<point x="286" y="184"/>
			<point x="290" y="139"/>
			<point x="294" y="88" type="curve"/>
		</contour>
		<contour>
			<point x="354" y="454" type="curve" smooth="yes"/>
			<point x="384" y="454"/>
			<point x="412" y="480"/>
			<point x="412" y="512" type="curve" smooth="yes"/>
			<point x="412" y="546"/>
			<point x="386" y="570"/>
			<point x="354" y="570" type="curve" smooth="yes"/>
			<point x="322" y="570"/>
			<point x="296" y="546"/>
			<point x="296" y="512" type="curve" smooth="yes"/>
			<point x="296" y="480"/>
			<point x="322" y="454"/>
		</contour>
	</outline>
</glyph>
<glyph name="Eopenogonek" format="2">
	<advance width="544"/>
	<outline>
		<contour>
			<point x="222" y="-228" type="curve" smooth="yes"/>
			<point x="268" y="-228"/>
			<point x="318" y="-214"/>
			<point x="350" y="-192" type="curve"/>
			<point x="320" y="-108" type="line"/>
			<point x="312" y="-112"/>
			<point x="302" y="-114"/>
			<point x="292" y="-114" type="curve" smooth="yes"/>
			<point x="274" y="-114"/>
			<point x="258" y="-104"/>
			<point x="258" y="-84" type="curve" smooth="yes"/>
			<point x="258" y="-58"/>
			<point x="274" y="-20"/>
			<point x="338" y="-6" type="curve" smooth="yes"/>
			<point x="420" y="12"/>
			<point x="452" y="32"/>
			<point x="496" y="70" type="curve"/>
			<point x="430" y="170" type="line"/>
			<point x="394" y="142"/>
			<point x="348" y="124"/>
			<point x="294" y="124" type="curve" smooth="yes"/>
			<point x="238" y="124"/>
			<point x="206" y="150"/>
			<point x="206" y="194" type="curve" smooth="yes"/>
			<point x="206" y="240"/>
			<point x="243" y="278"/>
			<point x="314" y="278" type="curve" smooth="yes"/>
			<point x="400" y="278" type="line"/>
			<point x="422" y="392" type="line"/>
			<point x="355" y="392" type="line" smooth="yes"/>
			<point x="296" y="392"/>
			<point x="276" y="417"/>
			<point x="276" y="450" type="curve" smooth="yes"/>
			<point x="276" y="497"/>
			<point x="322" y="526"/>
			<point x="374" y="526" type="curve" smooth="yes"/>
			<point x="418" y="526"/>
			<point x="454" y="512"/>
			<point x="486" y="478" type="curve"/>
			<point x="570" y="568" type="line"/>
			<point x="530" y="628"/>
			<point x="452" y="662"/>
			<point x="374" y="662" type="curve" smooth="yes"/>
			<point x="220" y="662"/>
			<point x="120" y="570"/>
			<point x="120" y="465" type="curve" smooth="yes"/>
			<point x="120" y="412"/>
			<point x="146" y="368"/>
			<point x="196" y="342" type="curve"/>
			<point x="196" y="338" type="line"/>
			<point x="102" y="316"/>
			<point x="32" y="242"/>
			<point x="32" y="155" type="curve" smooth="yes"/>
			<point x="32" y="54"/>
			<point x="120" y="-12"/>
			<point x="268" y="-12" type="curve"/>
			<point x="218" y="2" type="line"/>
			<point x="186" y="-18"/>
			<point x="114" y="-76"/>
			<point x="114" y="-142" type="curve" smooth="yes"/>
			<point x="114" y="-197"/>
			<point x="160" y="-228"/>
		</contour>
	</outline>
	<anchor name="aboveUC" x="380" y="672"/>
</glyph>
<glyph name="Iotalatin.a" format="2">
	<advance width="382"/>
	<outline>
		<contour>
			<point x="98" y="516" type="line"/>
			<point x="388" y="516" type="line"/>
			<point x="416" y="650" type="line"/>
			<point x="126" y="650" type="line"/>
		</contour>
		<component base="Iotalatin" xOffset="34"/>
	</outline>
	<anchor name="aboveUC" x="270" y="672"/>
	<anchor name="belowLC" x="170" y="-22"/>
</glyph>
<glyph name="Istroke.a" format="2">
	<advance width="382"/>
	<outline>
		<contour>
			<point x="48" y="284" type="line"/>
			<point x="348" y="284" type="line"/>
			<point x="368" y="386" type="line"/>
			<point x="160" y="386" type="line"/>
			<point x="68" y="380" type="line"/>
		</contour>
		<component base="I.a"/>
	</outline>
	<anchor name="aboveUC" x="280" y="672"/>
	<anchor name="belowLC" x="140" y="-22"/>
</glyph>
<glyph name="Kabashkir.a" format="2">
	<advance width="726"/>
	<outline>
		<contour>
			<point x="430" y="650" type="line"/>
			<point x="106" y="650" type="line"/>
			<point x="80" y="516" type="line"/>
			<point x="244" y="516" type="line"/>
		</contour>
		<component base="Ka.a" xOffset="114"/>
	</outline>
</glyph>
<glyph name="THEY" format="2">
	<advance width="1060"/>
	<outline>
		<contour>
			<point x="405" y="-12" type="curve" smooth="yes"/>
			<point x="548" y="-12"/>
			<point x="631" y="92"/>
			<point x="668" y="280" type="curve" smooth="yes"/>
			<point x="698" y="429"/>
			<point x="683" y="546"/>
			<point x="689" y="650" type="curve"/>
			<point x="665" y="656"/>
			<point x="626" y="662"/>
			<point x="593" y="662" type="curve" smooth="yes"/>
			<point x="311" y="662"/>
			<point x="137" y="476"/>
			<point x="85" y="212" type="curve" smooth="yes"/>
			<point x="65" y="114"/>
			<point x="77" y="29"/>
			<point x="94" y="-8" type="curve"/>
			<point x="244" y="40" type="line"/>
			<point x="235" y="96"/>
			<point x="236" y="124"/>
			<point x="252" y="202" type="curve" smooth="yes"/>
			<point x="289" y="388"/>
			<point x="425" y="522"/>
			<point x="519" y="522" type="curve"/>
			<point x="519" y="458"/>
			<point x="520" y="385"/>
			<point x="491" y="238" type="curve" smooth="yes"/>
			<point x="472" y="144"/>
			<point x="457" y="118"/>
			<point x="431" y="118" type="curve" smooth="yes"/>
			<point x="415" y="118"/>
			<point x="406" y="128"/>
			<point x="410" y="148" type="curve" smooth="yes"/>
			<point x="421" y="206"/>
			<point x="482" y="240"/>
			<point x="643" y="268" type="curve" smooth="yes"/>
			<point x="713" y="280" type="line" smooth="yes"/>
			<point x="1001" y="330"/>
			<point x="1097" y="378"/>
			<point x="1123" y="508" type="curve" smooth="yes"/>
			<point x="1142" y="604"/>
			<point x="1104" y="662"/>
			<point x="1017" y="662" type="curve" smooth="yes"/>
			<point x="891" y="662"/>
			<point x="755" y="538"/>
			<point x="707" y="300" type="curve" smooth="yes"/>
			<point x="664" y="85"/>
			<point x="744" y="-12"/>
			<point x="894" y="-12" type="curve" smooth="yes"/>
			<point x="952" y="-12"/>
			<point x="1001" y="12"/>
			<point x="1041" y="48" type="curve"/>
			<point x="999" y="158" type="line"/>
			<point x="975" y="142"/>
			<point x="960" y="136"/>
			<point x="939" y="136" type="curve" smooth="yes"/>
			<point x="883" y="136"/>
			<point x="854" y="190"/>
			<point x="880" y="322" type="curve" smooth="yes"/>
			<point x="911" y="474"/>
			<point x="953" y="532"/>
			<point x="984" y="532" type="curve" smooth="yes"/>
			<point x="1001" y="532"/>
			<point x="1007" y="522"/>
			<point x="1004" y="506" type="curve" smooth="yes"/>
			<point x="995" y="462"/>
			<point x="957" y="446"/>
			<point x="746" y="410" type="curve" smooth="yes"/>
			<point x="677" y="398" type="line" smooth="yes"/>
			<point x="464" y="361"/>
			<point x="319" y="288"/>
			<point x="290" y="144" type="curve" smooth="yes"/>
			<point x="271" y="50"/>
			<point x="320" y="-12"/>
		</contour>
	</outline>
</glyph>
<glyph name="Zhe.a" format="2">
	<advance width="876"/>
	<outline>
		<contour>
			<point x="-34" y="0" type="line"/>
			<point x="140" y="0" type="line"/>
			<point x="306" y="268" type="line"/>
			<point x="370" y="268" type="line"/>
			<point x="316" y="0" type="line"/>
			<point x="472" y="0" type="line"/>
			<point x="526" y="268" type="line"/>
			<point x="590" y="268" type="line"/>
			<point x="656" y="0" type="line"/>
			<point x="822" y="0" type="line"/>
			<point x="718" y="336" type="line"/>
			<point x="916" y="650" type="line"/>
			<point x="744" y="650" type="line"/>
			<point x="606" y="396" type="line"/>
			<point x="550" y="396" type="line"/>
			<point x="602" y="650" type="line"/>
			<point x="446" y="650" type="line"/>
			<point x="396" y="396" type="line"/>
			<point x="340" y="396" type="line"/>
			<point x="294" y="650" type="line"/>
			<point x="132" y="650" type="line"/>
			<point x="210" y="356" type="line"/>
		</contour>
	</outline>
	<anchor name="aboveUC" x="530" y="672"/>
</glyph>
<glyph name="a.supa" format="2">
	<advance width="350"/>
	<outline>
		<contour>
			<point x="162" y="360" type="curve" smooth="yes"/>
			<point x="196" y="360"/>
			<point x="230" y="378"/>
			<point x="250" y="400" type="curve"/>
			<point x="254" y="400" type="line"/>
			<point x="258" y="368" type="line"/>
			<point x="346" y="368" type="line"/>
			<point x="382" y="544" type="line" smooth="yes"/>
			<point x="386" y="564"/>
			<point x="388" y="580"/>
			<point x="388" y="594" type="curve" smooth="yes"/>
			<point x="388" y="672"/>
			<point x="344" y="708"/>
			<point x="264" y="708" type="curve" smooth="yes"/>
			<point x="218" y="708"/>
			<point x="172" y="693"/>
			<point x="130" y="674" type="curve"/>
			<point x="164" y="600" type="line"/>
			<point x="196" y="614"/>
			<point x="213" y="622"/>
			<point x="237" y="622" type="curve" smooth="yes"/>
			<point x="261" y="622"/>
			<point x="276" y="611"/>
			<point x="276" y="582" type="curve" smooth="yes"/>
			<point x="276" y="580"/>
			<point x="276" y="579"/>
			<point x="276" y="576" type="curve"/>
			<point x="167" y="573"/>
			<point x="78" y="540"/>
			<point x="78" y="444" type="curve" smooth="yes"/>
			<point x="78" y="394"/>
			<point x="114" y="360"/>
		</contour>
		<contour>
			<point x="214" y="442" type="curve" smooth="yes"/>
			<point x="196" y="442"/>
			<point x="186" y="452"/>
			<point x="186" y="466" type="curve" smooth="yes"/>
			<point x="186" y="489"/>
			<point x="206" y="509"/>
			<point x="264" y="510" type="curve"/>
			<point x="254" y="463" type="line"/>
			<point x="242" y="452"/>
			<point x="230" y="442"/>
		</contour>
	</outline>
</glyph>
<glyph name="acutecmb.cap" format="2">
	<outline>
		<contour>
			<point x="30" y="700" type="line"/>
			<point x="160" y="700" type="line"/>
			<point x="370" y="842" type="line"/>
			<point x="360" y="860" type="line"/>
			<point x="170" y="860" type="line"/>
		</contour>
	</outline>
	<anchor name="_aboveUC" x="130" y="672"/>
</glyph>
<glyph name="asperacutecmb" format="2">
	<outline>
		<contour>
			<point x="53" y="566" type="curve"/>
			<point x="78" y="632" type="line"/>
			<point x="65" y="635"/>
			<point x="54" y="644"/>
			<point x="54" y="660" type="curve" smooth="yes"/>
			<point x="54" y="684"/>
			<point x="68" y="706"/>
			<point x="126" y="712" type="curve"/>
			<point x="136" y="806" type="line"/>
			<point x="-8" y="800"/>
			<point x="-58" y="732"/>
			<point x="-58" y="664" type="curve" smooth="yes"/>
			<point x="-58" y="600"/>
			<point x="-2" y="574"/>
		</contour>
		<contour>
			<point x="130" y="570" type="line"/>
			<point x="210" y="570" type="line"/>
			<point x="340" y="782" type="line"/>
			<point x="330" y="800" type="line"/>
			<point x="200" y="800" type="line"/>
		</contour>
	</outline>
	<anchor name="_aboveLC" x="100" y="522"/>
</glyph>
<glyph name="aspertildecmb" format="2">
	<outline>
		<contour>
			<point x="140" y="564" type="curve"/>
			<point x="162" y="616" type="line"/>
			<point x="148" y="618"/>
			<point x="140" y="623"/>
			<point x="140" y="632" type="curve" smooth="yes"/>
			<point x="140" y="646"/>
			<point x="152" y="664"/>
			<point x="204" y="668" type="curve"/>
			<point x="212" y="736" type="line"/>
			<point x="82" y="736"/>
			<point x="38" y="695"/>
			<point x="38" y="638" type="curve" smooth="yes"/>
			<point x="38" y="596"/>
			<point x="76" y="570"/>
		</contour>
		<contour>
			<point x="210" y="750" type="curve" smooth="yes"/>
			<point x="260" y="750"/>
			<point x="300" y="782"/>
			<point x="320" y="866" type="curve"/>
			<point x="242" y="878" type="line"/>
			<point x="234" y="852"/>
			<point x="220" y="842"/>
			<point x="206" y="842" type="curve" smooth="yes"/>
			<point x="176" y="842"/>
			<point x="156" y="884"/>
			<point x="102" y="884" type="curve" smooth="yes"/>
			<point x="52" y="884"/>
			<point x="12" y="852"/>
			<point x="-8" y="768" type="curve"/>
			<point x="70" y="756" type="line"/>
			<point x="78" y="782"/>
			<point x="92" y="792"/>
			<point x="106" y="792" type="curve" smooth="yes"/>
			<point x="136" y="792"/>
			<point x="156" y="750"/>
		</contour>
	</outline>
	<anchor name="_aboveLC" x="100" y="522"/>
</glyph>
<glyph name="astroke.a" format="2">
	<advance width="522"/>
	<outline>
		<contour>
			<point x="166" y="-68" type="line"/>
			<point x="424" y="566" type="line"/>
			<point x="380" y="580" type="line"/>
			<point x="122" y="-54" type="line"/>
		</contour>
		<component base="a.a"/>
	</outline>
	<anchor name="aboveLC" x="310" y="522"/>
	<anchor name="belowLC" x="220" y="-22"/>
</glyph>
<glyph name="astroke.b" format="2">
	<advance width="566"/>
	<outline>
		<contour>
			<point x="170" y="-68" type="line"/>
			<point x="428" y="566" type="line"/>
			<point x="384" y="580" type="line"/>
			<point x="126" y="-54" type="line"/>
		</contour>
		<component base="a.b"/>
	</outline>
	<anchor name="aboveLC" x="320" y="522"/>
	<anchor name="belowLC" x="240" y="-22"/>
</glyph>
<glyph name="breveacute" format="2">
	<outline>
		<contour>
			<point x="112" y="572" type="curve" smooth="yes"/>
			<point x="234" y="572"/>
			<point x="296" y="638"/>
			<point x="314" y="732" type="curve"/>
			<point x="232" y="748" type="line"/>
			<point x="216" y="702"/>
			<point x="184" y="668"/>
			<point x="130" y="668" type="curve" smooth="yes"/>
			<point x="80" y="668"/>
			<point x="54" y="694"/>
			<point x="54" y="748" type="curve"/>
			<point x="-36" y="732" type="line"/>
			<point x="-36" y="624"/>
			<point x="22" y="572"/>
		</contour>
		<contour>
			<point x="90" y="740" type="line"/>
			<point x="170" y="740" type="line"/>
			<point x="290" y="862" type="line"/>
			<point x="280" y="880" type="line"/>
			<point x="160" y="880" type="line"/>
		</contour>
	</outline>
	<anchor name="_aboveLC" x="100" y="522"/>
</glyph>
<glyph name="brevetilde" format="2">
	<outline>
		<contour>
			<point x="112" y="572" type="curve" smooth="yes"/>
			<point x="220" y="572"/>
			<point x="275" y="629"/>
			<point x="294" y="698" type="curve"/>
			<point x="214" y="712" type="line"/>
			<point x="204" y="688"/>
			<point x="178" y="666"/>
			<point x="126" y="666" type="curve" smooth="yes"/>
			<point x="77" y="666"/>
			<point x="60" y="686"/>
			<point x="56" y="712" type="curve"/>
			<point x="-28" y="698" type="line"/>
			<point x="-28" y="628"/>
			<point x="24" y="572"/>
		</contour>
		<contour>
			<point x="216" y="748" type="curve" smooth="yes"/>
			<point x="264" y="748"/>
			<point x="306" y="782"/>
			<point x="326" y="868" type="curve"/>
			<point x="252" y="876" type="line"/>
			<point x="242" y="850"/>
			<point x="230" y="840"/>
			<point x="208" y="840" type="curve" smooth="yes"/>
			<point x="174" y="840"/>
			<point x="154" y="882"/>
			<point x="94" y="882" type="curve" smooth="yes"/>
			<point x="46" y="882"/>
			<point x="4" y="848"/>
			<point x="-16" y="762" type="curve"/>
			<point x="58" y="754" type="line"/>
			<point x="68" y="780"/>
			<point x="80" y="790"/>
			<point x="102" y="790" type="curve" smooth="yes"/>
			<point x="136" y="790"/>
			<point x="156" y="748"/>
		</contour>
	</outline>
	<anchor name="_aboveLC" x="100" y="522"/>
</glyph>
<glyph name="candrabinducmb.cap" format="2">
	<outline>
		<contour>
			<point x="136" y="694" type="curve" smooth="yes"/>
			<point x="248" y="694"/>
			<point x="324" y="738"/>
			<point x="356" y="834" type="curve"/>
			<point x="274" y="850" type="line"/>
			<point x="250" y="802"/>
			<point x="205" y="782"/>
			<point x="153" y="782" type="curve" smooth="yes"/>
			<point x="106" y="782"/>
			<point x="66" y="802"/>
			<point x="60" y="850" type="curve"/>
			<point x="-24" y="834" type="line"/>
			<point x="-28" y="738"/>
			<point x="32" y="694"/>
		</contour>
		<contour>
			<point x="166" y="848" type="curve" smooth="yes"/>
			<point x="214" y="848"/>
			<point x="252" y="882"/>
			<point x="252" y="930" type="curve" smooth="yes"/>
			<point x="252" y="972"/>
			<point x="216" y="996"/>
			<point x="178" y="996" type="curve" smooth="yes"/>
			<point x="130" y="996"/>
			<point x="92" y="958"/>
			<point x="92" y="914" type="curve" smooth="yes"/>
			<point x="92" y="870"/>
			<point x="128" y="848"/>
		</contour>
	</outline>
	<anchor name="_aboveUC" x="130" y="672"/>
</glyph>
<glyph name="caroncmb.cap" format="2">
	<outline>
		<contour>
			<point x="60" y="700" type="line"/>
			<point x="210" y="700" type="line"/>
			<point x="360" y="860" type="line"/>
			<point x="230" y="860" type="line"/>
			<point x="148" y="802" type="line"/>
			<point x="144" y="802" type="line"/>
			<point x="90" y="860" type="line"/>
			<point x="-40" y="860" type="line"/>
		</contour>
	</outline>
	<anchor name="_aboveUC" x="130" y="672"/>
	<anchor name="aboveUC" x="160" y="852"/>
</glyph>
<glyph name="circumflexacute" format="2">
	<outline>
		<contour>
			<point x="-70" y="570" type="line"/>
			<point x="47" y="570" type="line"/>
			<point x="132" y="646" type="line"/>
			<point x="135" y="646" type="line"/>
			<point x="182" y="570" type="line"/>
			<point x="290" y="570" type="line"/>
			<point x="218" y="740" type="line"/>
			<point x="74" y="740" type="line"/>
		</contour>
		<contour>
			<point x="250" y="680" type="line"/>
			<point x="330" y="680" type="line"/>
			<point x="450" y="802" type="line"/>
			<point x="440" y="820" type="line"/>
			<point x="320" y="820" type="line"/>
		</contour>
	</outline>
	<anchor name="_aboveLC" x="100" y="522"/>
</glyph>
<glyph name="circumflexcmb.cap" format="2">
	<outline>
		<contour>
			<point x="-60" y="700" type="line"/>
			<point x="70" y="700" type="line"/>
			<point x="152" y="758" type="line"/>
			<point x="156" y="758" type="line"/>
			<point x="210" y="700" type="line"/>
			<point x="340" y="700" type="line"/>
			<point x="240" y="860" type="line"/>
			<point x="90" y="860" type="line"/>
		</contour>
	</outline>
	<anchor name="_aboveUC" x="130" y="672"/>
</glyph>
<glyph name="circumflexhoi" format="2">
	<outline>
		<contour>
			<point x="272" y="650" type="line"/>
			<point x="352" y="658"/>
			<point x="412" y="702"/>
			<point x="412" y="764" type="curve" smooth="yes"/>
			<point x="412" y="818"/>
			<point x="368" y="850"/>
			<point x="266" y="850" type="curve"/>
			<point x="244" y="758" type="line"/>
			<point x="288" y="754"/>
			<point x="300" y="746"/>
			<point x="300" y="732" type="curve" smooth="yes"/>
			<point x="300" y="718"/>
			<point x="288" y="708"/>
			<point x="270" y="706" type="curve"/>
		</contour>
		<contour>
			<point x="-70" y="570" type="line"/>
			<point x="47" y="570" type="line"/>
			<point x="132" y="646" type="line"/>
			<point x="135" y="646" type="line"/>
			<point x="182" y="570" type="line"/>
			<point x="290" y="570" type="line"/>
			<point x="218" y="740" type="line"/>
			<point x="74" y="740" type="line"/>
		</contour>
	</outline>
	<anchor name="_aboveLC" x="100" y="522"/>
</glyph>
<glyph name="commaturnedabovecmb.cap" format="2">
	<outline>
		<contour>
			<point x="158" y="694" type="curve" smooth="yes"/>
			<point x="206" y="694"/>
			<point x="244" y="720"/>
			<point x="244" y="764" type="curve" smooth="yes"/>
			<point x="244" y="796"/>
			<point x="216" y="816"/>
			<point x="186" y="816" type="curve" smooth="yes"/>
			<point x="168" y="816"/>
			<point x="158" y="814"/>
			<point x="150" y="809" type="curve"/>
			<point x="160" y="831"/>
			<point x="183" y="841"/>
			<point x="240" y="848" type="curve"/>
			<point x="226" y="908" type="line"/>
			<point x="118" y="904"/>
			<point x="66" y="840"/>
			<point x="66" y="782" type="curve" smooth="yes"/>
			<point x="66" y="730"/>
			<point x="100" y="694"/>
		</contour>
	</outline>
	<anchor name="_aboveUC" x="130" y="672"/>
	<guideline x="124" y="643" angle="79" identifier="YaRJUXDQsr"/>
</glyph>
<glyph name="dieresiscaron.cap" format="2">
	<outline>
		<contour>
			<point x="24" y="696" type="curve" smooth="yes"/>
			<point x="68" y="696"/>
			<point x="100" y="736"/>
			<point x="100" y="774" type="curve" smooth="yes"/>
			<point x="100" y="810"/>
			<point x="74" y="834"/>
			<point x="40" y="834" type="curve" smooth="yes"/>
			<point x="-4" y="834"/>
			<point x="-36" y="794"/>
			<point x="-36" y="754" type="curve" smooth="yes"/>
			<point x="-36" y="718"/>
			<point x="-10" y="696"/>
		</contour>
		<contour>
			<point x="258" y="696" type="curve" smooth="yes"/>
			<point x="302" y="696"/>
			<point x="334" y="736"/>
			<point x="334" y="774" type="curve" smooth="yes"/>
			<point x="334" y="810"/>
			<point x="308" y="834"/>
			<point x="274" y="834" type="curve" smooth="yes"/>
			<point x="230" y="834"/>
			<point x="198" y="794"/>
			<point x="198" y="754" type="curve" smooth="yes"/>
			<point x="198" y="718"/>
			<point x="224" y="696"/>
		</contour>
		<contour>
			<point x="94" y="856" type="line"/>
			<point x="229" y="856" type="line"/>
			<point x="360" y="980" type="line"/>
			<point x="243" y="980" type="line"/>
			<point x="170" y="936" type="line"/>
			<point x="166" y="936" type="line"/>
			<point x="117" y="980" type="line"/>
			<point x="0" y="980" type="line"/>
		</contour>
	</outline>
	<anchor name="_aboveUC" x="130" y="672"/>
</glyph>
<glyph name="emdash.sups" format="2">
	<advance width="540"/>
	<outline>
		<contour>
			<point x="100" y="530" type="line"/>
			<point x="558" y="530" type="line"/>
			<point x="572" y="602" type="line"/>
			<point x="114" y="602" type="line"/>
		</contour>
	</outline>
</glyph>
<glyph name="endash.sups" format="2">
	<advance width="336"/>
	<outline>
		<contour>
			<point x="100" y="530" type="line"/>
			<point x="352" y="530" type="line"/>
			<point x="366" y="602" type="line"/>
			<point x="114" y="602" type="line"/>
		</contour>
	</outline>
</glyph>
<glyph name="eogonek.d" format="2">
	<advance width="502"/>
	<outline>
		<contour>
			<point x="196" y="-220" type="curve" smooth="yes"/>
			<point x="246" y="-220"/>
			<point x="288" y="-204"/>
			<point x="320" y="-182" type="curve"/>
			<point x="290" y="-110" type="line"/>
			<point x="282" y="-114"/>
			<point x="274" y="-118"/>
			<point x="260" y="-118" type="curve" smooth="yes"/>
			<point x="242" y="-118"/>
			<point x="228" y="-108"/>
			<point x="228" y="-90" type="curve" smooth="yes"/>
			<point x="228" y="-52"/>
			<point x="254" y="-24"/>
			<point x="316" y="-6" type="curve" smooth="yes"/>
			<point x="358" y="6"/>
			<point x="385" y="18"/>
			<point x="420" y="44" type="curve"/>
			<point x="368" y="138" type="line"/>
			<point x="346" y="122"/>
			<point x="308" y="110"/>
			<point x="280" y="110" type="curve" smooth="yes"/>
			<point x="222" y="110"/>
			<point x="174" y="134"/>
			<point x="174" y="216" type="curve" smooth="yes"/>
			<point x="174" y="354"/>
			<point x="246" y="390"/>
			<point x="288" y="390" type="curve" smooth="yes"/>
			<point x="330" y="390"/>
			<point x="344" y="364"/>
			<point x="344" y="330" type="curve" smooth="yes"/>
			<point x="344" y="321"/>
			<point x="342" y="313"/>
			<point x="340" y="306" type="curve"/>
			<point x="158" y="306" type="line"/>
			<point x="146" y="202" type="line"/>
			<point x="448" y="202" type="line"/>
			<point x="456" y="216"/>
			<point x="474" y="272"/>
			<point x="474" y="322" type="curve" smooth="yes"/>
			<point x="474" y="426"/>
			<point x="430" y="512"/>
			<point x="308" y="512" type="curve" smooth="yes"/>
			<point x="174" y="512"/>
			<point x="26" y="388"/>
			<point x="26" y="204" type="curve" smooth="yes"/>
			<point x="26" y="70"/>
			<point x="112" y="-12"/>
			<point x="246" y="-12" type="curve"/>
			<point x="198" y="0" type="line"/>
			<point x="150" y="-28"/>
			<point x="100" y="-80"/>
			<point x="100" y="-136" type="curve" smooth="yes"/>
			<point x="100" y="-190"/>
			<point x="140" y="-220"/>
		</contour>
	</outline>
	<anchor name="aboveLC" x="320" y="522"/>
	<anchor name="belowLC" x="210" y="-182"/>
</glyph>
<glyph name="five.dnom" format="2">
	<advance width="364"/>
	<outline>
		<contour>
			<point x="144" y="-12" type="curve" smooth="yes"/>
			<point x="231" y="-12"/>
			<point x="306" y="52"/>
			<point x="306" y="136" type="curve" smooth="yes"/>
			<point x="306" y="206"/>
			<point x="260" y="250"/>
			<point x="198" y="250" type="curve" smooth="yes"/>
			<point x="193" y="250"/>
			<point x="180" y="250"/>
			<point x="168" y="246" type="curve"/>
			<point x="182" y="292" type="line"/>
			<point x="324" y="292" type="line"/>
			<point x="342" y="390" type="line"/>
			<point x="110" y="390" type="line"/>
			<point x="56" y="194" type="line"/>
			<point x="96" y="156" type="line"/>
			<point x="116" y="168"/>
			<point x="135" y="172"/>
			<point x="148" y="172" type="curve" smooth="yes"/>
			<point x="174" y="172"/>
			<point x="192" y="158"/>
			<point x="192" y="130" type="curve" smooth="yes"/>
			<point x="192" y="102"/>
			<point x="168" y="80"/>
			<point x="136" y="80" type="curve" smooth="yes"/>
			<point x="110" y="80"/>
			<point x="88" y="94"/>
			<point x="70" y="122" type="curve"/>
			<point x="-4" y="68" type="line"/>
			<point x="26" y="20"/>
			<point x="74" y="-12"/>
		</contour>
	</outline>
</glyph>
<glyph name="four.cap" format="2">
	<advance width="520"/>
	<outline>
		<contour>
			<point x="384" y="0" type="line"/>
			<point x="415" y="154" type="line"/>
			<point x="484" y="154" type="line"/>
			<point x="508" y="276" type="line"/>
			<point x="439" y="276" type="line"/>
			<point x="514" y="650" type="line"/>
			<point x="320" y="650" type="line"/>
			<point x="32" y="266" type="line"/>
			<point x="10" y="154" type="line"/>
			<point x="269" y="154" type="line"/>
			<point x="238" y="0" type="line"/>
		</contour>
		<contour>
			<point x="186" y="276" type="line"/>
			<point x="270" y="396" type="line" smooth="yes"/>
			<point x="297" y="434"/>
			<point x="318" y="476"/>
			<point x="342" y="516" type="curve"/>
			<point x="346" y="516" type="line"/>
			<point x="336" y="468"/>
			<point x="322" y="418"/>
			<point x="312" y="370" type="curve" smooth="yes"/>
			<point x="293" y="276" type="line"/>
		</contour>
	</outline>
</glyph>
<glyph name="g.a" format="2">
	<advance width="512"/>
	<outline>
		<contour>
			<point x="174" y="-206" type="curve" smooth="yes"/>
			<point x="300" y="-206"/>
			<point x="440" y="-147"/>
			<point x="440" y="-24" type="curve" smooth="yes"/>
			<point x="440" y="39"/>
			<point x="400" y="75"/>
			<point x="248" y="95" type="curve" smooth="yes"/>
			<point x="180" y="103"/>
			<point x="172" y="110"/>
			<point x="172" y="132" type="curve" smooth="yes"/>
			<point x="172" y="144"/>
			<point x="180" y="156"/>
			<point x="190" y="162" type="curve"/>
			<point x="200" y="160"/>
			<point x="218" y="158"/>
			<point x="236" y="158" type="curve" smooth="yes"/>
			<point x="364" y="158"/>
			<point x="456" y="230"/>
			<point x="456" y="342" type="curve" smooth="yes"/>
			<point x="456" y="356"/>
			<point x="456" y="368"/>
			<point x="452" y="382" type="curve"/>
			<point x="518" y="382" type="line"/>
			<point x="540" y="500" type="line"/>
			<point x="350" y="500" type="line"/>
			<point x="328" y="508"/>
			<point x="306" y="512"/>
			<point x="278" y="512" type="curve" smooth="yes"/>
			<point x="160" y="512"/>
			<point x="60" y="430"/>
			<point x="60" y="316" type="curve" smooth="yes"/>
			<point x="60" y="266"/>
			<point x="82" y="230"/>
			<point x="116" y="200" type="curve"/>
			<point x="116" y="196" type="line"/>
			<point x="74" y="176"/>
			<point x="42" y="140"/>
			<point x="42" y="98" type="curve" smooth="yes"/>
			<point x="42" y="69"/>
			<point x="53" y="46"/>
			<point x="69" y="30" type="curve"/>
			<point x="69" y="26" type="line"/>
			<point x="11" y="2"/>
			<point x="-30" y="-34"/>
			<point x="-30" y="-88" type="curve" smooth="yes"/>
			<point x="-30" y="-192"/>
			<point x="98" y="-206"/>
		</contour>
		<contour>
			<point x="252" y="254" type="curve" smooth="yes"/>
			<point x="224" y="254"/>
			<point x="206" y="274"/>
			<point x="206" y="312" type="curve" smooth="yes"/>
			<point x="206" y="356"/>
			<point x="232" y="404"/>
			<point x="274" y="404" type="curve" smooth="yes"/>
			<point x="302" y="404"/>
			<point x="320" y="384"/>
			<point x="320" y="346" type="curve" smooth="yes"/>
			<point x="320" y="302"/>
			<point x="294" y="254"/>
		</contour>
		<contour>
			<point x="190" y="-108" type="curve" smooth="yes"/>
			<point x="130" y="-108"/>
			<point x="106" y="-92"/>
			<point x="106" y="-60" type="curve" smooth="yes"/>
			<point x="106" y="-38"/>
			<point x="125" y="-23"/>
			<point x="144" y="-10" type="curve"/>
			<point x="168" y="-16"/>
			<point x="188" y="-20"/>
			<point x="202" y="-22" type="curve" smooth="yes"/>
			<point x="242" y="-28"/>
			<point x="282" y="-36"/>
			<point x="282" y="-64" type="curve" smooth="yes"/>
			<point x="282" y="-92"/>
			<point x="244" y="-108"/>
		</contour>
	</outline>
	<anchor name="aboveLC" x="300" y="522"/>
	<anchor name="belowLC" x="190" y="-182"/>
</glyph>
<glyph name="g.supa" format="2">
	<advance width="345"/>
	<outline>
		<contour>
			<point x="100" y="578" type="curve" smooth="yes"/>
			<point x="100" y="545"/>
			<point x="115" y="521"/>
			<point x="138" y="501" type="curve"/>
			<point x="138" y="498" type="line"/>
			<point x="110" y="485"/>
			<point x="88" y="460"/>
			<point x="88" y="432" type="curve" smooth="yes"/>
			<point x="88" y="413"/>
			<point x="95" y="397"/>
			<point x="106" y="387" type="curve"/>
			<point x="106" y="384" type="line"/>
			<point x="67" y="368"/>
			<point x="40" y="345"/>
			<point x="40" y="310" type="curve" smooth="yes"/>
			<point x="40" y="240"/>
			<point x="123" y="231"/>
			<point x="172" y="231" type="curve" smooth="yes"/>
			<point x="259" y="231"/>
			<point x="358" y="270"/>
			<point x="358" y="352" type="curve" smooth="yes"/>
			<point x="358" y="394"/>
			<point x="331" y="418"/>
			<point x="228" y="431" type="curve" smooth="yes"/>
			<point x="182" y="437"/>
			<point x="177" y="442"/>
			<point x="177" y="456" type="curve" smooth="yes"/>
			<point x="177" y="464"/>
			<point x="183" y="471"/>
			<point x="189" y="475" type="curve"/>
			<point x="195" y="474"/>
			<point x="208" y="473"/>
			<point x="219" y="473" type="curve" smooth="yes"/>
			<point x="306" y="473"/>
			<point x="367" y="519"/>
			<point x="367" y="593" type="curve" smooth="yes"/>
			<point x="367" y="602"/>
			<point x="367" y="609"/>
			<point x="365" y="618" type="curve"/>
			<point x="408" y="618" type="line"/>
			<point x="423" y="699" type="line"/>
			<point x="295" y="699" type="line"/>
			<point x="280" y="704"/>
			<point x="265" y="707"/>
			<point x="246" y="707" type="curve" smooth="yes"/>
			<point x="167" y="707"/>
			<point x="100" y="653"/>
		</contour>
		<contour>
			<point x="157" y="360" type="curve"/>
			<point x="174" y="356"/>
			<point x="187" y="353"/>
			<point x="196" y="352" type="curve" smooth="yes"/>
			<point x="221" y="349"/>
			<point x="248" y="343"/>
			<point x="248" y="325" type="curve" smooth="yes"/>
			<point x="248" y="307"/>
			<point x="222" y="298"/>
			<point x="183" y="298" type="curve" smooth="yes"/>
			<point x="147" y="298"/>
			<point x="134" y="308"/>
			<point x="134" y="329" type="curve" smooth="yes"/>
			<point x="134" y="342"/>
			<point x="146" y="351"/>
		</contour>
		<contour>
			<point x="244" y="633" type="curve" smooth="yes"/>
			<point x="262" y="633"/>
			<point x="273" y="620"/>
			<point x="273" y="596" type="curve" smooth="yes"/>
			<point x="273" y="568"/>
			<point x="257" y="538"/>
			<point x="230" y="538" type="curve" smooth="yes"/>
			<point x="212" y="538"/>
			<point x="201" y="551"/>
			<point x="201" y="575" type="curve" smooth="yes"/>
			<point x="201" y="603"/>
			<point x="217" y="633"/>
		</contour>
	</outline>
</glyph>
<glyph name="kabashkir.a" format="2">
	<advance width="670"/>
	<outline>
		<contour>
			<point x="332" y="500" type="line"/>
			<point x="66" y="500" type="line"/>
			<point x="42" y="376" type="line"/>
			<point x="210" y="376" type="line"/>
		</contour>
		<component base="ka.a" xOffset="126"/>
	</outline>
</glyph>
<glyph name="lambda.latin" format="2">
	<advance width="518"/>
	<outline>
		<contour>
			<point x="-32" y="0" type="line"/>
			<point x="126" y="0" type="line"/>
			<point x="216" y="204" type="line" smooth="yes"/>
			<point x="235" y="248"/>
			<point x="261" y="308"/>
			<point x="279" y="356" type="curve"/>
			<point x="283" y="356" type="line"/>
			<point x="285" y="310"/>
			<point x="286" y="249"/>
			<point x="290" y="204" type="curve" smooth="yes"/>
			<point x="308" y="0" type="line"/>
			<point x="462" y="0" type="line"/>
			<point x="385" y="520" type="line" smooth="yes"/>
			<point x="365" y="658"/>
			<point x="303" y="708"/>
			<point x="190" y="708" type="curve" smooth="yes"/>
			<point x="170" y="708"/>
			<point x="132" y="698"/>
			<point x="109" y="686" type="curve"/>
			<point x="136" y="572" type="line"/>
			<point x="146" y="578"/>
			<point x="162" y="582"/>
			<point x="176" y="582" type="curve" smooth="yes"/>
			<point x="213" y="582"/>
			<point x="225" y="568"/>
			<point x="231" y="524" type="curve" smooth="yes"/>
			<point x="236" y="485" type="line"/>
		</contour>
	</outline>
	<anchor name="aboverightLC" x="480" y="522"/>
	<anchor name="aboveUC" x="290" y="722"/>
	<anchor name="belowLC" x="230" y="-22"/>
</glyph>
<glyph name="lbar.a" format="2">
	<advance width="356"/>
	<outline>
		<contour>
			<point x="26" y="318" type="line"/>
			<point x="356" y="318" type="line"/>
			<point x="376" y="422" type="line"/>
			<point x="138" y="422" type="line"/>
			<point x="46" y="416" type="line"/>
		</contour>
		<component base="l.a" xOffset="40"/>
	</outline>
	<anchor name="aboveUC" x="270" y="722"/>
	<anchor name="belowLC" x="130" y="-22"/>
</glyph>
<glyph name="lenisgrave.cap" format="2">
	<advance width="370"/>
	<outline>
		<contour>
			<point x="74" y="386" type="line"/>
			<point x="172" y="394"/>
			<point x="242" y="450"/>
			<point x="242" y="548" type="curve" smooth="yes"/>
			<point x="242" y="614"/>
			<point x="206" y="664"/>
			<point x="92" y="666" type="curve"/>
			<point x="68" y="582" type="line"/>
			<point x="109" y="579"/>
			<point x="124" y="550"/>
			<point x="124" y="524" type="curve" smooth="yes"/>
			<point x="124" y="488"/>
			<point x="110" y="458"/>
			<point x="70" y="448" type="curve"/>
		</contour>
		<contour>
			<point x="330" y="400" type="line"/>
			<point x="420" y="400" type="line"/>
			<point x="410" y="660" type="line"/>
			<point x="280" y="660" type="line"/>
			<point x="270" y="642" type="line"/>
		</contour>
	</outline>
</glyph>
<glyph name="lenistilde.cap" format="2">
	<advance width="220"/>
	<outline>
		<contour>
			<point x="96" y="348" type="line"/>
			<point x="178" y="356"/>
			<point x="236" y="400"/>
			<point x="236" y="452" type="curve" smooth="yes"/>
			<point x="236" y="502"/>
			<point x="200" y="530"/>
			<point x="98" y="532" type="curve"/>
			<point x="82" y="466" type="line"/>
			<point x="118" y="464"/>
			<point x="128" y="452"/>
			<point x="128" y="438" type="curve" smooth="yes"/>
			<point x="128" y="422"/>
			<point x="114" y="406"/>
			<point x="88" y="400" type="curve"/>
		</contour>
		<contour>
			<point x="230" y="552" type="curve" smooth="yes"/>
			<point x="280" y="552"/>
			<point x="318" y="588"/>
			<point x="336" y="662" type="curve"/>
			<point x="270" y="672" type="line"/>
			<point x="264" y="646"/>
			<point x="252" y="636"/>
			<point x="236" y="636" type="curve" smooth="yes"/>
			<point x="202" y="636"/>
			<point x="182" y="678"/>
			<point x="132" y="678" type="curve" smooth="yes"/>
			<point x="82" y="678"/>
			<point x="44" y="642"/>
			<point x="26" y="568" type="curve"/>
			<point x="92" y="558" type="line"/>
			<point x="98" y="584"/>
			<point x="110" y="594"/>
			<point x="126" y="594" type="curve" smooth="yes"/>
			<point x="160" y="594"/>
			<point x="180" y="552"/>
		</contour>
	</outline>
</glyph>
<glyph name="macronacute" format="2">
	<outline>
		<contour>
			<point x="-32" y="594" type="line"/>
			<point x="262" y="594" type="line"/>
			<point x="282" y="694" type="line"/>
			<point x="-12" y="694" type="line"/>
		</contour>
		<contour>
			<point x="70" y="740" type="line"/>
			<point x="170" y="740" type="line"/>
			<point x="330" y="862" type="line"/>
			<point x="320" y="880" type="line"/>
			<point x="180" y="880" type="line"/>
		</contour>
	</outline>
	<anchor name="_aboveLC" x="100" y="522"/>
</glyph>
<glyph name="macrongrave.cap" format="2">
	<outline>
		<contour>
			<point x="-12" y="720" type="line"/>
			<point x="288" y="720" type="line"/>
			<point x="308" y="822" type="line"/>
			<point x="8" y="822" type="line"/>
		</contour>
		<contour>
			<point x="140" y="860" type="line"/>
			<point x="240" y="860" type="line"/>
			<point x="180" y="1000" type="line"/>
			<point x="40" y="1000" type="line"/>
			<point x="30" y="982" type="line"/>
		</contour>
	</outline>
	<anchor name="_aboveUC" x="130" y="672"/>
</glyph>
<glyph name="nine.cap" format="2">
	<advance width="520"/>
	<outline>
		<contour>
			<point x="172" y="-12" type="curve" smooth="yes"/>
			<point x="364" y="-12"/>
			<point x="502" y="162"/>
			<point x="502" y="432" type="curve" smooth="yes"/>
			<point x="502" y="569"/>
			<point x="422" y="662"/>
			<point x="296" y="662" type="curve" smooth="yes"/>
			<point x="158" y="662"/>
			<point x="62" y="534"/>
			<point x="62" y="406" type="curve" smooth="yes"/>
			<point x="62" y="285"/>
			<point x="132" y="234"/>
			<point x="220" y="234" type="curve" smooth="yes"/>
			<point x="254" y="234"/>
			<point x="309" y="256"/>
			<point x="343" y="294" type="curve"/>
			<point x="358" y="406" type="line"/>
			<point x="322" y="357"/>
			<point x="291" y="342"/>
			<point x="264" y="342" type="curve" smooth="yes"/>
			<point x="228" y="342"/>
			<point x="208" y="370"/>
			<point x="208" y="419" type="curve" smooth="yes"/>
			<point x="208" y="471"/>
			<point x="231" y="544"/>
			<point x="288" y="544" type="curve" smooth="yes"/>
			<point x="326" y="544"/>
			<point x="354" y="512"/>
			<point x="354" y="449" type="curve" smooth="yes"/>
			<point x="354" y="217"/>
			<point x="274" y="116"/>
			<point x="182" y="116" type="curve" smooth="yes"/>
			<point x="148" y="116"/>
			<point x="126" y="136"/>
			<point x="108" y="162" type="curve"/>
			<point x="8" y="78" type="line"/>
			<point x="36" y="40"/>
			<point x="88" y="-12"/>
		</contour>
	</outline>
</glyph>
<glyph name="nine.dnom" format="2">
	<advance width="366"/>
	<outline>
		<contour>
			<point x="114" y="-12" type="curve" smooth="yes"/>
			<point x="224" y="-12"/>
			<point x="328" y="76"/>
			<point x="328" y="244" type="curve" smooth="yes"/>
			<point x="328" y="332"/>
			<point x="276" y="402"/>
			<point x="190" y="402" type="curve" smooth="yes"/>
			<point x="107" y="402"/>
			<point x="34" y="336"/>
			<point x="34" y="250" type="curve" smooth="yes"/>
			<point x="34" y="184"/>
			<point x="74" y="142"/>
			<point x="140" y="142" type="curve" smooth="yes"/>
			<point x="170" y="142"/>
			<point x="201" y="156"/>
			<point x="220" y="174" type="curve"/>
			<point x="230" y="250" type="line"/>
			<point x="213" y="231"/>
			<point x="192" y="220"/>
			<point x="172" y="220" type="curve" smooth="yes"/>
			<point x="150" y="220"/>
			<point x="138" y="232"/>
			<point x="138" y="254" type="curve" smooth="yes"/>
			<point x="138" y="288"/>
			<point x="160" y="310"/>
			<point x="180" y="310" type="curve" smooth="yes"/>
			<point x="204" y="310"/>
			<point x="220" y="296"/>
			<point x="220" y="248" type="curve" smooth="yes"/>
			<point x="220" y="136"/>
			<point x="186" y="80"/>
			<point x="124" y="80" type="curve" smooth="yes"/>
			<point x="94" y="80"/>
			<point x="78" y="90"/>
			<point x="58" y="110" type="curve"/>
			<point x="-4" y="40" type="line"/>
			<point x="26" y="6"/>
			<point x="64" y="-12"/>
		</contour>
	</outline>
</glyph>
<glyph name="parenright.dnom" format="2">
	<advance width="264"/>
	<outline>
		<contour>
			<point x="48" y="-92" type="line"/>
			<point x="158" y="42"/>
			<point x="204" y="132"/>
			<point x="204" y="280" type="curve" smooth="yes"/>
			<point x="204" y="354"/>
			<point x="184" y="422"/>
			<point x="158" y="482" type="curve"/>
			<point x="70" y="448" type="line"/>
			<point x="86" y="398"/>
			<point x="94" y="332"/>
			<point x="94" y="278" type="curve" smooth="yes"/>
			<point x="94" y="156"/>
			<point x="52" y="56"/>
			<point x="-30" y="-58" type="curve"/>
		</contour>
	</outline>
</glyph>
<glyph name="seven.dnom" format="2">
	<advance width="368"/>
	<outline>
		<contour>
			<point x="56" y="0" type="curve"/>
			<point x="180" y="0" type="line"/>
			<point x="210" y="130"/>
			<point x="246" y="222"/>
			<point x="354" y="328" type="curve"/>
			<point x="364" y="390" type="line"/>
			<point x="76" y="390" type="line"/>
			<point x="58" y="292" type="line"/>
			<point x="216" y="292" type="line"/>
			<point x="134" y="200"/>
			<point x="86" y="118"/>
		</contour>
	</outline>
</glyph>
<glyph name="sha.c" format="2">
	<advance width="834"/>
	<outline>
		<contour>
			<point x="44" y="-170" type="line"/>
			<point x="638" y="-170" type="line"/>
			<point x="658" y="-70" type="line"/>
			<point x="64" y="-70" type="line"/>
		</contour>
		<component base="sha"/>
	</outline>
</glyph>
<glyph name="te.c" format="2">
	<advance width="834"/>
	<outline>
		<contour>
			<point x="184" y="590" type="line"/>
			<point x="778" y="590" type="line"/>
			<point x="798" y="690" type="line"/>
			<point x="204" y="690" type="line"/>
		</contour>
		<component base="sha"/>
	</outline>
</glyph>
<glyph name="tonos.cap" format="2">
	<advance width="150"/>
	<outline>
		<contour>
			<point x="30" y="400" type="line"/>
			<point x="130" y="400" type="line"/>
			<point x="240" y="642" type="line"/>
			<point x="230" y="660" type="line"/>
			<point x="100" y="660" type="line"/>
		</contour>
	</outline>
</glyph>
<glyph name="two.dnom" format="2">
	<advance width="368"/>
	<outline>
		<contour>
			<point x="-8" y="0" type="line"/>
			<point x="276" y="0" type="line"/>
			<point x="296" y="98" type="line"/>
			<point x="196" y="98" type="line"/>
			<point x="268" y="159"/>
			<point x="320" y="218"/>
			<point x="320" y="286" type="curve" smooth="yes"/>
			<point x="320" y="358"/>
			<point x="268" y="402"/>
			<point x="184" y="402" type="curve" smooth="yes"/>
			<point x="128" y="402"/>
			<point x="92" y="380"/>
			<point x="44" y="338" type="curve"/>
			<point x="108" y="270" type="line"/>
			<point x="128" y="288"/>
			<point x="144" y="302"/>
			<point x="162" y="302" type="curve" smooth="yes"/>
			<point x="190" y="302"/>
			<point x="204" y="286"/>
			<point x="204" y="264" type="curve" smooth="yes"/>
			<point x="204" y="212"/>
			<point x="134" y="144"/>
			<point x="4" y="62" type="curve"/>
		</contour>
	</outline>
</glyph>
<glyph name="two.tnum" format="2">
	<advance width="520"/>
	<outline>
		<contour>
			<point x="-14" y="0" type="line"/>
			<point x="424" y="0" type="line"/>
			<point x="450" y="134" type="line"/>
			<point x="348" y="134" type="line" smooth="yes"/>
			<point x="320" y="134"/>
			<point x="274" y="130"/>
			<point x="242" y="126" type="curve"/>
			<point x="371" y="229"/>
			<point x="472" y="312"/>
			<point x="472" y="416" type="curve" smooth="yes"/>
			<point x="472" y="522"/>
			<point x="394" y="592"/>
			<point x="270" y="592" type="curve" smooth="yes"/>
			<point x="206" y="592"/>
			<point x="146" y="562"/>
			<point x="84" y="508" type="curve"/>
			<point x="156" y="420" type="line"/>
			<point x="190" y="446"/>
			<point x="216" y="466"/>
			<point x="250" y="466" type="curve" smooth="yes"/>
			<point x="292" y="466"/>
			<point x="316" y="440"/>
			<point x="316" y="400" type="curve" smooth="yes"/>
			<point x="316" y="316"/>
			<point x="186" y="220"/>
			<point x="6" y="100" type="curve"/>
		</contour>
	</outline>
</glyph>
<glyph name="uogonek.d" format="2">
	<advance width="552"/>
	<outline>
		<contour>
			<point x="156" y="-220" type="curve" smooth="yes"/>
			<point x="206" y="-220"/>
			<point x="248" y="-204"/>
			<point x="280" y="-182" type="curve"/>
			<point x="250" y="-110" type="line"/>
			<point x="242" y="-114"/>
			<point x="234" y="-118"/>
			<point x="220" y="-118" type="curve" smooth="yes"/>
			<point x="202" y="-118"/>
			<point x="188" y="-106"/>
			<point x="188" y="-84" type="curve" smooth="yes"/>
			<point x="188" y="-62"/>
			<point x="200" y="-40"/>
			<point x="222" y="-16" type="curve" smooth="yes"/>
			<point x="246" y="10"/>
			<point x="276" y="36"/>
			<point x="310" y="64" type="curve"/>
			<point x="314" y="64" type="line"/>
			<point x="314" y="0" type="line"/>
			<point x="444" y="0" type="line"/>
			<point x="542" y="500" type="line"/>
			<point x="382" y="500" type="line"/>
			<point x="320" y="180" type="line"/>
			<point x="288" y="142"/>
			<point x="264" y="124"/>
			<point x="238" y="124" type="curve" smooth="yes"/>
			<point x="212" y="124"/>
			<point x="196" y="138"/>
			<point x="196" y="166" type="curve" smooth="yes"/>
			<point x="196" y="178"/>
			<point x="200" y="192"/>
			<point x="204" y="210" type="curve" smooth="yes"/>
			<point x="262" y="500" type="line"/>
			<point x="102" y="500" type="line"/>
			<point x="40" y="190" type="line" smooth="yes"/>
			<point x="35" y="166"/>
			<point x="32" y="140"/>
			<point x="32" y="118" type="curve" smooth="yes"/>
			<point x="32" y="32"/>
			<point x="68" y="-12"/>
			<point x="150" y="-12" type="curve" smooth="yes"/>
			<point x="166" y="-12"/>
			<point x="186" y="-8"/>
			<point x="194" y="-6" type="curve"/>
			<point x="158" y="0" type="line"/>
			<point x="110" y="-28"/>
			<point x="60" y="-80"/>
			<point x="60" y="-136" type="curve" smooth="yes"/>
			<point x="60" y="-190"/>
			<point x="100" y="-220"/>
		</contour>
	</outline>
	<anchor name="aboveLC" x="320" y="522"/>
</glyph>
<glyph name="zero.dnom" format="2">
	<advance width="384"/>
	<outline>
		<contour>
			<point x="154" y="-12" type="curve" smooth="yes"/>
			<point x="270" y="-12"/>
			<point x="350" y="94"/>
			<point x="350" y="240" type="curve" smooth="yes"/>
			<point x="350" y="340"/>
			<point x="284" y="402"/>
			<point x="206" y="402" type="curve" smooth="yes"/>
			<point x="90" y="402"/>
			<point x="10" y="296"/>
			<point x="10" y="150" type="curve" smooth="yes"/>
			<point x="10" y="50"/>
			<point x="76" y="-12"/>
		</contour>
		<contour>
			<point x="164" y="82" type="curve" smooth="yes"/>
			<point x="136" y="82"/>
			<point x="122" y="108"/>
			<point x="122" y="152" type="curve" smooth="yes"/>
			<point x="122" y="250"/>
			<point x="156" y="308"/>
			<point x="196" y="308" type="curve" smooth="yes"/>
			<point x="224" y="308"/>
			<point x="238" y="282"/>
			<point x="238" y="238" type="curve" smooth="yes"/>
			<point x="238" y="140"/>
			<point x="204" y="82"/>
		</contour>
	</outline>
</glyph>
